%TF.GenerationSoftware,KiCad,Pcbnew,9.0.1*%
%TF.CreationDate,2025-05-09T11:09:33+02:00*%
%TF.ProjectId,FL-Zetor,464c2d5a-6574-46f7-922e-6b696361645f,rev?*%
%TF.SameCoordinates,Original*%
%TF.FileFunction,Paste,Top*%
%TF.FilePolarity,Positive*%
%FSLAX46Y46*%
G04 Gerber Fmt 4.6, Leading zero omitted, Abs format (unit mm)*
G04 Created by KiCad (PCBNEW 9.0.1) date 2025-05-09 11:09:33*
%MOMM*%
%LPD*%
G01*
G04 APERTURE LIST*
G04 Aperture macros list*
%AMRoundRect*
0 Rectangle with rounded corners*
0 $1 Rounding radius*
0 $2 $3 $4 $5 $6 $7 $8 $9 X,Y pos of 4 corners*
0 Add a 4 corners polygon primitive as box body*
4,1,4,$2,$3,$4,$5,$6,$7,$8,$9,$2,$3,0*
0 Add four circle primitives for the rounded corners*
1,1,$1+$1,$2,$3*
1,1,$1+$1,$4,$5*
1,1,$1+$1,$6,$7*
1,1,$1+$1,$8,$9*
0 Add four rect primitives between the rounded corners*
20,1,$1+$1,$2,$3,$4,$5,0*
20,1,$1+$1,$4,$5,$6,$7,0*
20,1,$1+$1,$6,$7,$8,$9,0*
20,1,$1+$1,$8,$9,$2,$3,0*%
G04 Aperture macros list end*
%ADD10RoundRect,0.250000X-0.337500X-0.475000X0.337500X-0.475000X0.337500X0.475000X-0.337500X0.475000X0*%
%ADD11RoundRect,0.250000X0.550000X-1.050000X0.550000X1.050000X-0.550000X1.050000X-0.550000X-1.050000X0*%
%ADD12RoundRect,0.250000X-1.050000X-0.550000X1.050000X-0.550000X1.050000X0.550000X-1.050000X0.550000X0*%
%ADD13RoundRect,0.150000X0.150000X0.700000X-0.150000X0.700000X-0.150000X-0.700000X0.150000X-0.700000X0*%
%ADD14RoundRect,0.250000X0.250000X1.100000X-0.250000X1.100000X-0.250000X-1.100000X0.250000X-1.100000X0*%
%ADD15RoundRect,0.150000X-0.700000X0.150000X-0.700000X-0.150000X0.700000X-0.150000X0.700000X0.150000X0*%
%ADD16RoundRect,0.250000X-1.100000X0.250000X-1.100000X-0.250000X1.100000X-0.250000X1.100000X0.250000X0*%
%ADD17RoundRect,0.150000X0.700000X-0.150000X0.700000X0.150000X-0.700000X0.150000X-0.700000X-0.150000X0*%
%ADD18RoundRect,0.250000X1.100000X-0.250000X1.100000X0.250000X-1.100000X0.250000X-1.100000X-0.250000X0*%
%ADD19R,1.750000X0.450000*%
G04 APERTURE END LIST*
D10*
%TO.C,C5*%
X151462500Y-112500000D03*
X153537500Y-112500000D03*
%TD*%
D11*
%TO.C,C1*%
X112884479Y-83395357D03*
X112884479Y-79795357D03*
%TD*%
D12*
%TO.C,C4*%
X152210000Y-103815000D03*
X155810000Y-103815000D03*
%TD*%
D13*
%TO.C,J3*%
X174995000Y-73875000D03*
X173745000Y-73875000D03*
X172495000Y-73875000D03*
X171245000Y-73875000D03*
X169995000Y-73875000D03*
X168745000Y-73875000D03*
D14*
X176845000Y-70675000D03*
X166895000Y-70675000D03*
%TD*%
D12*
%TO.C,C6*%
X152070000Y-109000000D03*
X155670000Y-109000000D03*
%TD*%
D10*
%TO.C,C3*%
X151962500Y-100250000D03*
X154037500Y-100250000D03*
%TD*%
D15*
%TO.C,J4*%
X115720000Y-109150000D03*
X115720000Y-110400000D03*
X115720000Y-111650000D03*
X115720000Y-112900000D03*
X115720000Y-114150000D03*
X115720000Y-115400000D03*
D16*
X112520000Y-107300000D03*
X112520000Y-117250000D03*
%TD*%
D11*
%TO.C,C2*%
X117884479Y-83345357D03*
X117884479Y-79745357D03*
%TD*%
D17*
%TO.C,J5*%
X183020000Y-115650000D03*
X183020000Y-114400000D03*
X183020000Y-113150000D03*
X183020000Y-111900000D03*
X183020000Y-110650000D03*
X183020000Y-109400000D03*
D18*
X186220000Y-117500000D03*
X186220000Y-107550000D03*
%TD*%
D19*
%TO.C,D1*%
X141270000Y-102950000D03*
X141270000Y-103600000D03*
X141270000Y-104250000D03*
X141270000Y-104900000D03*
X141270000Y-105550000D03*
X141270000Y-106200000D03*
X141270000Y-106850000D03*
X141270000Y-107500000D03*
X141270000Y-108150000D03*
X141270000Y-108800000D03*
X141270000Y-109450000D03*
X141270000Y-110100000D03*
X148470000Y-110100000D03*
X148470000Y-109450000D03*
X148470000Y-108800000D03*
X148470000Y-108150000D03*
X148470000Y-107500000D03*
X148470000Y-106850000D03*
X148470000Y-106200000D03*
X148470000Y-105550000D03*
X148470000Y-104900000D03*
X148470000Y-104250000D03*
X148470000Y-103600000D03*
X148470000Y-102950000D03*
%TD*%
D13*
%TO.C,J2*%
X129995000Y-73875000D03*
X128745000Y-73875000D03*
X127495000Y-73875000D03*
X126245000Y-73875000D03*
X124995000Y-73875000D03*
X123745000Y-73875000D03*
D14*
X131845000Y-70675000D03*
X121895000Y-70675000D03*
%TD*%
M02*
