M48
; DRILL file {KiCad 9.0.1} date 2025-05-09T11:09:12+0200
; FORMAT={-:-/ absolute / metric / decimal}
; #@! TF.CreationDate,2025-05-09T11:09:12+02:00
; #@! TF.GenerationSoftware,Kicad,Pcbnew,9.0.1
; #@! TF.FileFunction,Plated,1,2,PTH
FMAT,2
METRIC
; #@! TA.AperFunction,Plated,PTH,ViaDrill
T1C0.400
; #@! TA.AperFunction,Plated,PTH,ComponentDrill
T2C0.900
; #@! TA.AperFunction,Plated,PTH,ComponentDrill
T3C1.020
; #@! TA.AperFunction,Plated,PTH,ComponentDrill
T4C1.100
; #@! TA.AperFunction,Plated,PTH,ComponentDrill
T5C1.850
; #@! TA.AperFunction,Plated,PTH,ComponentDrill
T6C2.700
; #@! TA.AperFunction,Plated,PTH,ComponentDrill
T7C3.200
%
G90
G05
T1
X117.37Y-114.275
X117.37Y-115.525
X131.62Y-104.525
X131.62Y-110.275
X138.62Y-103.775
X138.62Y-106.275
X143.12Y-107.525
X143.12Y-110.025
X146.315Y-104.357
X146.605Y-105.748
X146.615Y-106.762
X146.62Y-108.775
X146.633Y-107.762
X146.87Y-103.525
X180.87Y-109.525
X180.87Y-110.775
T2
X146.83Y-128.025
X149.37Y-128.025
X151.91Y-128.025
T3
X136.67Y-69.675
X136.67Y-72.215
X136.67Y-74.755
X136.67Y-77.295
X136.67Y-79.835
X136.67Y-82.375
X136.67Y-84.915
X136.67Y-87.455
X136.67Y-89.995
X136.67Y-92.535
X136.67Y-95.075
X136.67Y-97.615
X136.67Y-100.155
X136.67Y-102.695
X136.67Y-105.235
X136.67Y-107.775
X136.67Y-110.315
X136.67Y-112.855
X136.67Y-115.395
X162.07Y-69.675
X162.07Y-72.215
X162.07Y-74.755
X162.07Y-77.295
X162.07Y-79.835
X162.07Y-82.375
X162.07Y-84.915
X162.07Y-87.455
X162.07Y-89.995
X162.07Y-92.535
X162.07Y-95.075
X162.07Y-97.615
X162.07Y-100.155
X162.07Y-102.695
X162.07Y-105.235
X162.07Y-107.775
X162.07Y-110.315
X162.07Y-112.855
X162.07Y-115.395
T4
X114.094Y-86.9
X116.634Y-86.9
X119.174Y-86.9
T5
X114.12Y-93.575
X114.12Y-98.275
X114.12Y-102.975
T6
X121.37Y-103.775
X126.37Y-103.775
T7
X94.37Y-100.775
X94.37Y-123.775
X114.87Y-72.025
X183.87Y-72.025
X204.37Y-100.775
X204.37Y-123.775
M30
