%TF.GenerationSoftware,KiCad,Pcbnew,9.0.1*%
%TF.CreationDate,2025-05-09T11:09:33+02:00*%
%TF.ProjectId,FL-Zetor,464c2d5a-6574-46f7-922e-6b696361645f,rev?*%
%TF.SameCoordinates,Original*%
%TF.FileFunction,Soldermask,Bot*%
%TF.FilePolarity,Negative*%
%FSLAX46Y46*%
G04 Gerber Fmt 4.6, Leading zero omitted, Abs format (unit mm)*
G04 Created by KiCad (PCBNEW 9.0.1) date 2025-05-09 11:09:33*
%MOMM*%
%LPD*%
G01*
G04 APERTURE LIST*
G04 Aperture macros list*
%AMRoundRect*
0 Rectangle with rounded corners*
0 $1 Rounding radius*
0 $2 $3 $4 $5 $6 $7 $8 $9 X,Y pos of 4 corners*
0 Add a 4 corners polygon primitive as box body*
4,1,4,$2,$3,$4,$5,$6,$7,$8,$9,$2,$3,0*
0 Add four circle primitives for the rounded corners*
1,1,$1+$1,$2,$3*
1,1,$1+$1,$4,$5*
1,1,$1+$1,$6,$7*
1,1,$1+$1,$8,$9*
0 Add four rect primitives between the rounded corners*
20,1,$1+$1,$2,$3,$4,$5,0*
20,1,$1+$1,$4,$5,$6,$7,0*
20,1,$1+$1,$6,$7,$8,$9,0*
20,1,$1+$1,$8,$9,$2,$3,0*%
G04 Aperture macros list end*
%ADD10C,5.700000*%
%ADD11RoundRect,0.250200X-0.649800X-0.649800X0.649800X-0.649800X0.649800X0.649800X-0.649800X0.649800X0*%
%ADD12C,1.800000*%
%ADD13R,1.905000X2.000000*%
%ADD14O,1.905000X2.000000*%
%ADD15RoundRect,0.102000X-0.765000X-0.765000X0.765000X-0.765000X0.765000X0.765000X-0.765000X0.765000X0*%
%ADD16C,1.734000*%
%ADD17RoundRect,0.760000X-1.140000X-1.140000X1.140000X-1.140000X1.140000X1.140000X-1.140000X1.140000X0*%
%ADD18C,4.000000*%
%ADD19O,5.754000X2.979000*%
G04 APERTURE END LIST*
D10*
%TO.C,H5*%
X204370000Y-100775000D03*
%TD*%
%TO.C,H2*%
X94370000Y-100775000D03*
%TD*%
D11*
%TO.C,U1*%
X146829984Y-128025000D03*
D12*
X149369984Y-128025000D03*
X151909984Y-128025000D03*
%TD*%
D13*
%TO.C,U2*%
X119174479Y-86900357D03*
D14*
X116634479Y-86900357D03*
X114094479Y-86900357D03*
%TD*%
D15*
%TO.C,MCU1*%
X136670000Y-69675000D03*
D16*
X136670000Y-72215000D03*
X136670000Y-74755000D03*
X136670000Y-77295000D03*
X136670000Y-79835000D03*
X136670000Y-82375000D03*
X136670000Y-84915000D03*
X136670000Y-87455000D03*
X136670000Y-89995000D03*
X136670000Y-92535000D03*
X136670000Y-95075000D03*
X136670000Y-97615000D03*
X136670000Y-100155000D03*
X136670000Y-102695000D03*
X136670000Y-105235000D03*
X136670000Y-107775000D03*
X136670000Y-110315000D03*
X136670000Y-112855000D03*
X136670000Y-115395000D03*
X162070000Y-115395000D03*
X162070000Y-112855000D03*
X162070000Y-110315000D03*
X162070000Y-107775000D03*
X162070000Y-105235000D03*
X162070000Y-102695000D03*
X162070000Y-100155000D03*
X162070000Y-97615000D03*
X162070000Y-95075000D03*
X162070000Y-92535000D03*
X162070000Y-89995000D03*
X162070000Y-87455000D03*
X162070000Y-84915000D03*
X162070000Y-82375000D03*
X162070000Y-79835000D03*
X162070000Y-77295000D03*
X162070000Y-74755000D03*
X162070000Y-72215000D03*
X162070000Y-69675000D03*
%TD*%
D10*
%TO.C,H4*%
X114870000Y-72025000D03*
%TD*%
D17*
%TO.C,J1*%
X121370000Y-103775000D03*
D18*
X126370000Y-103775000D03*
%TD*%
D10*
%TO.C,H3*%
X183870000Y-72025000D03*
%TD*%
%TO.C,H6*%
X204370000Y-123775000D03*
%TD*%
D19*
%TO.C,SW1*%
X114120000Y-102975000D03*
X114120000Y-98275000D03*
X114120000Y-93575000D03*
%TD*%
D10*
%TO.C,H1*%
X94370000Y-123775000D03*
%TD*%
M02*
