%TF.GenerationSoftware,KiCad,Pcbnew,9.0.1*%
%TF.CreationDate,2025-05-09T11:09:33+02:00*%
%TF.ProjectId,FL-Zetor,464c2d5a-6574-46f7-922e-6b696361645f,rev?*%
%TF.SameCoordinates,Original*%
%TF.FileFunction,Legend,Bot*%
%TF.FilePolarity,Positive*%
%FSLAX46Y46*%
G04 Gerber Fmt 4.6, Leading zero omitted, Abs format (unit mm)*
G04 Created by KiCad (PCBNEW 9.0.1) date 2025-05-09 11:09:33*
%MOMM*%
%LPD*%
G01*
G04 APERTURE LIST*
G04 Aperture macros list*
%AMRoundRect*
0 Rectangle with rounded corners*
0 $1 Rounding radius*
0 $2 $3 $4 $5 $6 $7 $8 $9 X,Y pos of 4 corners*
0 Add a 4 corners polygon primitive as box body*
4,1,4,$2,$3,$4,$5,$6,$7,$8,$9,$2,$3,0*
0 Add four circle primitives for the rounded corners*
1,1,$1+$1,$2,$3*
1,1,$1+$1,$4,$5*
1,1,$1+$1,$6,$7*
1,1,$1+$1,$8,$9*
0 Add four rect primitives between the rounded corners*
20,1,$1+$1,$2,$3,$4,$5,0*
20,1,$1+$1,$4,$5,$6,$7,0*
20,1,$1+$1,$6,$7,$8,$9,0*
20,1,$1+$1,$8,$9,$2,$3,0*%
G04 Aperture macros list end*
%ADD10C,0.400000*%
%ADD11C,5.700000*%
%ADD12RoundRect,0.250200X-0.649800X-0.649800X0.649800X-0.649800X0.649800X0.649800X-0.649800X0.649800X0*%
%ADD13C,1.800000*%
%ADD14R,1.905000X2.000000*%
%ADD15O,1.905000X2.000000*%
%ADD16RoundRect,0.102000X-0.765000X-0.765000X0.765000X-0.765000X0.765000X0.765000X-0.765000X0.765000X0*%
%ADD17C,1.734000*%
%ADD18RoundRect,0.760000X-1.140000X-1.140000X1.140000X-1.140000X1.140000X1.140000X-1.140000X1.140000X0*%
%ADD19C,4.000000*%
%ADD20O,5.754000X2.979000*%
G04 APERTURE END LIST*
D10*
G36*
X167075863Y-127966842D02*
G01*
X167120172Y-128055460D01*
X167120172Y-128151510D01*
X167075862Y-128240128D01*
X166987245Y-128284438D01*
X166605480Y-128284438D01*
X166567791Y-128265593D01*
X166567791Y-127922533D01*
X166987245Y-127922533D01*
X167075863Y-127966842D01*
G37*
G36*
X168790148Y-127395413D02*
G01*
X168834458Y-127484032D01*
X168834458Y-127573810D01*
X168291485Y-127465216D01*
X168326386Y-127395412D01*
X168415004Y-127351104D01*
X168701531Y-127351104D01*
X168790148Y-127395413D01*
G37*
G36*
X174790149Y-127395413D02*
G01*
X174834459Y-127484032D01*
X174834459Y-127573810D01*
X174291486Y-127465216D01*
X174326387Y-127395412D01*
X174415005Y-127351104D01*
X174701532Y-127351104D01*
X174790149Y-127395413D01*
G37*
G36*
X179501126Y-127369948D02*
G01*
X179501126Y-128265593D01*
X179463437Y-128284438D01*
X179176910Y-128284438D01*
X179057692Y-128224829D01*
X179008354Y-128175489D01*
X178948745Y-128056271D01*
X178948745Y-127579270D01*
X179008355Y-127460049D01*
X179057692Y-127410713D01*
X179176910Y-127351104D01*
X179463437Y-127351104D01*
X179501126Y-127369948D01*
G37*
G36*
X181296941Y-127410713D02*
G01*
X181346278Y-127460050D01*
X181405888Y-127579270D01*
X181405888Y-128056272D01*
X181346279Y-128175488D01*
X181296939Y-128224829D01*
X181177723Y-128284438D01*
X180986434Y-128284438D01*
X180867216Y-128224829D01*
X180817878Y-128175489D01*
X180758269Y-128056271D01*
X180758269Y-127579270D01*
X180817879Y-127460049D01*
X180867216Y-127410713D01*
X180986434Y-127351104D01*
X181177723Y-127351104D01*
X181296941Y-127410713D01*
G37*
G36*
X183310650Y-128284438D02*
G01*
X182795958Y-128284438D01*
X182676740Y-128224829D01*
X182627402Y-128175489D01*
X182567793Y-128056271D01*
X182567793Y-127864984D01*
X182627402Y-127745765D01*
X182666303Y-127706864D01*
X182876440Y-127636819D01*
X183310650Y-127636819D01*
X183310650Y-128284438D01*
G37*
G36*
X183310650Y-127236819D02*
G01*
X182891196Y-127236819D01*
X182771978Y-127177209D01*
X182722640Y-127127871D01*
X182663031Y-127008652D01*
X182663031Y-126912603D01*
X182722640Y-126793384D01*
X182771978Y-126744047D01*
X182891196Y-126684438D01*
X183310650Y-126684438D01*
X183310650Y-127236819D01*
G37*
G36*
X188167794Y-127369948D02*
G01*
X188167794Y-128265593D01*
X188130105Y-128284438D01*
X187843578Y-128284438D01*
X187724360Y-128224829D01*
X187675022Y-128175489D01*
X187615413Y-128056271D01*
X187615413Y-127579270D01*
X187675023Y-127460049D01*
X187724360Y-127410713D01*
X187843578Y-127351104D01*
X188130105Y-127351104D01*
X188167794Y-127369948D01*
G37*
G36*
X191456818Y-127395413D02*
G01*
X191501128Y-127484032D01*
X191501128Y-127573810D01*
X190958155Y-127465216D01*
X190993056Y-127395412D01*
X191081674Y-127351104D01*
X191368201Y-127351104D01*
X191456818Y-127395413D01*
G37*
G36*
X193201705Y-127410713D02*
G01*
X193251042Y-127460050D01*
X193310652Y-127579270D01*
X193310652Y-128056272D01*
X193251043Y-128175488D01*
X193201703Y-128224829D01*
X193082487Y-128284438D01*
X192795960Y-128284438D01*
X192758271Y-128265593D01*
X192758271Y-127369948D01*
X192795960Y-127351104D01*
X193082487Y-127351104D01*
X193201705Y-127410713D01*
G37*
G36*
X195075867Y-127966842D02*
G01*
X195120176Y-128055460D01*
X195120176Y-128151510D01*
X195075866Y-128240128D01*
X194987249Y-128284438D01*
X194605484Y-128284438D01*
X194567795Y-128265593D01*
X194567795Y-127922533D01*
X194987249Y-127922533D01*
X195075867Y-127966842D01*
G37*
G36*
X197932874Y-129573252D02*
G01*
X163278902Y-129573252D01*
X163278902Y-127436819D01*
X163501124Y-127436819D01*
X163501124Y-128484438D01*
X163502087Y-128504041D01*
X163509736Y-128542495D01*
X163524740Y-128578717D01*
X163546522Y-128611317D01*
X163574245Y-128639040D01*
X163606845Y-128660822D01*
X163643067Y-128675826D01*
X163681521Y-128683475D01*
X163720727Y-128683475D01*
X163759181Y-128675826D01*
X163795403Y-128660822D01*
X163828003Y-128639040D01*
X163855726Y-128611317D01*
X163877508Y-128578717D01*
X163892512Y-128542495D01*
X163900161Y-128504041D01*
X163901124Y-128484438D01*
X163901124Y-127484032D01*
X163945433Y-127395413D01*
X164034052Y-127351104D01*
X164225340Y-127351104D01*
X164313957Y-127395413D01*
X164358267Y-127484032D01*
X164358267Y-128484438D01*
X164359230Y-128504041D01*
X164366879Y-128542495D01*
X164381883Y-128578717D01*
X164403665Y-128611317D01*
X164431388Y-128639040D01*
X164463988Y-128660822D01*
X164500210Y-128675826D01*
X164538664Y-128683475D01*
X164577870Y-128683475D01*
X164616324Y-128675826D01*
X164652546Y-128660822D01*
X164685146Y-128639040D01*
X164712869Y-128611317D01*
X164734651Y-128578717D01*
X164749655Y-128542495D01*
X164757304Y-128504041D01*
X164758267Y-128484438D01*
X164758267Y-127484032D01*
X164802576Y-127395412D01*
X164891194Y-127351104D01*
X165082483Y-127351104D01*
X165201701Y-127410713D01*
X165215410Y-127424422D01*
X165215410Y-128484438D01*
X165216373Y-128504041D01*
X165224022Y-128542495D01*
X165239026Y-128578717D01*
X165260808Y-128611317D01*
X165288531Y-128639040D01*
X165321131Y-128660822D01*
X165357353Y-128675826D01*
X165395807Y-128683475D01*
X165435013Y-128683475D01*
X165473467Y-128675826D01*
X165509689Y-128660822D01*
X165542289Y-128639040D01*
X165570012Y-128611317D01*
X165591794Y-128578717D01*
X165606798Y-128542495D01*
X165614447Y-128504041D01*
X165615410Y-128484438D01*
X165615410Y-127436819D01*
X166167791Y-127436819D01*
X166167791Y-128484438D01*
X166168754Y-128504041D01*
X166176403Y-128542495D01*
X166191407Y-128578717D01*
X166213189Y-128611317D01*
X166240912Y-128639040D01*
X166273512Y-128660822D01*
X166309734Y-128675826D01*
X166348188Y-128683475D01*
X166387394Y-128683475D01*
X166425848Y-128675826D01*
X166462070Y-128660822D01*
X166462819Y-128660321D01*
X166468825Y-128663324D01*
X166486789Y-128671229D01*
X166493644Y-128673106D01*
X166500210Y-128675826D01*
X166512505Y-128678271D01*
X166524604Y-128681585D01*
X166531695Y-128682088D01*
X166538664Y-128683475D01*
X166558267Y-128684438D01*
X167034458Y-128684438D01*
X167054061Y-128683475D01*
X167061030Y-128682088D01*
X167068122Y-128681585D01*
X167080222Y-128678271D01*
X167092515Y-128675826D01*
X167099078Y-128673107D01*
X167105937Y-128671229D01*
X167123901Y-128663323D01*
X167314377Y-128568085D01*
X167331480Y-128558457D01*
X167335793Y-128555109D01*
X167340534Y-128552407D01*
X167351245Y-128543116D01*
X167362453Y-128534419D01*
X167366029Y-128530295D01*
X167370153Y-128526719D01*
X167378851Y-128515510D01*
X167388141Y-128504800D01*
X167390842Y-128500060D01*
X167394192Y-128495745D01*
X167403820Y-128478642D01*
X167499058Y-128288165D01*
X167506963Y-128270201D01*
X167508840Y-128263345D01*
X167511560Y-128256780D01*
X167514005Y-128244484D01*
X167517319Y-128232386D01*
X167517822Y-128225294D01*
X167519209Y-128218326D01*
X167520172Y-128198723D01*
X167520172Y-128008247D01*
X167519209Y-127988644D01*
X167517822Y-127981675D01*
X167517319Y-127974584D01*
X167514005Y-127962485D01*
X167511560Y-127950190D01*
X167508840Y-127943624D01*
X167506963Y-127936769D01*
X167499058Y-127918805D01*
X167403819Y-127728328D01*
X167394191Y-127711225D01*
X167390843Y-127706911D01*
X167388141Y-127702171D01*
X167378850Y-127691459D01*
X167370153Y-127680252D01*
X167366029Y-127676675D01*
X167362453Y-127672552D01*
X167351245Y-127663854D01*
X167340534Y-127654564D01*
X167335793Y-127651861D01*
X167331480Y-127648514D01*
X167314377Y-127638886D01*
X167123901Y-127543648D01*
X167105937Y-127535742D01*
X167099078Y-127533863D01*
X167092515Y-127531145D01*
X167080222Y-127528699D01*
X167068122Y-127525386D01*
X167061030Y-127524882D01*
X167054061Y-127523496D01*
X167034458Y-127522533D01*
X166605480Y-127522533D01*
X166567791Y-127503688D01*
X166567791Y-127484032D01*
X166612100Y-127395412D01*
X166700718Y-127351104D01*
X166987245Y-127351104D01*
X167135492Y-127425228D01*
X167153456Y-127433133D01*
X167191271Y-127443489D01*
X167230379Y-127446268D01*
X167269278Y-127441364D01*
X167282913Y-127436819D01*
X167882077Y-127436819D01*
X167882077Y-127627295D01*
X167883020Y-127646495D01*
X167883020Y-127646690D01*
X167883033Y-127646755D01*
X167883040Y-127646898D01*
X167886949Y-127666550D01*
X167890629Y-127685151D01*
X167890667Y-127685244D01*
X167890689Y-127685352D01*
X167898188Y-127703457D01*
X167905594Y-127721390D01*
X167905654Y-127721480D01*
X167905693Y-127721574D01*
X167916285Y-127737427D01*
X167927342Y-127754012D01*
X167927416Y-127754087D01*
X167927475Y-127754174D01*
X167941432Y-127768131D01*
X167955037Y-127781764D01*
X167955121Y-127781820D01*
X167955198Y-127781897D01*
X167971590Y-127792850D01*
X167987613Y-127803580D01*
X167987710Y-127803620D01*
X167987798Y-127803679D01*
X168005931Y-127811190D01*
X168023820Y-127818622D01*
X168023954Y-127818655D01*
X168024020Y-127818683D01*
X168024222Y-127818723D01*
X168042854Y-127823411D01*
X168834458Y-127981731D01*
X168834458Y-128151510D01*
X168790148Y-128240128D01*
X168701531Y-128284438D01*
X168415004Y-128284438D01*
X168266758Y-128210315D01*
X168248794Y-128202409D01*
X168210979Y-128192053D01*
X168171871Y-128189275D01*
X168132971Y-128194178D01*
X168095777Y-128206576D01*
X168061715Y-128225993D01*
X168032096Y-128251681D01*
X168008058Y-128282654D01*
X167990524Y-128317721D01*
X167980168Y-128355536D01*
X167977390Y-128394644D01*
X167982293Y-128433544D01*
X167994691Y-128470738D01*
X168014108Y-128504800D01*
X168039796Y-128534419D01*
X168070769Y-128558457D01*
X168087872Y-128568085D01*
X168278349Y-128663324D01*
X168296313Y-128671229D01*
X168303168Y-128673106D01*
X168309734Y-128675826D01*
X168322029Y-128678271D01*
X168334128Y-128681585D01*
X168341219Y-128682088D01*
X168348188Y-128683475D01*
X168367791Y-128684438D01*
X168748744Y-128684438D01*
X168768347Y-128683475D01*
X168775316Y-128682088D01*
X168782408Y-128681585D01*
X168794508Y-128678271D01*
X168806801Y-128675826D01*
X168813364Y-128673107D01*
X168820223Y-128671229D01*
X168838187Y-128663323D01*
X169028663Y-128568085D01*
X169045766Y-128558457D01*
X169050079Y-128555109D01*
X169054820Y-128552407D01*
X169065531Y-128543116D01*
X169076739Y-128534419D01*
X169080315Y-128530295D01*
X169084439Y-128526719D01*
X169093137Y-128515510D01*
X169102427Y-128504800D01*
X169105128Y-128500060D01*
X169108478Y-128495745D01*
X169118106Y-128478642D01*
X169213344Y-128288165D01*
X169221249Y-128270201D01*
X169223126Y-128263345D01*
X169225846Y-128256780D01*
X169228291Y-128244484D01*
X169231605Y-128232386D01*
X169232108Y-128225294D01*
X169233495Y-128218326D01*
X169234458Y-128198723D01*
X169234458Y-127436819D01*
X169233495Y-127417216D01*
X169232108Y-127410247D01*
X169231605Y-127403156D01*
X169228291Y-127391057D01*
X169225846Y-127378762D01*
X169223126Y-127372196D01*
X169221249Y-127365341D01*
X169213344Y-127347377D01*
X169118106Y-127156900D01*
X169108478Y-127139797D01*
X169105128Y-127135481D01*
X169102860Y-127131501D01*
X169406850Y-127131501D01*
X169406850Y-127170707D01*
X169414499Y-127209161D01*
X169429503Y-127245383D01*
X169451285Y-127277983D01*
X169479008Y-127305706D01*
X169511608Y-127327488D01*
X169547830Y-127342492D01*
X169586284Y-127350141D01*
X169605887Y-127351104D01*
X169882077Y-127351104D01*
X169882077Y-128151510D01*
X169837767Y-128240128D01*
X169749150Y-128284438D01*
X169605887Y-128284438D01*
X169586284Y-128285401D01*
X169547830Y-128293050D01*
X169511608Y-128308054D01*
X169479008Y-128329836D01*
X169451285Y-128357559D01*
X169429503Y-128390159D01*
X169414499Y-128426381D01*
X169406850Y-128464835D01*
X169406850Y-128504041D01*
X169414499Y-128542495D01*
X169429503Y-128578717D01*
X169451285Y-128611317D01*
X169479008Y-128639040D01*
X169511608Y-128660822D01*
X169547830Y-128675826D01*
X169586284Y-128683475D01*
X169605887Y-128684438D01*
X169796363Y-128684438D01*
X169815966Y-128683475D01*
X169822935Y-128682088D01*
X169830027Y-128681585D01*
X169842127Y-128678271D01*
X169854420Y-128675826D01*
X169860983Y-128673107D01*
X169867842Y-128671229D01*
X169885806Y-128663323D01*
X170076282Y-128568085D01*
X170093385Y-128558457D01*
X170097698Y-128555109D01*
X170102439Y-128552407D01*
X170113150Y-128543116D01*
X170124358Y-128534419D01*
X170127934Y-128530295D01*
X170132058Y-128526719D01*
X170140756Y-128515510D01*
X170150046Y-128504800D01*
X170152747Y-128500060D01*
X170156097Y-128495745D01*
X170157541Y-128493180D01*
X172263221Y-128493180D01*
X172268766Y-128531992D01*
X172281776Y-128568978D01*
X172301752Y-128602714D01*
X172327925Y-128631906D01*
X172359290Y-128655429D01*
X172394643Y-128672383D01*
X172432623Y-128682113D01*
X172471772Y-128684247D01*
X172510584Y-128678702D01*
X172547570Y-128665692D01*
X172581306Y-128645716D01*
X172610498Y-128619543D01*
X172623030Y-128604438D01*
X173024935Y-128068564D01*
X173024935Y-128484438D01*
X173025898Y-128504041D01*
X173033547Y-128542495D01*
X173048551Y-128578717D01*
X173070333Y-128611317D01*
X173098056Y-128639040D01*
X173130656Y-128660822D01*
X173166878Y-128675826D01*
X173205332Y-128683475D01*
X173244538Y-128683475D01*
X173282992Y-128675826D01*
X173319214Y-128660822D01*
X173351814Y-128639040D01*
X173379537Y-128611317D01*
X173401319Y-128578717D01*
X173416323Y-128542495D01*
X173423972Y-128504041D01*
X173424935Y-128484438D01*
X173424935Y-127436819D01*
X173882078Y-127436819D01*
X173882078Y-127627295D01*
X173883021Y-127646495D01*
X173883021Y-127646690D01*
X173883034Y-127646755D01*
X173883041Y-127646898D01*
X173886950Y-127666550D01*
X173890630Y-127685151D01*
X173890668Y-127685244D01*
X173890690Y-127685352D01*
X173898189Y-127703457D01*
X173905595Y-127721390D01*
X173905655Y-127721480D01*
X173905694Y-127721574D01*
X173916286Y-127737427D01*
X173927343Y-127754012D01*
X173927417Y-127754087D01*
X173927476Y-127754174D01*
X173941433Y-127768131D01*
X173955038Y-127781764D01*
X173955122Y-127781820D01*
X173955199Y-127781897D01*
X173971591Y-127792850D01*
X173987614Y-127803580D01*
X173987711Y-127803620D01*
X173987799Y-127803679D01*
X174005932Y-127811190D01*
X174023821Y-127818622D01*
X174023955Y-127818655D01*
X174024021Y-127818683D01*
X174024223Y-127818723D01*
X174042855Y-127823411D01*
X174834459Y-127981731D01*
X174834459Y-128151510D01*
X174790149Y-128240128D01*
X174701532Y-128284438D01*
X174415005Y-128284438D01*
X174266759Y-128210315D01*
X174248795Y-128202409D01*
X174210980Y-128192053D01*
X174171872Y-128189275D01*
X174132972Y-128194178D01*
X174095778Y-128206576D01*
X174061716Y-128225993D01*
X174032097Y-128251681D01*
X174008059Y-128282654D01*
X173990525Y-128317721D01*
X173980169Y-128355536D01*
X173977391Y-128394644D01*
X173982294Y-128433544D01*
X173994692Y-128470738D01*
X174014109Y-128504800D01*
X174039797Y-128534419D01*
X174070770Y-128558457D01*
X174087873Y-128568085D01*
X174278350Y-128663324D01*
X174296314Y-128671229D01*
X174303169Y-128673106D01*
X174309735Y-128675826D01*
X174322030Y-128678271D01*
X174334129Y-128681585D01*
X174341220Y-128682088D01*
X174348189Y-128683475D01*
X174367792Y-128684438D01*
X174748745Y-128684438D01*
X174768348Y-128683475D01*
X174775317Y-128682088D01*
X174782409Y-128681585D01*
X174794509Y-128678271D01*
X174806802Y-128675826D01*
X174813365Y-128673107D01*
X174820224Y-128671229D01*
X174838188Y-128663323D01*
X175028664Y-128568085D01*
X175045767Y-128558457D01*
X175050080Y-128555109D01*
X175054821Y-128552407D01*
X175065532Y-128543116D01*
X175076740Y-128534419D01*
X175080316Y-128530295D01*
X175084440Y-128526719D01*
X175093138Y-128515510D01*
X175102428Y-128504800D01*
X175105129Y-128500060D01*
X175108479Y-128495745D01*
X175118107Y-128478642D01*
X175213345Y-128288165D01*
X175221250Y-128270201D01*
X175223127Y-128263345D01*
X175225847Y-128256780D01*
X175228292Y-128244484D01*
X175231606Y-128232386D01*
X175232109Y-128225294D01*
X175233496Y-128218326D01*
X175234459Y-128198723D01*
X175234459Y-127436819D01*
X175233496Y-127417216D01*
X175232109Y-127410247D01*
X175231606Y-127403156D01*
X175228292Y-127391057D01*
X175225847Y-127378762D01*
X175223127Y-127372196D01*
X175221250Y-127365341D01*
X175213345Y-127347377D01*
X175118107Y-127156900D01*
X175108479Y-127139797D01*
X175105129Y-127135481D01*
X175102861Y-127131501D01*
X175406851Y-127131501D01*
X175406851Y-127170707D01*
X175414500Y-127209161D01*
X175429504Y-127245383D01*
X175451286Y-127277983D01*
X175479009Y-127305706D01*
X175511609Y-127327488D01*
X175547831Y-127342492D01*
X175586285Y-127350141D01*
X175605888Y-127351104D01*
X175882078Y-127351104D01*
X175882078Y-128151510D01*
X175837768Y-128240128D01*
X175749151Y-128284438D01*
X175605888Y-128284438D01*
X175586285Y-128285401D01*
X175547831Y-128293050D01*
X175511609Y-128308054D01*
X175479009Y-128329836D01*
X175451286Y-128357559D01*
X175429504Y-128390159D01*
X175414500Y-128426381D01*
X175406851Y-128464835D01*
X175406851Y-128504041D01*
X175414500Y-128542495D01*
X175429504Y-128578717D01*
X175451286Y-128611317D01*
X175479009Y-128639040D01*
X175511609Y-128660822D01*
X175547831Y-128675826D01*
X175586285Y-128683475D01*
X175605888Y-128684438D01*
X175796364Y-128684438D01*
X175815967Y-128683475D01*
X175822936Y-128682088D01*
X175830028Y-128681585D01*
X175842128Y-128678271D01*
X175854421Y-128675826D01*
X175860984Y-128673107D01*
X175867843Y-128671229D01*
X175885807Y-128663323D01*
X176076283Y-128568085D01*
X176093386Y-128558457D01*
X176097699Y-128555109D01*
X176102440Y-128552407D01*
X176113151Y-128543116D01*
X176124359Y-128534419D01*
X176127935Y-128530295D01*
X176132059Y-128526719D01*
X176140757Y-128515510D01*
X176150047Y-128504800D01*
X176152748Y-128500060D01*
X176156098Y-128495745D01*
X176165726Y-128478642D01*
X176260964Y-128288165D01*
X176268869Y-128270201D01*
X176270746Y-128263345D01*
X176273466Y-128256780D01*
X176275911Y-128244484D01*
X176279225Y-128232386D01*
X176279728Y-128225294D01*
X176281115Y-128218326D01*
X176282078Y-128198723D01*
X176282078Y-127351104D01*
X176367792Y-127351104D01*
X176387395Y-127350141D01*
X176425849Y-127342492D01*
X176462071Y-127327488D01*
X176494671Y-127305706D01*
X176522394Y-127277983D01*
X176544176Y-127245383D01*
X176559180Y-127209161D01*
X176566829Y-127170707D01*
X176566829Y-127151104D01*
X176834459Y-127151104D01*
X176834459Y-128484438D01*
X176835422Y-128504041D01*
X176843071Y-128542495D01*
X176858075Y-128578717D01*
X176879857Y-128611317D01*
X176907580Y-128639040D01*
X176940180Y-128660822D01*
X176976402Y-128675826D01*
X177014856Y-128683475D01*
X177054062Y-128683475D01*
X177092516Y-128675826D01*
X177128738Y-128660822D01*
X177161338Y-128639040D01*
X177168279Y-128632098D01*
X177230731Y-128663324D01*
X177248695Y-128671229D01*
X177255550Y-128673106D01*
X177262116Y-128675826D01*
X177274411Y-128678271D01*
X177286510Y-128681585D01*
X177293601Y-128682088D01*
X177300570Y-128683475D01*
X177320173Y-128684438D01*
X177605888Y-128684438D01*
X177625491Y-128683475D01*
X177632460Y-128682088D01*
X177639552Y-128681585D01*
X177651652Y-128678271D01*
X177663945Y-128675826D01*
X177670508Y-128673107D01*
X177677367Y-128671229D01*
X177695331Y-128663323D01*
X177885807Y-128568085D01*
X177902910Y-128558457D01*
X177907223Y-128555109D01*
X177911964Y-128552407D01*
X177922675Y-128543116D01*
X177933883Y-128534419D01*
X177937459Y-128530295D01*
X177941583Y-128526719D01*
X177950281Y-128515510D01*
X177959571Y-128504800D01*
X177962272Y-128500060D01*
X177965622Y-128495745D01*
X177975250Y-128478642D01*
X178070488Y-128288165D01*
X178078393Y-128270201D01*
X178080270Y-128263345D01*
X178082990Y-128256780D01*
X178085435Y-128244484D01*
X178088749Y-128232386D01*
X178089252Y-128225294D01*
X178090639Y-128218326D01*
X178091602Y-128198723D01*
X178091602Y-127532057D01*
X178548745Y-127532057D01*
X178548745Y-128103485D01*
X178549708Y-128123088D01*
X178551094Y-128130057D01*
X178551598Y-128137149D01*
X178554911Y-128149249D01*
X178557357Y-128161542D01*
X178560075Y-128168105D01*
X178561954Y-128174964D01*
X178569860Y-128192928D01*
X178665098Y-128383404D01*
X178666980Y-128386747D01*
X178667598Y-128388239D01*
X178669006Y-128390346D01*
X178674726Y-128400507D01*
X178682417Y-128410417D01*
X178689381Y-128420839D01*
X178697209Y-128429477D01*
X178698764Y-128431480D01*
X178699982Y-128432536D01*
X178702561Y-128435382D01*
X178797799Y-128530621D01*
X178800645Y-128533201D01*
X178801702Y-128534419D01*
X178803702Y-128535971D01*
X178812341Y-128543801D01*
X178822767Y-128550768D01*
X178832675Y-128558457D01*
X178842832Y-128564174D01*
X178844941Y-128565584D01*
X178846433Y-128566202D01*
X178849778Y-128568085D01*
X179040255Y-128663324D01*
X179058219Y-128671229D01*
X179065074Y-128673106D01*
X179071640Y-128675826D01*
X179083935Y-128678271D01*
X179096034Y-128681585D01*
X179103125Y-128682088D01*
X179110094Y-128683475D01*
X179129697Y-128684438D01*
X179510650Y-128684438D01*
X179530253Y-128683475D01*
X179537222Y-128682088D01*
X179544314Y-128681585D01*
X179556414Y-128678271D01*
X179568707Y-128675826D01*
X179575270Y-128673107D01*
X179582129Y-128671229D01*
X179600093Y-128663323D01*
X179606097Y-128660320D01*
X179606847Y-128660822D01*
X179643069Y-128675826D01*
X179681523Y-128683475D01*
X179720729Y-128683475D01*
X179759183Y-128675826D01*
X179795405Y-128660822D01*
X179828005Y-128639040D01*
X179855728Y-128611317D01*
X179877510Y-128578717D01*
X179892514Y-128542495D01*
X179900163Y-128504041D01*
X179901126Y-128484438D01*
X179901126Y-127532057D01*
X180358269Y-127532057D01*
X180358269Y-128103485D01*
X180359232Y-128123088D01*
X180360618Y-128130057D01*
X180361122Y-128137149D01*
X180364435Y-128149249D01*
X180366881Y-128161542D01*
X180369599Y-128168105D01*
X180371478Y-128174964D01*
X180379384Y-128192928D01*
X180474622Y-128383404D01*
X180476504Y-128386747D01*
X180477122Y-128388239D01*
X180478530Y-128390346D01*
X180484250Y-128400507D01*
X180491941Y-128410417D01*
X180498905Y-128420839D01*
X180506733Y-128429477D01*
X180508288Y-128431480D01*
X180509506Y-128432536D01*
X180512085Y-128435382D01*
X180607323Y-128530621D01*
X180610169Y-128533201D01*
X180611226Y-128534419D01*
X180613226Y-128535971D01*
X180621865Y-128543801D01*
X180632291Y-128550768D01*
X180642199Y-128558457D01*
X180652356Y-128564174D01*
X180654465Y-128565584D01*
X180655957Y-128566202D01*
X180659302Y-128568085D01*
X180849779Y-128663324D01*
X180867743Y-128671229D01*
X180874598Y-128673106D01*
X180881164Y-128675826D01*
X180893459Y-128678271D01*
X180905558Y-128681585D01*
X180912649Y-128682088D01*
X180919618Y-128683475D01*
X180939221Y-128684438D01*
X181224936Y-128684438D01*
X181244539Y-128683475D01*
X181251508Y-128682088D01*
X181258600Y-128681585D01*
X181270700Y-128678271D01*
X181282993Y-128675826D01*
X181289556Y-128673107D01*
X181296415Y-128671229D01*
X181314379Y-128663323D01*
X181504855Y-128568085D01*
X181508199Y-128566202D01*
X181509692Y-128565584D01*
X181511800Y-128564174D01*
X181521958Y-128558457D01*
X181531865Y-128550768D01*
X181542292Y-128543801D01*
X181550930Y-128535971D01*
X181552931Y-128534419D01*
X181553987Y-128533201D01*
X181556834Y-128530621D01*
X181652072Y-128435381D01*
X181654648Y-128432538D01*
X181655869Y-128431480D01*
X181657423Y-128429476D01*
X181665253Y-128420839D01*
X181672220Y-128410410D01*
X181679907Y-128400507D01*
X181685626Y-128390347D01*
X181687035Y-128388239D01*
X181687652Y-128386747D01*
X181689535Y-128383404D01*
X181784774Y-128192927D01*
X181792679Y-128174963D01*
X181794556Y-128168107D01*
X181797276Y-128161542D01*
X181799721Y-128149246D01*
X181803035Y-128137148D01*
X181803538Y-128130056D01*
X181804925Y-128123088D01*
X181805888Y-128103485D01*
X181805888Y-127817771D01*
X182167793Y-127817771D01*
X182167793Y-128103485D01*
X182168756Y-128123088D01*
X182170142Y-128130057D01*
X182170646Y-128137149D01*
X182173959Y-128149249D01*
X182176405Y-128161542D01*
X182179123Y-128168105D01*
X182181002Y-128174964D01*
X182188908Y-128192928D01*
X182284146Y-128383404D01*
X182286028Y-128386747D01*
X182286646Y-128388239D01*
X182288054Y-128390346D01*
X182293774Y-128400507D01*
X182301465Y-128410417D01*
X182308429Y-128420839D01*
X182316257Y-128429477D01*
X182317812Y-128431480D01*
X182319030Y-128432536D01*
X182321609Y-128435382D01*
X182416847Y-128530621D01*
X182419693Y-128533201D01*
X182420750Y-128534419D01*
X182422750Y-128535971D01*
X182431389Y-128543801D01*
X182441815Y-128550768D01*
X182451723Y-128558457D01*
X182461880Y-128564174D01*
X182463989Y-128565584D01*
X182465481Y-128566202D01*
X182468826Y-128568085D01*
X182659303Y-128663324D01*
X182677267Y-128671229D01*
X182684122Y-128673106D01*
X182690688Y-128675826D01*
X182702983Y-128678271D01*
X182715082Y-128681585D01*
X182722173Y-128682088D01*
X182729142Y-128683475D01*
X182748745Y-128684438D01*
X183510650Y-128684438D01*
X183530253Y-128683475D01*
X183568707Y-128675826D01*
X183604929Y-128660822D01*
X183637529Y-128639040D01*
X183665252Y-128611317D01*
X183687034Y-128578717D01*
X183702038Y-128542495D01*
X183709687Y-128504041D01*
X183710650Y-128484438D01*
X183710650Y-127160800D01*
X185596600Y-127160800D01*
X185602330Y-127199586D01*
X185608017Y-127218371D01*
X186084208Y-128551705D01*
X186084267Y-128551848D01*
X186084287Y-128551927D01*
X186084387Y-128552139D01*
X186085639Y-128555167D01*
X186086861Y-128558716D01*
X186277337Y-129034906D01*
X186285511Y-129052749D01*
X186286179Y-129053777D01*
X186286648Y-129054907D01*
X186296854Y-129070182D01*
X186306894Y-129085612D01*
X186307749Y-129086488D01*
X186308430Y-129087507D01*
X186321611Y-129102049D01*
X186416849Y-129197287D01*
X186419691Y-129199863D01*
X186420751Y-129201085D01*
X186422755Y-129202640D01*
X186431391Y-129210468D01*
X186441817Y-129217434D01*
X186451724Y-129225123D01*
X186461886Y-129230844D01*
X186463991Y-129232250D01*
X186465479Y-129232866D01*
X186468827Y-129234751D01*
X186659304Y-129329990D01*
X186677268Y-129337895D01*
X186715083Y-129348251D01*
X186754191Y-129351030D01*
X186793090Y-129346126D01*
X186830285Y-129333728D01*
X186864346Y-129314311D01*
X186893965Y-129288623D01*
X186918004Y-129257650D01*
X186935537Y-129222583D01*
X186945893Y-129184768D01*
X186948672Y-129145660D01*
X186943769Y-129106760D01*
X186931370Y-129069566D01*
X186911953Y-129035504D01*
X186886265Y-129005885D01*
X186855292Y-128981847D01*
X186838189Y-128972219D01*
X186676741Y-128891495D01*
X186633481Y-128848235D01*
X186486359Y-128480430D01*
X186825064Y-127532057D01*
X187215413Y-127532057D01*
X187215413Y-128103485D01*
X187216376Y-128123088D01*
X187217762Y-128130057D01*
X187218266Y-128137149D01*
X187221579Y-128149249D01*
X187224025Y-128161542D01*
X187226743Y-128168105D01*
X187228622Y-128174964D01*
X187236528Y-128192928D01*
X187331766Y-128383404D01*
X187333648Y-128386747D01*
X187334266Y-128388239D01*
X187335674Y-128390346D01*
X187341394Y-128400507D01*
X187349085Y-128410417D01*
X187356049Y-128420839D01*
X187363877Y-128429477D01*
X187365432Y-128431480D01*
X187366650Y-128432536D01*
X187369229Y-128435382D01*
X187464467Y-128530621D01*
X187467313Y-128533201D01*
X187468370Y-128534419D01*
X187470370Y-128535971D01*
X187479009Y-128543801D01*
X187489435Y-128550768D01*
X187499343Y-128558457D01*
X187509500Y-128564174D01*
X187511609Y-128565584D01*
X187513101Y-128566202D01*
X187516446Y-128568085D01*
X187706923Y-128663324D01*
X187724887Y-128671229D01*
X187731742Y-128673106D01*
X187738308Y-128675826D01*
X187750603Y-128678271D01*
X187762702Y-128681585D01*
X187769793Y-128682088D01*
X187776762Y-128683475D01*
X187796365Y-128684438D01*
X188177318Y-128684438D01*
X188196921Y-128683475D01*
X188203890Y-128682088D01*
X188210982Y-128681585D01*
X188223082Y-128678271D01*
X188235375Y-128675826D01*
X188241938Y-128673107D01*
X188248797Y-128671229D01*
X188266761Y-128663323D01*
X188272765Y-128660320D01*
X188273515Y-128660822D01*
X188309737Y-128675826D01*
X188348191Y-128683475D01*
X188387397Y-128683475D01*
X188425851Y-128675826D01*
X188462073Y-128660822D01*
X188494673Y-128639040D01*
X188522396Y-128611317D01*
X188544178Y-128578717D01*
X188559182Y-128542495D01*
X188566831Y-128504041D01*
X188567794Y-128484438D01*
X188567794Y-127436819D01*
X190548747Y-127436819D01*
X190548747Y-127627295D01*
X190549690Y-127646495D01*
X190549690Y-127646690D01*
X190549703Y-127646755D01*
X190549710Y-127646898D01*
X190553619Y-127666550D01*
X190557299Y-127685151D01*
X190557337Y-127685244D01*
X190557359Y-127685352D01*
X190564858Y-127703457D01*
X190572264Y-127721390D01*
X190572324Y-127721480D01*
X190572363Y-127721574D01*
X190582955Y-127737427D01*
X190594012Y-127754012D01*
X190594086Y-127754087D01*
X190594145Y-127754174D01*
X190608102Y-127768131D01*
X190621707Y-127781764D01*
X190621791Y-127781820D01*
X190621868Y-127781897D01*
X190638260Y-127792850D01*
X190654283Y-127803580D01*
X190654380Y-127803620D01*
X190654468Y-127803679D01*
X190672601Y-127811190D01*
X190690490Y-127818622D01*
X190690624Y-127818655D01*
X190690690Y-127818683D01*
X190690892Y-127818723D01*
X190709524Y-127823411D01*
X191501128Y-127981731D01*
X191501128Y-128151510D01*
X191456818Y-128240128D01*
X191368201Y-128284438D01*
X191081674Y-128284438D01*
X190933428Y-128210315D01*
X190915464Y-128202409D01*
X190877649Y-128192053D01*
X190838541Y-128189275D01*
X190799641Y-128194178D01*
X190762447Y-128206576D01*
X190728385Y-128225993D01*
X190698766Y-128251681D01*
X190674728Y-128282654D01*
X190657194Y-128317721D01*
X190646838Y-128355536D01*
X190644060Y-128394644D01*
X190648963Y-128433544D01*
X190661361Y-128470738D01*
X190680778Y-128504800D01*
X190706466Y-128534419D01*
X190737439Y-128558457D01*
X190754542Y-128568085D01*
X190945019Y-128663324D01*
X190962983Y-128671229D01*
X190969838Y-128673106D01*
X190976404Y-128675826D01*
X190988699Y-128678271D01*
X191000798Y-128681585D01*
X191007889Y-128682088D01*
X191014858Y-128683475D01*
X191034461Y-128684438D01*
X191415414Y-128684438D01*
X191435017Y-128683475D01*
X191441986Y-128682088D01*
X191449078Y-128681585D01*
X191461178Y-128678271D01*
X191473471Y-128675826D01*
X191480034Y-128673107D01*
X191486893Y-128671229D01*
X191504857Y-128663323D01*
X191695333Y-128568085D01*
X191712436Y-128558457D01*
X191716749Y-128555109D01*
X191721490Y-128552407D01*
X191732201Y-128543116D01*
X191743409Y-128534419D01*
X191746985Y-128530295D01*
X191751109Y-128526719D01*
X191759807Y-128515510D01*
X191769097Y-128504800D01*
X191771798Y-128500060D01*
X191775148Y-128495745D01*
X191784776Y-128478642D01*
X191880014Y-128288165D01*
X191887919Y-128270201D01*
X191889796Y-128263345D01*
X191892516Y-128256780D01*
X191894961Y-128244484D01*
X191898275Y-128232386D01*
X191898778Y-128225294D01*
X191900165Y-128218326D01*
X191901128Y-128198723D01*
X191901128Y-127436819D01*
X191900165Y-127417216D01*
X191898778Y-127410247D01*
X191898275Y-127403156D01*
X191894961Y-127391057D01*
X191892516Y-127378762D01*
X191889796Y-127372196D01*
X191887919Y-127365341D01*
X191880014Y-127347377D01*
X191784776Y-127156900D01*
X191775148Y-127139797D01*
X191771798Y-127135481D01*
X191769097Y-127130742D01*
X191759807Y-127120031D01*
X191751109Y-127108823D01*
X191746985Y-127105246D01*
X191743409Y-127101123D01*
X191732201Y-127092425D01*
X191721490Y-127083135D01*
X191716749Y-127080432D01*
X191712436Y-127077085D01*
X191695333Y-127067457D01*
X191504857Y-126972219D01*
X191486893Y-126964313D01*
X191480034Y-126962434D01*
X191473471Y-126959716D01*
X191461178Y-126957270D01*
X191449078Y-126953957D01*
X191441986Y-126953453D01*
X191435017Y-126952067D01*
X191415414Y-126951104D01*
X191034461Y-126951104D01*
X191014858Y-126952067D01*
X191007889Y-126953453D01*
X191000798Y-126953957D01*
X190988699Y-126957270D01*
X190976404Y-126959716D01*
X190969838Y-126962435D01*
X190962983Y-126964313D01*
X190945019Y-126972218D01*
X190754542Y-127067457D01*
X190737439Y-127077085D01*
X190733125Y-127080432D01*
X190728385Y-127083135D01*
X190717673Y-127092425D01*
X190706466Y-127101123D01*
X190702889Y-127105246D01*
X190698766Y-127108823D01*
X190690068Y-127120030D01*
X190680778Y-127130742D01*
X190678075Y-127135482D01*
X190674728Y-127139796D01*
X190665100Y-127156899D01*
X190569861Y-127347377D01*
X190561956Y-127365341D01*
X190560078Y-127372196D01*
X190557359Y-127378762D01*
X190554913Y-127391057D01*
X190551600Y-127403156D01*
X190551096Y-127410246D01*
X190549710Y-127417216D01*
X190548747Y-127436819D01*
X188567794Y-127436819D01*
X188567794Y-126484438D01*
X192358271Y-126484438D01*
X192358271Y-128484438D01*
X192359234Y-128504041D01*
X192366883Y-128542495D01*
X192381887Y-128578717D01*
X192403669Y-128611317D01*
X192431392Y-128639040D01*
X192463992Y-128660822D01*
X192500214Y-128675826D01*
X192538668Y-128683475D01*
X192577874Y-128683475D01*
X192616328Y-128675826D01*
X192652550Y-128660822D01*
X192653299Y-128660321D01*
X192659305Y-128663324D01*
X192677269Y-128671229D01*
X192684124Y-128673106D01*
X192690690Y-128675826D01*
X192702985Y-128678271D01*
X192715084Y-128681585D01*
X192722175Y-128682088D01*
X192729144Y-128683475D01*
X192748747Y-128684438D01*
X193129700Y-128684438D01*
X193149303Y-128683475D01*
X193156272Y-128682088D01*
X193163364Y-128681585D01*
X193175464Y-128678271D01*
X193187757Y-128675826D01*
X193194320Y-128673107D01*
X193201179Y-128671229D01*
X193219143Y-128663323D01*
X193409619Y-128568085D01*
X193412963Y-128566202D01*
X193414456Y-128565584D01*
X193416564Y-128564174D01*
X193426722Y-128558457D01*
X193436629Y-128550768D01*
X193447056Y-128543801D01*
X193455694Y-128535971D01*
X193457695Y-128534419D01*
X193458751Y-128533201D01*
X193461598Y-128530621D01*
X193556836Y-128435381D01*
X193559412Y-128432538D01*
X193560633Y-128431480D01*
X193562187Y-128429476D01*
X193570017Y-128420839D01*
X193576984Y-128410410D01*
X193584671Y-128400507D01*
X193590390Y-128390347D01*
X193591799Y-128388239D01*
X193592416Y-128386747D01*
X193594299Y-128383404D01*
X193689538Y-128192927D01*
X193697443Y-128174963D01*
X193699320Y-128168107D01*
X193702040Y-128161542D01*
X193704485Y-128149246D01*
X193707799Y-128137148D01*
X193708302Y-128130056D01*
X193709689Y-128123088D01*
X193710652Y-128103485D01*
X193710652Y-127532057D01*
X193709689Y-127512454D01*
X193708302Y-127505485D01*
X193707799Y-127498394D01*
X193704485Y-127486295D01*
X193702040Y-127474000D01*
X193699320Y-127467434D01*
X193697443Y-127460579D01*
X193689538Y-127442615D01*
X193686640Y-127436819D01*
X194167795Y-127436819D01*
X194167795Y-128484438D01*
X194168758Y-128504041D01*
X194176407Y-128542495D01*
X194191411Y-128578717D01*
X194213193Y-128611317D01*
X194240916Y-128639040D01*
X194273516Y-128660822D01*
X194309738Y-128675826D01*
X194348192Y-128683475D01*
X194387398Y-128683475D01*
X194425852Y-128675826D01*
X194462074Y-128660822D01*
X194462823Y-128660321D01*
X194468829Y-128663324D01*
X194486793Y-128671229D01*
X194493648Y-128673106D01*
X194500214Y-128675826D01*
X194512509Y-128678271D01*
X194524608Y-128681585D01*
X194531699Y-128682088D01*
X194538668Y-128683475D01*
X194558271Y-128684438D01*
X195034462Y-128684438D01*
X195054065Y-128683475D01*
X195061034Y-128682088D01*
X195068126Y-128681585D01*
X195080226Y-128678271D01*
X195092519Y-128675826D01*
X195099082Y-128673107D01*
X195105941Y-128671229D01*
X195123905Y-128663323D01*
X195314381Y-128568085D01*
X195331484Y-128558457D01*
X195335797Y-128555109D01*
X195340538Y-128552407D01*
X195351249Y-128543116D01*
X195362457Y-128534419D01*
X195366033Y-128530295D01*
X195370157Y-128526719D01*
X195378855Y-128515510D01*
X195388145Y-128504800D01*
X195390846Y-128500060D01*
X195394196Y-128495745D01*
X195403824Y-128478642D01*
X195499062Y-128288165D01*
X195506967Y-128270201D01*
X195508844Y-128263345D01*
X195511564Y-128256780D01*
X195514009Y-128244484D01*
X195517323Y-128232386D01*
X195517826Y-128225294D01*
X195519213Y-128218326D01*
X195520176Y-128198723D01*
X195520176Y-128008247D01*
X195519213Y-127988644D01*
X195517826Y-127981675D01*
X195517323Y-127974584D01*
X195514009Y-127962485D01*
X195511564Y-127950190D01*
X195508844Y-127943624D01*
X195506967Y-127936769D01*
X195499062Y-127918805D01*
X195403823Y-127728328D01*
X195394195Y-127711225D01*
X195390847Y-127706911D01*
X195388145Y-127702171D01*
X195378854Y-127691459D01*
X195370157Y-127680252D01*
X195366033Y-127676675D01*
X195362457Y-127672552D01*
X195351249Y-127663854D01*
X195340538Y-127654564D01*
X195335797Y-127651861D01*
X195331484Y-127648514D01*
X195314381Y-127638886D01*
X195123905Y-127543648D01*
X195105941Y-127535742D01*
X195099082Y-127533863D01*
X195092519Y-127531145D01*
X195080226Y-127528699D01*
X195068126Y-127525386D01*
X195061034Y-127524882D01*
X195054065Y-127523496D01*
X195034462Y-127522533D01*
X194605484Y-127522533D01*
X194567795Y-127503688D01*
X194567795Y-127484032D01*
X194612104Y-127395412D01*
X194700722Y-127351104D01*
X194987249Y-127351104D01*
X195135496Y-127425228D01*
X195153460Y-127433133D01*
X195191275Y-127443489D01*
X195230383Y-127446268D01*
X195269282Y-127441364D01*
X195306477Y-127428966D01*
X195340538Y-127409549D01*
X195370157Y-127383861D01*
X195394196Y-127352888D01*
X195411729Y-127317821D01*
X195422085Y-127280006D01*
X195424864Y-127240898D01*
X195419961Y-127201998D01*
X195407562Y-127164804D01*
X195388145Y-127130742D01*
X195362457Y-127101123D01*
X195331484Y-127077085D01*
X195314381Y-127067457D01*
X195123905Y-126972219D01*
X195105941Y-126964313D01*
X195099082Y-126962434D01*
X195092519Y-126959716D01*
X195080226Y-126957270D01*
X195068126Y-126953957D01*
X195061034Y-126953453D01*
X195054065Y-126952067D01*
X195034462Y-126951104D01*
X194653509Y-126951104D01*
X194633906Y-126952067D01*
X194626937Y-126953453D01*
X194619846Y-126953957D01*
X194607747Y-126957270D01*
X194595452Y-126959716D01*
X194588886Y-126962435D01*
X194582031Y-126964313D01*
X194564067Y-126972218D01*
X194373590Y-127067457D01*
X194356487Y-127077085D01*
X194352173Y-127080432D01*
X194347433Y-127083135D01*
X194336721Y-127092425D01*
X194325514Y-127101123D01*
X194321937Y-127105246D01*
X194317814Y-127108823D01*
X194309116Y-127120030D01*
X194299826Y-127130742D01*
X194297123Y-127135482D01*
X194293776Y-127139796D01*
X194284148Y-127156899D01*
X194188909Y-127347377D01*
X194181004Y-127365341D01*
X194179126Y-127372196D01*
X194176407Y-127378762D01*
X194173961Y-127391057D01*
X194170648Y-127403156D01*
X194170144Y-127410246D01*
X194168758Y-127417216D01*
X194167795Y-127436819D01*
X193686640Y-127436819D01*
X193594300Y-127252138D01*
X193592413Y-127248786D01*
X193591798Y-127247301D01*
X193590394Y-127245201D01*
X193584672Y-127235035D01*
X193576981Y-127225125D01*
X193570016Y-127214701D01*
X193562188Y-127206065D01*
X193560633Y-127204061D01*
X193559411Y-127203001D01*
X193556835Y-127200159D01*
X193461597Y-127104921D01*
X193458754Y-127102344D01*
X193457695Y-127101123D01*
X193455690Y-127099567D01*
X193447055Y-127091740D01*
X193436628Y-127084773D01*
X193426722Y-127077085D01*
X193416559Y-127071363D01*
X193414455Y-127069958D01*
X193412966Y-127069341D01*
X193409619Y-127067457D01*
X193219143Y-126972219D01*
X193201179Y-126964313D01*
X193194320Y-126962434D01*
X193187757Y-126959716D01*
X193175464Y-126957270D01*
X193163364Y-126953957D01*
X193156272Y-126953453D01*
X193149303Y-126952067D01*
X193129700Y-126951104D01*
X192758271Y-126951104D01*
X192758271Y-126484438D01*
X195977319Y-126484438D01*
X195977319Y-128484438D01*
X195978282Y-128504041D01*
X195985931Y-128542495D01*
X196000935Y-128578717D01*
X196022717Y-128611317D01*
X196050440Y-128639040D01*
X196083040Y-128660822D01*
X196119262Y-128675826D01*
X196157716Y-128683475D01*
X196196922Y-128683475D01*
X196235376Y-128675826D01*
X196271598Y-128660822D01*
X196304198Y-128639040D01*
X196331921Y-128611317D01*
X196353703Y-128578717D01*
X196368707Y-128542495D01*
X196376356Y-128504041D01*
X196377319Y-128484438D01*
X196377319Y-127385952D01*
X196662748Y-127997586D01*
X196663402Y-127998826D01*
X196663630Y-127999451D01*
X196664422Y-128000758D01*
X196671911Y-128014942D01*
X196678331Y-128023692D01*
X196683961Y-128032976D01*
X196689901Y-128039463D01*
X196695104Y-128046554D01*
X196703104Y-128053880D01*
X196710439Y-128061890D01*
X196717536Y-128067096D01*
X196724018Y-128073033D01*
X196733294Y-128078658D01*
X196742051Y-128085083D01*
X196750023Y-128088803D01*
X196757542Y-128093363D01*
X196767740Y-128097071D01*
X196777579Y-128101663D01*
X196786121Y-128103756D01*
X196794388Y-128106762D01*
X196805116Y-128108409D01*
X196815660Y-128110993D01*
X196824450Y-128111379D01*
X196833141Y-128112714D01*
X196843985Y-128112237D01*
X196854829Y-128112714D01*
X196863519Y-128111379D01*
X196872310Y-128110993D01*
X196882853Y-128108409D01*
X196893582Y-128106762D01*
X196901849Y-128103755D01*
X196910391Y-128101663D01*
X196920224Y-128097073D01*
X196930427Y-128093364D01*
X196937948Y-128088802D01*
X196945919Y-128085083D01*
X196954673Y-128078660D01*
X196963952Y-128073033D01*
X196970438Y-128067093D01*
X196977530Y-128061890D01*
X196984856Y-128053889D01*
X196992866Y-128046555D01*
X196998072Y-128039457D01*
X197004009Y-128032976D01*
X197009633Y-128023700D01*
X197016059Y-128014943D01*
X197023554Y-128000744D01*
X197024339Y-127999451D01*
X197024563Y-127998832D01*
X197025222Y-127997586D01*
X197310652Y-127385950D01*
X197310652Y-128484438D01*
X197311615Y-128504041D01*
X197319264Y-128542495D01*
X197334268Y-128578717D01*
X197356050Y-128611317D01*
X197383773Y-128639040D01*
X197416373Y-128660822D01*
X197452595Y-128675826D01*
X197491049Y-128683475D01*
X197530255Y-128683475D01*
X197568709Y-128675826D01*
X197604931Y-128660822D01*
X197637531Y-128639040D01*
X197665254Y-128611317D01*
X197687036Y-128578717D01*
X197702040Y-128542495D01*
X197709689Y-128504041D01*
X197710652Y-128484438D01*
X197710652Y-126484438D01*
X197710245Y-126476158D01*
X197710358Y-126473594D01*
X197710007Y-126471309D01*
X197709689Y-126464835D01*
X197706718Y-126449900D01*
X197704405Y-126434841D01*
X197702898Y-126430699D01*
X197702040Y-126426381D01*
X197696217Y-126412325D01*
X197691007Y-126397995D01*
X197688719Y-126394222D01*
X197687036Y-126390159D01*
X197678575Y-126377496D01*
X197670676Y-126364471D01*
X197667703Y-126361224D01*
X197665254Y-126357559D01*
X197654480Y-126346785D01*
X197644198Y-126335557D01*
X197640645Y-126332950D01*
X197637531Y-126329836D01*
X197624869Y-126321375D01*
X197612586Y-126312364D01*
X197608591Y-126310500D01*
X197604931Y-126308054D01*
X197590868Y-126302228D01*
X197577058Y-126295784D01*
X197572777Y-126294735D01*
X197568709Y-126293050D01*
X197553772Y-126290078D01*
X197538977Y-126286454D01*
X197534576Y-126286260D01*
X197530255Y-126285401D01*
X197515025Y-126285401D01*
X197499808Y-126284732D01*
X197495453Y-126285401D01*
X197491049Y-126285401D01*
X197476114Y-126288371D01*
X197461055Y-126290685D01*
X197456913Y-126292191D01*
X197452595Y-126293050D01*
X197438535Y-126298873D01*
X197424210Y-126304083D01*
X197420439Y-126306369D01*
X197416373Y-126308054D01*
X197403717Y-126316510D01*
X197390685Y-126324413D01*
X197387435Y-126327388D01*
X197383773Y-126329836D01*
X197373004Y-126340604D01*
X197361771Y-126350892D01*
X197359164Y-126354444D01*
X197356050Y-126357559D01*
X197347589Y-126370220D01*
X197338578Y-126382504D01*
X197335550Y-126388239D01*
X197334268Y-126390159D01*
X197333286Y-126392528D01*
X197329416Y-126399861D01*
X196843985Y-127440067D01*
X196358556Y-126399861D01*
X196354682Y-126392523D01*
X196353703Y-126390159D01*
X196352422Y-126388242D01*
X196349393Y-126382504D01*
X196340384Y-126370225D01*
X196331921Y-126357559D01*
X196328803Y-126354441D01*
X196326200Y-126350893D01*
X196314978Y-126340616D01*
X196304198Y-126329836D01*
X196300531Y-126327386D01*
X196297286Y-126324414D01*
X196284263Y-126316516D01*
X196271598Y-126308054D01*
X196267531Y-126306369D01*
X196263761Y-126304083D01*
X196249435Y-126298873D01*
X196235376Y-126293050D01*
X196231057Y-126292191D01*
X196226916Y-126290685D01*
X196211864Y-126288373D01*
X196196922Y-126285401D01*
X196192512Y-126285401D01*
X196188163Y-126284733D01*
X196172960Y-126285401D01*
X196157716Y-126285401D01*
X196153394Y-126286260D01*
X196148994Y-126286454D01*
X196134198Y-126290078D01*
X196119262Y-126293050D01*
X196115193Y-126294735D01*
X196110913Y-126295784D01*
X196097102Y-126302228D01*
X196083040Y-126308054D01*
X196079379Y-126310500D01*
X196075385Y-126312364D01*
X196063106Y-126321372D01*
X196050440Y-126329836D01*
X196047322Y-126332953D01*
X196043774Y-126335557D01*
X196033497Y-126346778D01*
X196022717Y-126357559D01*
X196020267Y-126361225D01*
X196017295Y-126364471D01*
X196009397Y-126377493D01*
X196000935Y-126390159D01*
X195999250Y-126394225D01*
X195996964Y-126397996D01*
X195991754Y-126412321D01*
X195985931Y-126426381D01*
X195985072Y-126430699D01*
X195983566Y-126434841D01*
X195981254Y-126449892D01*
X195978282Y-126464835D01*
X195977963Y-126471318D01*
X195977614Y-126473594D01*
X195977726Y-126476148D01*
X195977319Y-126484438D01*
X192758271Y-126484438D01*
X192757308Y-126464835D01*
X192749659Y-126426381D01*
X192734655Y-126390159D01*
X192712873Y-126357559D01*
X192685150Y-126329836D01*
X192652550Y-126308054D01*
X192616328Y-126293050D01*
X192577874Y-126285401D01*
X192538668Y-126285401D01*
X192500214Y-126293050D01*
X192463992Y-126308054D01*
X192431392Y-126329836D01*
X192403669Y-126357559D01*
X192381887Y-126390159D01*
X192366883Y-126426381D01*
X192359234Y-126464835D01*
X192358271Y-126484438D01*
X188567794Y-126484438D01*
X188566831Y-126464835D01*
X188559182Y-126426381D01*
X188544178Y-126390159D01*
X188522396Y-126357559D01*
X188494673Y-126329836D01*
X188462073Y-126308054D01*
X188425851Y-126293050D01*
X188387397Y-126285401D01*
X188348191Y-126285401D01*
X188309737Y-126293050D01*
X188273515Y-126308054D01*
X188240915Y-126329836D01*
X188213192Y-126357559D01*
X188191410Y-126390159D01*
X188176406Y-126426381D01*
X188168757Y-126464835D01*
X188167794Y-126484438D01*
X188167794Y-126951104D01*
X187796365Y-126951104D01*
X187776762Y-126952067D01*
X187769793Y-126953453D01*
X187762702Y-126953957D01*
X187750603Y-126957270D01*
X187738308Y-126959716D01*
X187731742Y-126962435D01*
X187724887Y-126964313D01*
X187706923Y-126972218D01*
X187516446Y-127067457D01*
X187513098Y-127069341D01*
X187511610Y-127069958D01*
X187509505Y-127071363D01*
X187499343Y-127077085D01*
X187489436Y-127084773D01*
X187479010Y-127091740D01*
X187470374Y-127099567D01*
X187468370Y-127101123D01*
X187467310Y-127102344D01*
X187464468Y-127104921D01*
X187369230Y-127200159D01*
X187366653Y-127203001D01*
X187365432Y-127204061D01*
X187363876Y-127206065D01*
X187356049Y-127214701D01*
X187349082Y-127225127D01*
X187341394Y-127235034D01*
X187335672Y-127245196D01*
X187334267Y-127247301D01*
X187333650Y-127248789D01*
X187331766Y-127252137D01*
X187236527Y-127442615D01*
X187228622Y-127460579D01*
X187226744Y-127467434D01*
X187224025Y-127474000D01*
X187221579Y-127486295D01*
X187218266Y-127498394D01*
X187217762Y-127505484D01*
X187216376Y-127512454D01*
X187215413Y-127532057D01*
X186825064Y-127532057D01*
X186937095Y-127218371D01*
X186942781Y-127199586D01*
X186948511Y-127160800D01*
X186946564Y-127121641D01*
X186937015Y-127083614D01*
X186920232Y-127048182D01*
X186896857Y-127016705D01*
X186867792Y-126990392D01*
X186834150Y-126970255D01*
X186797228Y-126957069D01*
X186758442Y-126951339D01*
X186719284Y-126953286D01*
X186681257Y-126962834D01*
X186645825Y-126979618D01*
X186614347Y-127002993D01*
X186588035Y-127032058D01*
X186567898Y-127065699D01*
X186560398Y-127083836D01*
X186272555Y-127889796D01*
X185984713Y-127083837D01*
X185977213Y-127065700D01*
X185957076Y-127032059D01*
X185930764Y-127002993D01*
X185899286Y-126979618D01*
X185863854Y-126962835D01*
X185825827Y-126953286D01*
X185786669Y-126951339D01*
X185747883Y-126957069D01*
X185710961Y-126970256D01*
X185677320Y-126990393D01*
X185648254Y-127016705D01*
X185624879Y-127048183D01*
X185608096Y-127083615D01*
X185598547Y-127121642D01*
X185596600Y-127160800D01*
X183710650Y-127160800D01*
X183710650Y-126484438D01*
X183709687Y-126464835D01*
X183702038Y-126426381D01*
X183687034Y-126390159D01*
X183665252Y-126357559D01*
X183637529Y-126329836D01*
X183604929Y-126308054D01*
X183568707Y-126293050D01*
X183530253Y-126285401D01*
X183510650Y-126284438D01*
X182843983Y-126284438D01*
X182824380Y-126285401D01*
X182817411Y-126286787D01*
X182810320Y-126287291D01*
X182798221Y-126290604D01*
X182785926Y-126293050D01*
X182779360Y-126295769D01*
X182772505Y-126297647D01*
X182754541Y-126305552D01*
X182564064Y-126400791D01*
X182560716Y-126402675D01*
X182559228Y-126403292D01*
X182557123Y-126404697D01*
X182546961Y-126410419D01*
X182537054Y-126418107D01*
X182526628Y-126425074D01*
X182517992Y-126432901D01*
X182515988Y-126434457D01*
X182514928Y-126435678D01*
X182512086Y-126438255D01*
X182416848Y-126533493D01*
X182414271Y-126536335D01*
X182413050Y-126537395D01*
X182411494Y-126539399D01*
X182403667Y-126548035D01*
X182396700Y-126558461D01*
X182389012Y-126568368D01*
X182383290Y-126578530D01*
X182381885Y-126580635D01*
X182381268Y-126582123D01*
X182379384Y-126585471D01*
X182284146Y-126775947D01*
X182276240Y-126793911D01*
X182274361Y-126800769D01*
X182271643Y-126807333D01*
X182269197Y-126819625D01*
X182265884Y-126831726D01*
X182265380Y-126838817D01*
X182263994Y-126845787D01*
X182263031Y-126865390D01*
X182263031Y-127055866D01*
X182263994Y-127075469D01*
X182265380Y-127082438D01*
X182265884Y-127089530D01*
X182269197Y-127101630D01*
X182271643Y-127113923D01*
X182274361Y-127120486D01*
X182276240Y-127127345D01*
X182284146Y-127145309D01*
X182379384Y-127335785D01*
X182381268Y-127339132D01*
X182381885Y-127340621D01*
X182383290Y-127342725D01*
X182389012Y-127352888D01*
X182396700Y-127362794D01*
X182403667Y-127373221D01*
X182411494Y-127381856D01*
X182413050Y-127383861D01*
X182414271Y-127384920D01*
X182416848Y-127387763D01*
X182418355Y-127389270D01*
X182416848Y-127390636D01*
X182321610Y-127485874D01*
X182319033Y-127488716D01*
X182317812Y-127489776D01*
X182316256Y-127491780D01*
X182308429Y-127500416D01*
X182301462Y-127510842D01*
X182293774Y-127520749D01*
X182288052Y-127530911D01*
X182286647Y-127533016D01*
X182286030Y-127534504D01*
X182284146Y-127537852D01*
X182188908Y-127728328D01*
X182181002Y-127746292D01*
X182179123Y-127753150D01*
X182176405Y-127759714D01*
X182173959Y-127772006D01*
X182170646Y-127784107D01*
X182170142Y-127791198D01*
X182168756Y-127798168D01*
X182167793Y-127817771D01*
X181805888Y-127817771D01*
X181805888Y-127532057D01*
X181804925Y-127512454D01*
X181803538Y-127505485D01*
X181803035Y-127498394D01*
X181799721Y-127486295D01*
X181797276Y-127474000D01*
X181794556Y-127467434D01*
X181792679Y-127460579D01*
X181784774Y-127442615D01*
X181689536Y-127252138D01*
X181687649Y-127248786D01*
X181687034Y-127247301D01*
X181685630Y-127245201D01*
X181679908Y-127235035D01*
X181672217Y-127225125D01*
X181665252Y-127214701D01*
X181657424Y-127206065D01*
X181655869Y-127204061D01*
X181654647Y-127203001D01*
X181652071Y-127200159D01*
X181556833Y-127104921D01*
X181553990Y-127102344D01*
X181552931Y-127101123D01*
X181550926Y-127099567D01*
X181542291Y-127091740D01*
X181531864Y-127084773D01*
X181521958Y-127077085D01*
X181511795Y-127071363D01*
X181509691Y-127069958D01*
X181508202Y-127069341D01*
X181504855Y-127067457D01*
X181314379Y-126972219D01*
X181296415Y-126964313D01*
X181289556Y-126962434D01*
X181282993Y-126959716D01*
X181270700Y-126957270D01*
X181258600Y-126953957D01*
X181251508Y-126953453D01*
X181244539Y-126952067D01*
X181224936Y-126951104D01*
X180939221Y-126951104D01*
X180919618Y-126952067D01*
X180912649Y-126953453D01*
X180905558Y-126953957D01*
X180893459Y-126957270D01*
X180881164Y-126959716D01*
X180874598Y-126962435D01*
X180867743Y-126964313D01*
X180849779Y-126972218D01*
X180659302Y-127067457D01*
X180655954Y-127069341D01*
X180654466Y-127069958D01*
X180652361Y-127071363D01*
X180642199Y-127077085D01*
X180632292Y-127084773D01*
X180621866Y-127091740D01*
X180613230Y-127099567D01*
X180611226Y-127101123D01*
X180610166Y-127102344D01*
X180607324Y-127104921D01*
X180512086Y-127200159D01*
X180509509Y-127203001D01*
X180508288Y-127204061D01*
X180506732Y-127206065D01*
X180498905Y-127214701D01*
X180491938Y-127225127D01*
X180484250Y-127235034D01*
X180478528Y-127245196D01*
X180477123Y-127247301D01*
X180476506Y-127248789D01*
X180474622Y-127252137D01*
X180379383Y-127442615D01*
X180371478Y-127460579D01*
X180369600Y-127467434D01*
X180366881Y-127474000D01*
X180364435Y-127486295D01*
X180361122Y-127498394D01*
X180360618Y-127505484D01*
X180359232Y-127512454D01*
X180358269Y-127532057D01*
X179901126Y-127532057D01*
X179901126Y-126484438D01*
X179900163Y-126464835D01*
X179892514Y-126426381D01*
X179877510Y-126390159D01*
X179855728Y-126357559D01*
X179828005Y-126329836D01*
X179795405Y-126308054D01*
X179759183Y-126293050D01*
X179720729Y-126285401D01*
X179681523Y-126285401D01*
X179643069Y-126293050D01*
X179606847Y-126308054D01*
X179574247Y-126329836D01*
X179546524Y-126357559D01*
X179524742Y-126390159D01*
X179509738Y-126426381D01*
X179502089Y-126464835D01*
X179501126Y-126484438D01*
X179501126Y-126951104D01*
X179129697Y-126951104D01*
X179110094Y-126952067D01*
X179103125Y-126953453D01*
X179096034Y-126953957D01*
X179083935Y-126957270D01*
X179071640Y-126959716D01*
X179065074Y-126962435D01*
X179058219Y-126964313D01*
X179040255Y-126972218D01*
X178849778Y-127067457D01*
X178846430Y-127069341D01*
X178844942Y-127069958D01*
X178842837Y-127071363D01*
X178832675Y-127077085D01*
X178822768Y-127084773D01*
X178812342Y-127091740D01*
X178803706Y-127099567D01*
X178801702Y-127101123D01*
X178800642Y-127102344D01*
X178797800Y-127104921D01*
X178702562Y-127200159D01*
X178699985Y-127203001D01*
X178698764Y-127204061D01*
X178697208Y-127206065D01*
X178689381Y-127214701D01*
X178682414Y-127225127D01*
X178674726Y-127235034D01*
X178669004Y-127245196D01*
X178667599Y-127247301D01*
X178666982Y-127248789D01*
X178665098Y-127252137D01*
X178569859Y-127442615D01*
X178561954Y-127460579D01*
X178560076Y-127467434D01*
X178557357Y-127474000D01*
X178554911Y-127486295D01*
X178551598Y-127498394D01*
X178551094Y-127505484D01*
X178549708Y-127512454D01*
X178548745Y-127532057D01*
X178091602Y-127532057D01*
X178091602Y-127151104D01*
X178090639Y-127131501D01*
X178082990Y-127093047D01*
X178067986Y-127056825D01*
X178046204Y-127024225D01*
X178018481Y-126996502D01*
X177985881Y-126974720D01*
X177949659Y-126959716D01*
X177911205Y-126952067D01*
X177871999Y-126952067D01*
X177833545Y-126959716D01*
X177797323Y-126974720D01*
X177764723Y-126996502D01*
X177737000Y-127024225D01*
X177715218Y-127056825D01*
X177700214Y-127093047D01*
X177692565Y-127131501D01*
X177691602Y-127151104D01*
X177691602Y-128151510D01*
X177647292Y-128240128D01*
X177558675Y-128284438D01*
X177367386Y-128284438D01*
X177248168Y-128224829D01*
X177234459Y-128211119D01*
X177234459Y-127151104D01*
X177233496Y-127131501D01*
X177225847Y-127093047D01*
X177210843Y-127056825D01*
X177189061Y-127024225D01*
X177161338Y-126996502D01*
X177128738Y-126974720D01*
X177092516Y-126959716D01*
X177054062Y-126952067D01*
X177014856Y-126952067D01*
X176976402Y-126959716D01*
X176940180Y-126974720D01*
X176907580Y-126996502D01*
X176879857Y-127024225D01*
X176858075Y-127056825D01*
X176843071Y-127093047D01*
X176835422Y-127131501D01*
X176834459Y-127151104D01*
X176566829Y-127151104D01*
X176566829Y-127131501D01*
X176559180Y-127093047D01*
X176544176Y-127056825D01*
X176522394Y-127024225D01*
X176494671Y-126996502D01*
X176462071Y-126974720D01*
X176425849Y-126959716D01*
X176387395Y-126952067D01*
X176367792Y-126951104D01*
X176282078Y-126951104D01*
X176282078Y-126484438D01*
X176281115Y-126464835D01*
X176273466Y-126426381D01*
X176258462Y-126390159D01*
X176236680Y-126357559D01*
X176208957Y-126329836D01*
X176176357Y-126308054D01*
X176140135Y-126293050D01*
X176101681Y-126285401D01*
X176062475Y-126285401D01*
X176024021Y-126293050D01*
X175987799Y-126308054D01*
X175955199Y-126329836D01*
X175927476Y-126357559D01*
X175905694Y-126390159D01*
X175890690Y-126426381D01*
X175883041Y-126464835D01*
X175882078Y-126484438D01*
X175882078Y-126951104D01*
X175605888Y-126951104D01*
X175586285Y-126952067D01*
X175547831Y-126959716D01*
X175511609Y-126974720D01*
X175479009Y-126996502D01*
X175451286Y-127024225D01*
X175429504Y-127056825D01*
X175414500Y-127093047D01*
X175406851Y-127131501D01*
X175102861Y-127131501D01*
X175102428Y-127130742D01*
X175093138Y-127120031D01*
X175084440Y-127108823D01*
X175080316Y-127105246D01*
X175076740Y-127101123D01*
X175065532Y-127092425D01*
X175054821Y-127083135D01*
X175050080Y-127080432D01*
X175045767Y-127077085D01*
X175028664Y-127067457D01*
X174838188Y-126972219D01*
X174820224Y-126964313D01*
X174813365Y-126962434D01*
X174806802Y-126959716D01*
X174794509Y-126957270D01*
X174782409Y-126953957D01*
X174775317Y-126953453D01*
X174768348Y-126952067D01*
X174748745Y-126951104D01*
X174367792Y-126951104D01*
X174348189Y-126952067D01*
X174341220Y-126953453D01*
X174334129Y-126953957D01*
X174322030Y-126957270D01*
X174309735Y-126959716D01*
X174303169Y-126962435D01*
X174296314Y-126964313D01*
X174278350Y-126972218D01*
X174087873Y-127067457D01*
X174070770Y-127077085D01*
X174066456Y-127080432D01*
X174061716Y-127083135D01*
X174051004Y-127092425D01*
X174039797Y-127101123D01*
X174036220Y-127105246D01*
X174032097Y-127108823D01*
X174023399Y-127120030D01*
X174014109Y-127130742D01*
X174011406Y-127135482D01*
X174008059Y-127139796D01*
X173998431Y-127156899D01*
X173903192Y-127347377D01*
X173895287Y-127365341D01*
X173893409Y-127372196D01*
X173890690Y-127378762D01*
X173888244Y-127391057D01*
X173884931Y-127403156D01*
X173884427Y-127410246D01*
X173883041Y-127417216D01*
X173882078Y-127436819D01*
X173424935Y-127436819D01*
X173424935Y-126484438D01*
X173423972Y-126464835D01*
X173416323Y-126426381D01*
X173401319Y-126390159D01*
X173379537Y-126357559D01*
X173351814Y-126329836D01*
X173319214Y-126308054D01*
X173282992Y-126293050D01*
X173244538Y-126285401D01*
X173205332Y-126285401D01*
X173166878Y-126293050D01*
X173130656Y-126308054D01*
X173098056Y-126329836D01*
X173070333Y-126357559D01*
X173048551Y-126390159D01*
X173033547Y-126426381D01*
X173025898Y-126464835D01*
X173024935Y-126484438D01*
X173024935Y-127430166D01*
X172604451Y-127009683D01*
X172589909Y-126996502D01*
X172557309Y-126974720D01*
X172521087Y-126959716D01*
X172482633Y-126952067D01*
X172443427Y-126952067D01*
X172404973Y-126959716D01*
X172368751Y-126974720D01*
X172336151Y-126996502D01*
X172308428Y-127024225D01*
X172286646Y-127056825D01*
X172271642Y-127093047D01*
X172263993Y-127131501D01*
X172263993Y-127170707D01*
X172271642Y-127209161D01*
X172286646Y-127245383D01*
X172308428Y-127277983D01*
X172321609Y-127292525D01*
X172770383Y-127741300D01*
X172303030Y-128364438D01*
X172292039Y-128380698D01*
X172275085Y-128416051D01*
X172265355Y-128454031D01*
X172263221Y-128493180D01*
X170157541Y-128493180D01*
X170165725Y-128478642D01*
X170260963Y-128288165D01*
X170268868Y-128270201D01*
X170270745Y-128263345D01*
X170273465Y-128256780D01*
X170275910Y-128244484D01*
X170279224Y-128232386D01*
X170279727Y-128225294D01*
X170281114Y-128218326D01*
X170282077Y-128198723D01*
X170282077Y-127351104D01*
X170367791Y-127351104D01*
X170387394Y-127350141D01*
X170425848Y-127342492D01*
X170462070Y-127327488D01*
X170494670Y-127305706D01*
X170522393Y-127277983D01*
X170544175Y-127245383D01*
X170559179Y-127209161D01*
X170566828Y-127170707D01*
X170566828Y-127131501D01*
X170559179Y-127093047D01*
X170544175Y-127056825D01*
X170522393Y-127024225D01*
X170494670Y-126996502D01*
X170462070Y-126974720D01*
X170425848Y-126959716D01*
X170387394Y-126952067D01*
X170367791Y-126951104D01*
X170282077Y-126951104D01*
X170282077Y-126484438D01*
X170281114Y-126464835D01*
X170273465Y-126426381D01*
X170258461Y-126390159D01*
X170236679Y-126357559D01*
X170208956Y-126329836D01*
X170176356Y-126308054D01*
X170140134Y-126293050D01*
X170101680Y-126285401D01*
X170062474Y-126285401D01*
X170024020Y-126293050D01*
X169987798Y-126308054D01*
X169955198Y-126329836D01*
X169927475Y-126357559D01*
X169905693Y-126390159D01*
X169890689Y-126426381D01*
X169883040Y-126464835D01*
X169882077Y-126484438D01*
X169882077Y-126951104D01*
X169605887Y-126951104D01*
X169586284Y-126952067D01*
X169547830Y-126959716D01*
X169511608Y-126974720D01*
X169479008Y-126996502D01*
X169451285Y-127024225D01*
X169429503Y-127056825D01*
X169414499Y-127093047D01*
X169406850Y-127131501D01*
X169102860Y-127131501D01*
X169102427Y-127130742D01*
X169093137Y-127120031D01*
X169084439Y-127108823D01*
X169080315Y-127105246D01*
X169076739Y-127101123D01*
X169065531Y-127092425D01*
X169054820Y-127083135D01*
X169050079Y-127080432D01*
X169045766Y-127077085D01*
X169028663Y-127067457D01*
X168838187Y-126972219D01*
X168820223Y-126964313D01*
X168813364Y-126962434D01*
X168806801Y-126959716D01*
X168794508Y-126957270D01*
X168782408Y-126953957D01*
X168775316Y-126953453D01*
X168768347Y-126952067D01*
X168748744Y-126951104D01*
X168367791Y-126951104D01*
X168348188Y-126952067D01*
X168341219Y-126953453D01*
X168334128Y-126953957D01*
X168322029Y-126957270D01*
X168309734Y-126959716D01*
X168303168Y-126962435D01*
X168296313Y-126964313D01*
X168278349Y-126972218D01*
X168087872Y-127067457D01*
X168070769Y-127077085D01*
X168066455Y-127080432D01*
X168061715Y-127083135D01*
X168051003Y-127092425D01*
X168039796Y-127101123D01*
X168036219Y-127105246D01*
X168032096Y-127108823D01*
X168023398Y-127120030D01*
X168014108Y-127130742D01*
X168011405Y-127135482D01*
X168008058Y-127139796D01*
X167998430Y-127156899D01*
X167903191Y-127347377D01*
X167895286Y-127365341D01*
X167893408Y-127372196D01*
X167890689Y-127378762D01*
X167888243Y-127391057D01*
X167884930Y-127403156D01*
X167884426Y-127410246D01*
X167883040Y-127417216D01*
X167882077Y-127436819D01*
X167282913Y-127436819D01*
X167306473Y-127428966D01*
X167340534Y-127409549D01*
X167370153Y-127383861D01*
X167394192Y-127352888D01*
X167411725Y-127317821D01*
X167422081Y-127280006D01*
X167424860Y-127240898D01*
X167419957Y-127201998D01*
X167407558Y-127164804D01*
X167388141Y-127130742D01*
X167362453Y-127101123D01*
X167331480Y-127077085D01*
X167314377Y-127067457D01*
X167123901Y-126972219D01*
X167105937Y-126964313D01*
X167099078Y-126962434D01*
X167092515Y-126959716D01*
X167080222Y-126957270D01*
X167068122Y-126953957D01*
X167061030Y-126953453D01*
X167054061Y-126952067D01*
X167034458Y-126951104D01*
X166653505Y-126951104D01*
X166633902Y-126952067D01*
X166626933Y-126953453D01*
X166619842Y-126953957D01*
X166607743Y-126957270D01*
X166595448Y-126959716D01*
X166588882Y-126962435D01*
X166582027Y-126964313D01*
X166564063Y-126972218D01*
X166373586Y-127067457D01*
X166356483Y-127077085D01*
X166352169Y-127080432D01*
X166347429Y-127083135D01*
X166336717Y-127092425D01*
X166325510Y-127101123D01*
X166321933Y-127105246D01*
X166317810Y-127108823D01*
X166309112Y-127120030D01*
X166299822Y-127130742D01*
X166297119Y-127135482D01*
X166293772Y-127139796D01*
X166284144Y-127156899D01*
X166188905Y-127347377D01*
X166181000Y-127365341D01*
X166179122Y-127372196D01*
X166176403Y-127378762D01*
X166173957Y-127391057D01*
X166170644Y-127403156D01*
X166170140Y-127410246D01*
X166168754Y-127417216D01*
X166167791Y-127436819D01*
X165615410Y-127436819D01*
X165615410Y-127151104D01*
X165614447Y-127131501D01*
X165606798Y-127093047D01*
X165591794Y-127056825D01*
X165570012Y-127024225D01*
X165542289Y-126996502D01*
X165509689Y-126974720D01*
X165473467Y-126959716D01*
X165435013Y-126952067D01*
X165395807Y-126952067D01*
X165357353Y-126959716D01*
X165321131Y-126974720D01*
X165288531Y-126996502D01*
X165281589Y-127003444D01*
X165219139Y-126972219D01*
X165201175Y-126964313D01*
X165194316Y-126962434D01*
X165187753Y-126959716D01*
X165175460Y-126957270D01*
X165163360Y-126953957D01*
X165156268Y-126953453D01*
X165149299Y-126952067D01*
X165129696Y-126951104D01*
X164843981Y-126951104D01*
X164824378Y-126952067D01*
X164817409Y-126953453D01*
X164810318Y-126953957D01*
X164798219Y-126957270D01*
X164785924Y-126959716D01*
X164779358Y-126962435D01*
X164772503Y-126964313D01*
X164754539Y-126972218D01*
X164564062Y-127067457D01*
X164558267Y-127070719D01*
X164552472Y-127067457D01*
X164361996Y-126972219D01*
X164344032Y-126964313D01*
X164337173Y-126962434D01*
X164330610Y-126959716D01*
X164318317Y-126957270D01*
X164306217Y-126953957D01*
X164299125Y-126953453D01*
X164292156Y-126952067D01*
X164272553Y-126951104D01*
X163986839Y-126951104D01*
X163967236Y-126952067D01*
X163960267Y-126953453D01*
X163953176Y-126953957D01*
X163941077Y-126957270D01*
X163928782Y-126959716D01*
X163922216Y-126962435D01*
X163915361Y-126964313D01*
X163897397Y-126972218D01*
X163706920Y-127067456D01*
X163689817Y-127077084D01*
X163685501Y-127080433D01*
X163680762Y-127083135D01*
X163670051Y-127092424D01*
X163658843Y-127101123D01*
X163655266Y-127105246D01*
X163651143Y-127108823D01*
X163642445Y-127120030D01*
X163633155Y-127130742D01*
X163630452Y-127135482D01*
X163627105Y-127139796D01*
X163617477Y-127156899D01*
X163522238Y-127347377D01*
X163514333Y-127365341D01*
X163512455Y-127372196D01*
X163509736Y-127378762D01*
X163507290Y-127391057D01*
X163503977Y-127403156D01*
X163503473Y-127410246D01*
X163502087Y-127417216D01*
X163501124Y-127436819D01*
X163278902Y-127436819D01*
X163278902Y-126062216D01*
X197932874Y-126062216D01*
X197932874Y-129573252D01*
G37*
%LPC*%
D11*
%TO.C,H5*%
X204370000Y-100775000D03*
%TD*%
%TO.C,H2*%
X94370000Y-100775000D03*
%TD*%
D12*
%TO.C,U1*%
X146829984Y-128025000D03*
D13*
X149369984Y-128025000D03*
X151909984Y-128025000D03*
%TD*%
D14*
%TO.C,U2*%
X119174479Y-86900357D03*
D15*
X116634479Y-86900357D03*
X114094479Y-86900357D03*
%TD*%
D16*
%TO.C,MCU1*%
X136670000Y-69675000D03*
D17*
X136670000Y-72215000D03*
X136670000Y-74755000D03*
X136670000Y-77295000D03*
X136670000Y-79835000D03*
X136670000Y-82375000D03*
X136670000Y-84915000D03*
X136670000Y-87455000D03*
X136670000Y-89995000D03*
X136670000Y-92535000D03*
X136670000Y-95075000D03*
X136670000Y-97615000D03*
X136670000Y-100155000D03*
X136670000Y-102695000D03*
X136670000Y-105235000D03*
X136670000Y-107775000D03*
X136670000Y-110315000D03*
X136670000Y-112855000D03*
X136670000Y-115395000D03*
X162070000Y-115395000D03*
X162070000Y-112855000D03*
X162070000Y-110315000D03*
X162070000Y-107775000D03*
X162070000Y-105235000D03*
X162070000Y-102695000D03*
X162070000Y-100155000D03*
X162070000Y-97615000D03*
X162070000Y-95075000D03*
X162070000Y-92535000D03*
X162070000Y-89995000D03*
X162070000Y-87455000D03*
X162070000Y-84915000D03*
X162070000Y-82375000D03*
X162070000Y-79835000D03*
X162070000Y-77295000D03*
X162070000Y-74755000D03*
X162070000Y-72215000D03*
X162070000Y-69675000D03*
%TD*%
D11*
%TO.C,H4*%
X114870000Y-72025000D03*
%TD*%
D18*
%TO.C,J1*%
X121370000Y-103775000D03*
D19*
X126370000Y-103775000D03*
%TD*%
D11*
%TO.C,H3*%
X183870000Y-72025000D03*
%TD*%
%TO.C,H6*%
X204370000Y-123775000D03*
%TD*%
D20*
%TO.C,SW1*%
X114120000Y-102975000D03*
X114120000Y-98275000D03*
X114120000Y-93575000D03*
%TD*%
D11*
%TO.C,H1*%
X94370000Y-123775000D03*
%TD*%
%LPD*%
M02*
