%TF.GenerationSoftware,KiCad,Pcbnew,9.0.1*%
%TF.CreationDate,2025-05-09T11:22:53+02:00*%
%TF.ProjectId,FL-Zetor-Senzor,464c2d5a-6574-46f7-922d-53656e7a6f72,rev?*%
%TF.SameCoordinates,Original*%
%TF.FileFunction,Legend,Bot*%
%TF.FilePolarity,Positive*%
%FSLAX46Y46*%
G04 Gerber Fmt 4.6, Leading zero omitted, Abs format (unit mm)*
G04 Created by KiCad (PCBNEW 9.0.1) date 2025-05-09 11:22:53*
%MOMM*%
%LPD*%
G01*
G04 APERTURE LIST*
%ADD10C,0.150000*%
%ADD11C,0.120000*%
G04 APERTURE END LIST*
D10*
X93104835Y-107495833D02*
X92628644Y-107162500D01*
X93104835Y-106924405D02*
X92104835Y-106924405D01*
X92104835Y-106924405D02*
X92104835Y-107305357D01*
X92104835Y-107305357D02*
X92152454Y-107400595D01*
X92152454Y-107400595D02*
X92200073Y-107448214D01*
X92200073Y-107448214D02*
X92295311Y-107495833D01*
X92295311Y-107495833D02*
X92438168Y-107495833D01*
X92438168Y-107495833D02*
X92533406Y-107448214D01*
X92533406Y-107448214D02*
X92581025Y-107400595D01*
X92581025Y-107400595D02*
X92628644Y-107305357D01*
X92628644Y-107305357D02*
X92628644Y-106924405D01*
X92200073Y-107876786D02*
X92152454Y-107924405D01*
X92152454Y-107924405D02*
X92104835Y-108019643D01*
X92104835Y-108019643D02*
X92104835Y-108257738D01*
X92104835Y-108257738D02*
X92152454Y-108352976D01*
X92152454Y-108352976D02*
X92200073Y-108400595D01*
X92200073Y-108400595D02*
X92295311Y-108448214D01*
X92295311Y-108448214D02*
X92390549Y-108448214D01*
X92390549Y-108448214D02*
X92533406Y-108400595D01*
X92533406Y-108400595D02*
X93104835Y-107829167D01*
X93104835Y-107829167D02*
X93104835Y-108448214D01*
X118854835Y-99083333D02*
X118378644Y-98750000D01*
X118854835Y-98511905D02*
X117854835Y-98511905D01*
X117854835Y-98511905D02*
X117854835Y-98892857D01*
X117854835Y-98892857D02*
X117902454Y-98988095D01*
X117902454Y-98988095D02*
X117950073Y-99035714D01*
X117950073Y-99035714D02*
X118045311Y-99083333D01*
X118045311Y-99083333D02*
X118188168Y-99083333D01*
X118188168Y-99083333D02*
X118283406Y-99035714D01*
X118283406Y-99035714D02*
X118331025Y-98988095D01*
X118331025Y-98988095D02*
X118378644Y-98892857D01*
X118378644Y-98892857D02*
X118378644Y-98511905D01*
X117854835Y-99940476D02*
X117854835Y-99750000D01*
X117854835Y-99750000D02*
X117902454Y-99654762D01*
X117902454Y-99654762D02*
X117950073Y-99607143D01*
X117950073Y-99607143D02*
X118092930Y-99511905D01*
X118092930Y-99511905D02*
X118283406Y-99464286D01*
X118283406Y-99464286D02*
X118664358Y-99464286D01*
X118664358Y-99464286D02*
X118759596Y-99511905D01*
X118759596Y-99511905D02*
X118807216Y-99559524D01*
X118807216Y-99559524D02*
X118854835Y-99654762D01*
X118854835Y-99654762D02*
X118854835Y-99845238D01*
X118854835Y-99845238D02*
X118807216Y-99940476D01*
X118807216Y-99940476D02*
X118759596Y-99988095D01*
X118759596Y-99988095D02*
X118664358Y-100035714D01*
X118664358Y-100035714D02*
X118426263Y-100035714D01*
X118426263Y-100035714D02*
X118331025Y-99988095D01*
X118331025Y-99988095D02*
X118283406Y-99940476D01*
X118283406Y-99940476D02*
X118235787Y-99845238D01*
X118235787Y-99845238D02*
X118235787Y-99654762D01*
X118235787Y-99654762D02*
X118283406Y-99559524D01*
X118283406Y-99559524D02*
X118331025Y-99511905D01*
X118331025Y-99511905D02*
X118426263Y-99464286D01*
X93104819Y-104083333D02*
X92628628Y-103750000D01*
X93104819Y-103511905D02*
X92104819Y-103511905D01*
X92104819Y-103511905D02*
X92104819Y-103892857D01*
X92104819Y-103892857D02*
X92152438Y-103988095D01*
X92152438Y-103988095D02*
X92200057Y-104035714D01*
X92200057Y-104035714D02*
X92295295Y-104083333D01*
X92295295Y-104083333D02*
X92438152Y-104083333D01*
X92438152Y-104083333D02*
X92533390Y-104035714D01*
X92533390Y-104035714D02*
X92581009Y-103988095D01*
X92581009Y-103988095D02*
X92628628Y-103892857D01*
X92628628Y-103892857D02*
X92628628Y-103511905D01*
X93104819Y-105035714D02*
X93104819Y-104464286D01*
X93104819Y-104750000D02*
X92104819Y-104750000D01*
X92104819Y-104750000D02*
X92247676Y-104654762D01*
X92247676Y-104654762D02*
X92342914Y-104559524D01*
X92342914Y-104559524D02*
X92390533Y-104464286D01*
X132104835Y-98083333D02*
X131628644Y-97750000D01*
X132104835Y-97511905D02*
X131104835Y-97511905D01*
X131104835Y-97511905D02*
X131104835Y-97892857D01*
X131104835Y-97892857D02*
X131152454Y-97988095D01*
X131152454Y-97988095D02*
X131200073Y-98035714D01*
X131200073Y-98035714D02*
X131295311Y-98083333D01*
X131295311Y-98083333D02*
X131438168Y-98083333D01*
X131438168Y-98083333D02*
X131533406Y-98035714D01*
X131533406Y-98035714D02*
X131581025Y-97988095D01*
X131581025Y-97988095D02*
X131628644Y-97892857D01*
X131628644Y-97892857D02*
X131628644Y-97511905D01*
X131533406Y-98654762D02*
X131485787Y-98559524D01*
X131485787Y-98559524D02*
X131438168Y-98511905D01*
X131438168Y-98511905D02*
X131342930Y-98464286D01*
X131342930Y-98464286D02*
X131295311Y-98464286D01*
X131295311Y-98464286D02*
X131200073Y-98511905D01*
X131200073Y-98511905D02*
X131152454Y-98559524D01*
X131152454Y-98559524D02*
X131104835Y-98654762D01*
X131104835Y-98654762D02*
X131104835Y-98845238D01*
X131104835Y-98845238D02*
X131152454Y-98940476D01*
X131152454Y-98940476D02*
X131200073Y-98988095D01*
X131200073Y-98988095D02*
X131295311Y-99035714D01*
X131295311Y-99035714D02*
X131342930Y-99035714D01*
X131342930Y-99035714D02*
X131438168Y-98988095D01*
X131438168Y-98988095D02*
X131485787Y-98940476D01*
X131485787Y-98940476D02*
X131533406Y-98845238D01*
X131533406Y-98845238D02*
X131533406Y-98654762D01*
X131533406Y-98654762D02*
X131581025Y-98559524D01*
X131581025Y-98559524D02*
X131628644Y-98511905D01*
X131628644Y-98511905D02*
X131723882Y-98464286D01*
X131723882Y-98464286D02*
X131914358Y-98464286D01*
X131914358Y-98464286D02*
X132009596Y-98511905D01*
X132009596Y-98511905D02*
X132057216Y-98559524D01*
X132057216Y-98559524D02*
X132104835Y-98654762D01*
X132104835Y-98654762D02*
X132104835Y-98845238D01*
X132104835Y-98845238D02*
X132057216Y-98940476D01*
X132057216Y-98940476D02*
X132009596Y-98988095D01*
X132009596Y-98988095D02*
X131914358Y-99035714D01*
X131914358Y-99035714D02*
X131723882Y-99035714D01*
X131723882Y-99035714D02*
X131628644Y-98988095D01*
X131628644Y-98988095D02*
X131581025Y-98940476D01*
X131581025Y-98940476D02*
X131533406Y-98845238D01*
X127704819Y-95838095D02*
X128514342Y-95838095D01*
X128514342Y-95838095D02*
X128609580Y-95885714D01*
X128609580Y-95885714D02*
X128657200Y-95933333D01*
X128657200Y-95933333D02*
X128704819Y-96028571D01*
X128704819Y-96028571D02*
X128704819Y-96219047D01*
X128704819Y-96219047D02*
X128657200Y-96314285D01*
X128657200Y-96314285D02*
X128609580Y-96361904D01*
X128609580Y-96361904D02*
X128514342Y-96409523D01*
X128514342Y-96409523D02*
X127704819Y-96409523D01*
X128038152Y-97314285D02*
X128704819Y-97314285D01*
X127657200Y-97076190D02*
X128371485Y-96838095D01*
X128371485Y-96838095D02*
X128371485Y-97457142D01*
X101704819Y-100488095D02*
X102514342Y-100488095D01*
X102514342Y-100488095D02*
X102609580Y-100535714D01*
X102609580Y-100535714D02*
X102657200Y-100583333D01*
X102657200Y-100583333D02*
X102704819Y-100678571D01*
X102704819Y-100678571D02*
X102704819Y-100869047D01*
X102704819Y-100869047D02*
X102657200Y-100964285D01*
X102657200Y-100964285D02*
X102609580Y-101011904D01*
X102609580Y-101011904D02*
X102514342Y-101059523D01*
X102514342Y-101059523D02*
X101704819Y-101059523D01*
X101800057Y-101488095D02*
X101752438Y-101535714D01*
X101752438Y-101535714D02*
X101704819Y-101630952D01*
X101704819Y-101630952D02*
X101704819Y-101869047D01*
X101704819Y-101869047D02*
X101752438Y-101964285D01*
X101752438Y-101964285D02*
X101800057Y-102011904D01*
X101800057Y-102011904D02*
X101895295Y-102059523D01*
X101895295Y-102059523D02*
X101990533Y-102059523D01*
X101990533Y-102059523D02*
X102133390Y-102011904D01*
X102133390Y-102011904D02*
X102704819Y-101440476D01*
X102704819Y-101440476D02*
X102704819Y-102059523D01*
X118854819Y-95583333D02*
X118378628Y-95250000D01*
X118854819Y-95011905D02*
X117854819Y-95011905D01*
X117854819Y-95011905D02*
X117854819Y-95392857D01*
X117854819Y-95392857D02*
X117902438Y-95488095D01*
X117902438Y-95488095D02*
X117950057Y-95535714D01*
X117950057Y-95535714D02*
X118045295Y-95583333D01*
X118045295Y-95583333D02*
X118188152Y-95583333D01*
X118188152Y-95583333D02*
X118283390Y-95535714D01*
X118283390Y-95535714D02*
X118331009Y-95488095D01*
X118331009Y-95488095D02*
X118378628Y-95392857D01*
X118378628Y-95392857D02*
X118378628Y-95011905D01*
X117854819Y-96488095D02*
X117854819Y-96011905D01*
X117854819Y-96011905D02*
X118331009Y-95964286D01*
X118331009Y-95964286D02*
X118283390Y-96011905D01*
X118283390Y-96011905D02*
X118235771Y-96107143D01*
X118235771Y-96107143D02*
X118235771Y-96345238D01*
X118235771Y-96345238D02*
X118283390Y-96440476D01*
X118283390Y-96440476D02*
X118331009Y-96488095D01*
X118331009Y-96488095D02*
X118426247Y-96535714D01*
X118426247Y-96535714D02*
X118664342Y-96535714D01*
X118664342Y-96535714D02*
X118759580Y-96488095D01*
X118759580Y-96488095D02*
X118807200Y-96440476D01*
X118807200Y-96440476D02*
X118854819Y-96345238D01*
X118854819Y-96345238D02*
X118854819Y-96107143D01*
X118854819Y-96107143D02*
X118807200Y-96011905D01*
X118807200Y-96011905D02*
X118759580Y-95964286D01*
X188604819Y-102607142D02*
X188128628Y-102273809D01*
X188604819Y-102035714D02*
X187604819Y-102035714D01*
X187604819Y-102035714D02*
X187604819Y-102416666D01*
X187604819Y-102416666D02*
X187652438Y-102511904D01*
X187652438Y-102511904D02*
X187700057Y-102559523D01*
X187700057Y-102559523D02*
X187795295Y-102607142D01*
X187795295Y-102607142D02*
X187938152Y-102607142D01*
X187938152Y-102607142D02*
X188033390Y-102559523D01*
X188033390Y-102559523D02*
X188081009Y-102511904D01*
X188081009Y-102511904D02*
X188128628Y-102416666D01*
X188128628Y-102416666D02*
X188128628Y-102035714D01*
X188604819Y-103559523D02*
X188604819Y-102988095D01*
X188604819Y-103273809D02*
X187604819Y-103273809D01*
X187604819Y-103273809D02*
X187747676Y-103178571D01*
X187747676Y-103178571D02*
X187842914Y-103083333D01*
X187842914Y-103083333D02*
X187890533Y-102988095D01*
X187604819Y-103892857D02*
X187604819Y-104559523D01*
X187604819Y-104559523D02*
X188604819Y-104130952D01*
X114704819Y-97188095D02*
X115514342Y-97188095D01*
X115514342Y-97188095D02*
X115609580Y-97235714D01*
X115609580Y-97235714D02*
X115657200Y-97283333D01*
X115657200Y-97283333D02*
X115704819Y-97378571D01*
X115704819Y-97378571D02*
X115704819Y-97569047D01*
X115704819Y-97569047D02*
X115657200Y-97664285D01*
X115657200Y-97664285D02*
X115609580Y-97711904D01*
X115609580Y-97711904D02*
X115514342Y-97759523D01*
X115514342Y-97759523D02*
X114704819Y-97759523D01*
X114704819Y-98140476D02*
X114704819Y-98759523D01*
X114704819Y-98759523D02*
X115085771Y-98426190D01*
X115085771Y-98426190D02*
X115085771Y-98569047D01*
X115085771Y-98569047D02*
X115133390Y-98664285D01*
X115133390Y-98664285D02*
X115181009Y-98711904D01*
X115181009Y-98711904D02*
X115276247Y-98759523D01*
X115276247Y-98759523D02*
X115514342Y-98759523D01*
X115514342Y-98759523D02*
X115609580Y-98711904D01*
X115609580Y-98711904D02*
X115657200Y-98664285D01*
X115657200Y-98664285D02*
X115704819Y-98569047D01*
X115704819Y-98569047D02*
X115704819Y-98283333D01*
X115704819Y-98283333D02*
X115657200Y-98188095D01*
X115657200Y-98188095D02*
X115609580Y-98140476D01*
X144354835Y-97694642D02*
X143878644Y-97361309D01*
X144354835Y-97123214D02*
X143354835Y-97123214D01*
X143354835Y-97123214D02*
X143354835Y-97504166D01*
X143354835Y-97504166D02*
X143402454Y-97599404D01*
X143402454Y-97599404D02*
X143450073Y-97647023D01*
X143450073Y-97647023D02*
X143545311Y-97694642D01*
X143545311Y-97694642D02*
X143688168Y-97694642D01*
X143688168Y-97694642D02*
X143783406Y-97647023D01*
X143783406Y-97647023D02*
X143831025Y-97599404D01*
X143831025Y-97599404D02*
X143878644Y-97504166D01*
X143878644Y-97504166D02*
X143878644Y-97123214D01*
X144354835Y-98647023D02*
X144354835Y-98075595D01*
X144354835Y-98361309D02*
X143354835Y-98361309D01*
X143354835Y-98361309D02*
X143497692Y-98266071D01*
X143497692Y-98266071D02*
X143592930Y-98170833D01*
X143592930Y-98170833D02*
X143640549Y-98075595D01*
X143354835Y-99266071D02*
X143354835Y-99361309D01*
X143354835Y-99361309D02*
X143402454Y-99456547D01*
X143402454Y-99456547D02*
X143450073Y-99504166D01*
X143450073Y-99504166D02*
X143545311Y-99551785D01*
X143545311Y-99551785D02*
X143735787Y-99599404D01*
X143735787Y-99599404D02*
X143973882Y-99599404D01*
X143973882Y-99599404D02*
X144164358Y-99551785D01*
X144164358Y-99551785D02*
X144259596Y-99504166D01*
X144259596Y-99504166D02*
X144307216Y-99456547D01*
X144307216Y-99456547D02*
X144354835Y-99361309D01*
X144354835Y-99361309D02*
X144354835Y-99266071D01*
X144354835Y-99266071D02*
X144307216Y-99170833D01*
X144307216Y-99170833D02*
X144259596Y-99123214D01*
X144259596Y-99123214D02*
X144164358Y-99075595D01*
X144164358Y-99075595D02*
X143973882Y-99027976D01*
X143973882Y-99027976D02*
X143735787Y-99027976D01*
X143735787Y-99027976D02*
X143545311Y-99075595D01*
X143545311Y-99075595D02*
X143450073Y-99123214D01*
X143450073Y-99123214D02*
X143402454Y-99170833D01*
X143402454Y-99170833D02*
X143354835Y-99266071D01*
X157104835Y-97607142D02*
X156628644Y-97273809D01*
X157104835Y-97035714D02*
X156104835Y-97035714D01*
X156104835Y-97035714D02*
X156104835Y-97416666D01*
X156104835Y-97416666D02*
X156152454Y-97511904D01*
X156152454Y-97511904D02*
X156200073Y-97559523D01*
X156200073Y-97559523D02*
X156295311Y-97607142D01*
X156295311Y-97607142D02*
X156438168Y-97607142D01*
X156438168Y-97607142D02*
X156533406Y-97559523D01*
X156533406Y-97559523D02*
X156581025Y-97511904D01*
X156581025Y-97511904D02*
X156628644Y-97416666D01*
X156628644Y-97416666D02*
X156628644Y-97035714D01*
X157104835Y-98559523D02*
X157104835Y-97988095D01*
X157104835Y-98273809D02*
X156104835Y-98273809D01*
X156104835Y-98273809D02*
X156247692Y-98178571D01*
X156247692Y-98178571D02*
X156342930Y-98083333D01*
X156342930Y-98083333D02*
X156390549Y-97988095D01*
X156200073Y-98940476D02*
X156152454Y-98988095D01*
X156152454Y-98988095D02*
X156104835Y-99083333D01*
X156104835Y-99083333D02*
X156104835Y-99321428D01*
X156104835Y-99321428D02*
X156152454Y-99416666D01*
X156152454Y-99416666D02*
X156200073Y-99464285D01*
X156200073Y-99464285D02*
X156295311Y-99511904D01*
X156295311Y-99511904D02*
X156390549Y-99511904D01*
X156390549Y-99511904D02*
X156533406Y-99464285D01*
X156533406Y-99464285D02*
X157104835Y-98892857D01*
X157104835Y-98892857D02*
X157104835Y-99511904D01*
X153674835Y-95848095D02*
X154484358Y-95848095D01*
X154484358Y-95848095D02*
X154579596Y-95895714D01*
X154579596Y-95895714D02*
X154627216Y-95943333D01*
X154627216Y-95943333D02*
X154674835Y-96038571D01*
X154674835Y-96038571D02*
X154674835Y-96229047D01*
X154674835Y-96229047D02*
X154627216Y-96324285D01*
X154627216Y-96324285D02*
X154579596Y-96371904D01*
X154579596Y-96371904D02*
X154484358Y-96419523D01*
X154484358Y-96419523D02*
X153674835Y-96419523D01*
X153674835Y-97324285D02*
X153674835Y-97133809D01*
X153674835Y-97133809D02*
X153722454Y-97038571D01*
X153722454Y-97038571D02*
X153770073Y-96990952D01*
X153770073Y-96990952D02*
X153912930Y-96895714D01*
X153912930Y-96895714D02*
X154103406Y-96848095D01*
X154103406Y-96848095D02*
X154484358Y-96848095D01*
X154484358Y-96848095D02*
X154579596Y-96895714D01*
X154579596Y-96895714D02*
X154627216Y-96943333D01*
X154627216Y-96943333D02*
X154674835Y-97038571D01*
X154674835Y-97038571D02*
X154674835Y-97229047D01*
X154674835Y-97229047D02*
X154627216Y-97324285D01*
X154627216Y-97324285D02*
X154579596Y-97371904D01*
X154579596Y-97371904D02*
X154484358Y-97419523D01*
X154484358Y-97419523D02*
X154246263Y-97419523D01*
X154246263Y-97419523D02*
X154151025Y-97371904D01*
X154151025Y-97371904D02*
X154103406Y-97324285D01*
X154103406Y-97324285D02*
X154055787Y-97229047D01*
X154055787Y-97229047D02*
X154055787Y-97038571D01*
X154055787Y-97038571D02*
X154103406Y-96943333D01*
X154103406Y-96943333D02*
X154151025Y-96895714D01*
X154151025Y-96895714D02*
X154246263Y-96848095D01*
X144354819Y-94583333D02*
X143878628Y-94250000D01*
X144354819Y-94011905D02*
X143354819Y-94011905D01*
X143354819Y-94011905D02*
X143354819Y-94392857D01*
X143354819Y-94392857D02*
X143402438Y-94488095D01*
X143402438Y-94488095D02*
X143450057Y-94535714D01*
X143450057Y-94535714D02*
X143545295Y-94583333D01*
X143545295Y-94583333D02*
X143688152Y-94583333D01*
X143688152Y-94583333D02*
X143783390Y-94535714D01*
X143783390Y-94535714D02*
X143831009Y-94488095D01*
X143831009Y-94488095D02*
X143878628Y-94392857D01*
X143878628Y-94392857D02*
X143878628Y-94011905D01*
X144354819Y-95059524D02*
X144354819Y-95250000D01*
X144354819Y-95250000D02*
X144307200Y-95345238D01*
X144307200Y-95345238D02*
X144259580Y-95392857D01*
X144259580Y-95392857D02*
X144116723Y-95488095D01*
X144116723Y-95488095D02*
X143926247Y-95535714D01*
X143926247Y-95535714D02*
X143545295Y-95535714D01*
X143545295Y-95535714D02*
X143450057Y-95488095D01*
X143450057Y-95488095D02*
X143402438Y-95440476D01*
X143402438Y-95440476D02*
X143354819Y-95345238D01*
X143354819Y-95345238D02*
X143354819Y-95154762D01*
X143354819Y-95154762D02*
X143402438Y-95059524D01*
X143402438Y-95059524D02*
X143450057Y-95011905D01*
X143450057Y-95011905D02*
X143545295Y-94964286D01*
X143545295Y-94964286D02*
X143783390Y-94964286D01*
X143783390Y-94964286D02*
X143878628Y-95011905D01*
X143878628Y-95011905D02*
X143926247Y-95059524D01*
X143926247Y-95059524D02*
X143973866Y-95154762D01*
X143973866Y-95154762D02*
X143973866Y-95345238D01*
X143973866Y-95345238D02*
X143926247Y-95440476D01*
X143926247Y-95440476D02*
X143878628Y-95488095D01*
X143878628Y-95488095D02*
X143783390Y-95535714D01*
X166704819Y-97188095D02*
X167514342Y-97188095D01*
X167514342Y-97188095D02*
X167609580Y-97235714D01*
X167609580Y-97235714D02*
X167657200Y-97283333D01*
X167657200Y-97283333D02*
X167704819Y-97378571D01*
X167704819Y-97378571D02*
X167704819Y-97569047D01*
X167704819Y-97569047D02*
X167657200Y-97664285D01*
X167657200Y-97664285D02*
X167609580Y-97711904D01*
X167609580Y-97711904D02*
X167514342Y-97759523D01*
X167514342Y-97759523D02*
X166704819Y-97759523D01*
X166704819Y-98140476D02*
X166704819Y-98807142D01*
X166704819Y-98807142D02*
X167704819Y-98378571D01*
X132104835Y-94583333D02*
X131628644Y-94250000D01*
X132104835Y-94011905D02*
X131104835Y-94011905D01*
X131104835Y-94011905D02*
X131104835Y-94392857D01*
X131104835Y-94392857D02*
X131152454Y-94488095D01*
X131152454Y-94488095D02*
X131200073Y-94535714D01*
X131200073Y-94535714D02*
X131295311Y-94583333D01*
X131295311Y-94583333D02*
X131438168Y-94583333D01*
X131438168Y-94583333D02*
X131533406Y-94535714D01*
X131533406Y-94535714D02*
X131581025Y-94488095D01*
X131581025Y-94488095D02*
X131628644Y-94392857D01*
X131628644Y-94392857D02*
X131628644Y-94011905D01*
X131104835Y-94916667D02*
X131104835Y-95583333D01*
X131104835Y-95583333D02*
X132104835Y-95154762D01*
X170104835Y-99357142D02*
X169628644Y-99023809D01*
X170104835Y-98785714D02*
X169104835Y-98785714D01*
X169104835Y-98785714D02*
X169104835Y-99166666D01*
X169104835Y-99166666D02*
X169152454Y-99261904D01*
X169152454Y-99261904D02*
X169200073Y-99309523D01*
X169200073Y-99309523D02*
X169295311Y-99357142D01*
X169295311Y-99357142D02*
X169438168Y-99357142D01*
X169438168Y-99357142D02*
X169533406Y-99309523D01*
X169533406Y-99309523D02*
X169581025Y-99261904D01*
X169581025Y-99261904D02*
X169628644Y-99166666D01*
X169628644Y-99166666D02*
X169628644Y-98785714D01*
X170104835Y-100309523D02*
X170104835Y-99738095D01*
X170104835Y-100023809D02*
X169104835Y-100023809D01*
X169104835Y-100023809D02*
X169247692Y-99928571D01*
X169247692Y-99928571D02*
X169342930Y-99833333D01*
X169342930Y-99833333D02*
X169390549Y-99738095D01*
X169438168Y-101166666D02*
X170104835Y-101166666D01*
X169057216Y-100928571D02*
X169771501Y-100690476D01*
X169771501Y-100690476D02*
X169771501Y-101309523D01*
X88704819Y-105988095D02*
X89514342Y-105988095D01*
X89514342Y-105988095D02*
X89609580Y-106035714D01*
X89609580Y-106035714D02*
X89657200Y-106083333D01*
X89657200Y-106083333D02*
X89704819Y-106178571D01*
X89704819Y-106178571D02*
X89704819Y-106369047D01*
X89704819Y-106369047D02*
X89657200Y-106464285D01*
X89657200Y-106464285D02*
X89609580Y-106511904D01*
X89609580Y-106511904D02*
X89514342Y-106559523D01*
X89514342Y-106559523D02*
X88704819Y-106559523D01*
X89704819Y-107559523D02*
X89704819Y-106988095D01*
X89704819Y-107273809D02*
X88704819Y-107273809D01*
X88704819Y-107273809D02*
X88847676Y-107178571D01*
X88847676Y-107178571D02*
X88942914Y-107083333D01*
X88942914Y-107083333D02*
X88990533Y-106988095D01*
X140704819Y-95738095D02*
X141514342Y-95738095D01*
X141514342Y-95738095D02*
X141609580Y-95785714D01*
X141609580Y-95785714D02*
X141657200Y-95833333D01*
X141657200Y-95833333D02*
X141704819Y-95928571D01*
X141704819Y-95928571D02*
X141704819Y-96119047D01*
X141704819Y-96119047D02*
X141657200Y-96214285D01*
X141657200Y-96214285D02*
X141609580Y-96261904D01*
X141609580Y-96261904D02*
X141514342Y-96309523D01*
X141514342Y-96309523D02*
X140704819Y-96309523D01*
X140704819Y-97261904D02*
X140704819Y-96785714D01*
X140704819Y-96785714D02*
X141181009Y-96738095D01*
X141181009Y-96738095D02*
X141133390Y-96785714D01*
X141133390Y-96785714D02*
X141085771Y-96880952D01*
X141085771Y-96880952D02*
X141085771Y-97119047D01*
X141085771Y-97119047D02*
X141133390Y-97214285D01*
X141133390Y-97214285D02*
X141181009Y-97261904D01*
X141181009Y-97261904D02*
X141276247Y-97309523D01*
X141276247Y-97309523D02*
X141514342Y-97309523D01*
X141514342Y-97309523D02*
X141609580Y-97261904D01*
X141609580Y-97261904D02*
X141657200Y-97214285D01*
X141657200Y-97214285D02*
X141704819Y-97119047D01*
X141704819Y-97119047D02*
X141704819Y-96880952D01*
X141704819Y-96880952D02*
X141657200Y-96785714D01*
X141657200Y-96785714D02*
X141609580Y-96738095D01*
X188604819Y-106107142D02*
X188128628Y-105773809D01*
X188604819Y-105535714D02*
X187604819Y-105535714D01*
X187604819Y-105535714D02*
X187604819Y-105916666D01*
X187604819Y-105916666D02*
X187652438Y-106011904D01*
X187652438Y-106011904D02*
X187700057Y-106059523D01*
X187700057Y-106059523D02*
X187795295Y-106107142D01*
X187795295Y-106107142D02*
X187938152Y-106107142D01*
X187938152Y-106107142D02*
X188033390Y-106059523D01*
X188033390Y-106059523D02*
X188081009Y-106011904D01*
X188081009Y-106011904D02*
X188128628Y-105916666D01*
X188128628Y-105916666D02*
X188128628Y-105535714D01*
X188604819Y-107059523D02*
X188604819Y-106488095D01*
X188604819Y-106773809D02*
X187604819Y-106773809D01*
X187604819Y-106773809D02*
X187747676Y-106678571D01*
X187747676Y-106678571D02*
X187842914Y-106583333D01*
X187842914Y-106583333D02*
X187890533Y-106488095D01*
X188033390Y-107630952D02*
X187985771Y-107535714D01*
X187985771Y-107535714D02*
X187938152Y-107488095D01*
X187938152Y-107488095D02*
X187842914Y-107440476D01*
X187842914Y-107440476D02*
X187795295Y-107440476D01*
X187795295Y-107440476D02*
X187700057Y-107488095D01*
X187700057Y-107488095D02*
X187652438Y-107535714D01*
X187652438Y-107535714D02*
X187604819Y-107630952D01*
X187604819Y-107630952D02*
X187604819Y-107821428D01*
X187604819Y-107821428D02*
X187652438Y-107916666D01*
X187652438Y-107916666D02*
X187700057Y-107964285D01*
X187700057Y-107964285D02*
X187795295Y-108011904D01*
X187795295Y-108011904D02*
X187842914Y-108011904D01*
X187842914Y-108011904D02*
X187938152Y-107964285D01*
X187938152Y-107964285D02*
X187985771Y-107916666D01*
X187985771Y-107916666D02*
X188033390Y-107821428D01*
X188033390Y-107821428D02*
X188033390Y-107630952D01*
X188033390Y-107630952D02*
X188081009Y-107535714D01*
X188081009Y-107535714D02*
X188128628Y-107488095D01*
X188128628Y-107488095D02*
X188223866Y-107440476D01*
X188223866Y-107440476D02*
X188414342Y-107440476D01*
X188414342Y-107440476D02*
X188509580Y-107488095D01*
X188509580Y-107488095D02*
X188557200Y-107535714D01*
X188557200Y-107535714D02*
X188604819Y-107630952D01*
X188604819Y-107630952D02*
X188604819Y-107821428D01*
X188604819Y-107821428D02*
X188557200Y-107916666D01*
X188557200Y-107916666D02*
X188509580Y-107964285D01*
X188509580Y-107964285D02*
X188414342Y-108011904D01*
X188414342Y-108011904D02*
X188223866Y-108011904D01*
X188223866Y-108011904D02*
X188128628Y-107964285D01*
X188128628Y-107964285D02*
X188081009Y-107916666D01*
X188081009Y-107916666D02*
X188033390Y-107821428D01*
X183354819Y-100107142D02*
X182878628Y-99773809D01*
X183354819Y-99535714D02*
X182354819Y-99535714D01*
X182354819Y-99535714D02*
X182354819Y-99916666D01*
X182354819Y-99916666D02*
X182402438Y-100011904D01*
X182402438Y-100011904D02*
X182450057Y-100059523D01*
X182450057Y-100059523D02*
X182545295Y-100107142D01*
X182545295Y-100107142D02*
X182688152Y-100107142D01*
X182688152Y-100107142D02*
X182783390Y-100059523D01*
X182783390Y-100059523D02*
X182831009Y-100011904D01*
X182831009Y-100011904D02*
X182878628Y-99916666D01*
X182878628Y-99916666D02*
X182878628Y-99535714D01*
X183354819Y-101059523D02*
X183354819Y-100488095D01*
X183354819Y-100773809D02*
X182354819Y-100773809D01*
X182354819Y-100773809D02*
X182497676Y-100678571D01*
X182497676Y-100678571D02*
X182592914Y-100583333D01*
X182592914Y-100583333D02*
X182640533Y-100488095D01*
X182354819Y-101964285D02*
X182354819Y-101488095D01*
X182354819Y-101488095D02*
X182831009Y-101440476D01*
X182831009Y-101440476D02*
X182783390Y-101488095D01*
X182783390Y-101488095D02*
X182735771Y-101583333D01*
X182735771Y-101583333D02*
X182735771Y-101821428D01*
X182735771Y-101821428D02*
X182783390Y-101916666D01*
X182783390Y-101916666D02*
X182831009Y-101964285D01*
X182831009Y-101964285D02*
X182926247Y-102011904D01*
X182926247Y-102011904D02*
X183164342Y-102011904D01*
X183164342Y-102011904D02*
X183259580Y-101964285D01*
X183259580Y-101964285D02*
X183307200Y-101916666D01*
X183307200Y-101916666D02*
X183354819Y-101821428D01*
X183354819Y-101821428D02*
X183354819Y-101583333D01*
X183354819Y-101583333D02*
X183307200Y-101488095D01*
X183307200Y-101488095D02*
X183259580Y-101440476D01*
X97854819Y-100833333D02*
X97378628Y-100500000D01*
X97854819Y-100261905D02*
X96854819Y-100261905D01*
X96854819Y-100261905D02*
X96854819Y-100642857D01*
X96854819Y-100642857D02*
X96902438Y-100738095D01*
X96902438Y-100738095D02*
X96950057Y-100785714D01*
X96950057Y-100785714D02*
X97045295Y-100833333D01*
X97045295Y-100833333D02*
X97188152Y-100833333D01*
X97188152Y-100833333D02*
X97283390Y-100785714D01*
X97283390Y-100785714D02*
X97331009Y-100738095D01*
X97331009Y-100738095D02*
X97378628Y-100642857D01*
X97378628Y-100642857D02*
X97378628Y-100261905D01*
X96854819Y-101166667D02*
X96854819Y-101785714D01*
X96854819Y-101785714D02*
X97235771Y-101452381D01*
X97235771Y-101452381D02*
X97235771Y-101595238D01*
X97235771Y-101595238D02*
X97283390Y-101690476D01*
X97283390Y-101690476D02*
X97331009Y-101738095D01*
X97331009Y-101738095D02*
X97426247Y-101785714D01*
X97426247Y-101785714D02*
X97664342Y-101785714D01*
X97664342Y-101785714D02*
X97759580Y-101738095D01*
X97759580Y-101738095D02*
X97807200Y-101690476D01*
X97807200Y-101690476D02*
X97854819Y-101595238D01*
X97854819Y-101595238D02*
X97854819Y-101309524D01*
X97854819Y-101309524D02*
X97807200Y-101214286D01*
X97807200Y-101214286D02*
X97759580Y-101166667D01*
X170104835Y-95857142D02*
X169628644Y-95523809D01*
X170104835Y-95285714D02*
X169104835Y-95285714D01*
X169104835Y-95285714D02*
X169104835Y-95666666D01*
X169104835Y-95666666D02*
X169152454Y-95761904D01*
X169152454Y-95761904D02*
X169200073Y-95809523D01*
X169200073Y-95809523D02*
X169295311Y-95857142D01*
X169295311Y-95857142D02*
X169438168Y-95857142D01*
X169438168Y-95857142D02*
X169533406Y-95809523D01*
X169533406Y-95809523D02*
X169581025Y-95761904D01*
X169581025Y-95761904D02*
X169628644Y-95666666D01*
X169628644Y-95666666D02*
X169628644Y-95285714D01*
X170104835Y-96809523D02*
X170104835Y-96238095D01*
X170104835Y-96523809D02*
X169104835Y-96523809D01*
X169104835Y-96523809D02*
X169247692Y-96428571D01*
X169247692Y-96428571D02*
X169342930Y-96333333D01*
X169342930Y-96333333D02*
X169390549Y-96238095D01*
X169104835Y-97142857D02*
X169104835Y-97761904D01*
X169104835Y-97761904D02*
X169485787Y-97428571D01*
X169485787Y-97428571D02*
X169485787Y-97571428D01*
X169485787Y-97571428D02*
X169533406Y-97666666D01*
X169533406Y-97666666D02*
X169581025Y-97714285D01*
X169581025Y-97714285D02*
X169676263Y-97761904D01*
X169676263Y-97761904D02*
X169914358Y-97761904D01*
X169914358Y-97761904D02*
X170009596Y-97714285D01*
X170009596Y-97714285D02*
X170057216Y-97666666D01*
X170057216Y-97666666D02*
X170104835Y-97571428D01*
X170104835Y-97571428D02*
X170104835Y-97285714D01*
X170104835Y-97285714D02*
X170057216Y-97190476D01*
X170057216Y-97190476D02*
X170009596Y-97142857D01*
X157104819Y-94107142D02*
X156628628Y-93773809D01*
X157104819Y-93535714D02*
X156104819Y-93535714D01*
X156104819Y-93535714D02*
X156104819Y-93916666D01*
X156104819Y-93916666D02*
X156152438Y-94011904D01*
X156152438Y-94011904D02*
X156200057Y-94059523D01*
X156200057Y-94059523D02*
X156295295Y-94107142D01*
X156295295Y-94107142D02*
X156438152Y-94107142D01*
X156438152Y-94107142D02*
X156533390Y-94059523D01*
X156533390Y-94059523D02*
X156581009Y-94011904D01*
X156581009Y-94011904D02*
X156628628Y-93916666D01*
X156628628Y-93916666D02*
X156628628Y-93535714D01*
X157104819Y-95059523D02*
X157104819Y-94488095D01*
X157104819Y-94773809D02*
X156104819Y-94773809D01*
X156104819Y-94773809D02*
X156247676Y-94678571D01*
X156247676Y-94678571D02*
X156342914Y-94583333D01*
X156342914Y-94583333D02*
X156390533Y-94488095D01*
X157104819Y-96011904D02*
X157104819Y-95440476D01*
X157104819Y-95726190D02*
X156104819Y-95726190D01*
X156104819Y-95726190D02*
X156247676Y-95630952D01*
X156247676Y-95630952D02*
X156342914Y-95535714D01*
X156342914Y-95535714D02*
X156390533Y-95440476D01*
X183354819Y-103607142D02*
X182878628Y-103273809D01*
X183354819Y-103035714D02*
X182354819Y-103035714D01*
X182354819Y-103035714D02*
X182354819Y-103416666D01*
X182354819Y-103416666D02*
X182402438Y-103511904D01*
X182402438Y-103511904D02*
X182450057Y-103559523D01*
X182450057Y-103559523D02*
X182545295Y-103607142D01*
X182545295Y-103607142D02*
X182688152Y-103607142D01*
X182688152Y-103607142D02*
X182783390Y-103559523D01*
X182783390Y-103559523D02*
X182831009Y-103511904D01*
X182831009Y-103511904D02*
X182878628Y-103416666D01*
X182878628Y-103416666D02*
X182878628Y-103035714D01*
X183354819Y-104559523D02*
X183354819Y-103988095D01*
X183354819Y-104273809D02*
X182354819Y-104273809D01*
X182354819Y-104273809D02*
X182497676Y-104178571D01*
X182497676Y-104178571D02*
X182592914Y-104083333D01*
X182592914Y-104083333D02*
X182640533Y-103988095D01*
X182354819Y-105416666D02*
X182354819Y-105226190D01*
X182354819Y-105226190D02*
X182402438Y-105130952D01*
X182402438Y-105130952D02*
X182450057Y-105083333D01*
X182450057Y-105083333D02*
X182592914Y-104988095D01*
X182592914Y-104988095D02*
X182783390Y-104940476D01*
X182783390Y-104940476D02*
X183164342Y-104940476D01*
X183164342Y-104940476D02*
X183259580Y-104988095D01*
X183259580Y-104988095D02*
X183307200Y-105035714D01*
X183307200Y-105035714D02*
X183354819Y-105130952D01*
X183354819Y-105130952D02*
X183354819Y-105321428D01*
X183354819Y-105321428D02*
X183307200Y-105416666D01*
X183307200Y-105416666D02*
X183259580Y-105464285D01*
X183259580Y-105464285D02*
X183164342Y-105511904D01*
X183164342Y-105511904D02*
X182926247Y-105511904D01*
X182926247Y-105511904D02*
X182831009Y-105464285D01*
X182831009Y-105464285D02*
X182783390Y-105416666D01*
X182783390Y-105416666D02*
X182735771Y-105321428D01*
X182735771Y-105321428D02*
X182735771Y-105130952D01*
X182735771Y-105130952D02*
X182783390Y-105035714D01*
X182783390Y-105035714D02*
X182831009Y-104988095D01*
X182831009Y-104988095D02*
X182926247Y-104940476D01*
X179704819Y-100488095D02*
X180514342Y-100488095D01*
X180514342Y-100488095D02*
X180609580Y-100535714D01*
X180609580Y-100535714D02*
X180657200Y-100583333D01*
X180657200Y-100583333D02*
X180704819Y-100678571D01*
X180704819Y-100678571D02*
X180704819Y-100869047D01*
X180704819Y-100869047D02*
X180657200Y-100964285D01*
X180657200Y-100964285D02*
X180609580Y-101011904D01*
X180609580Y-101011904D02*
X180514342Y-101059523D01*
X180514342Y-101059523D02*
X179704819Y-101059523D01*
X180133390Y-101678571D02*
X180085771Y-101583333D01*
X180085771Y-101583333D02*
X180038152Y-101535714D01*
X180038152Y-101535714D02*
X179942914Y-101488095D01*
X179942914Y-101488095D02*
X179895295Y-101488095D01*
X179895295Y-101488095D02*
X179800057Y-101535714D01*
X179800057Y-101535714D02*
X179752438Y-101583333D01*
X179752438Y-101583333D02*
X179704819Y-101678571D01*
X179704819Y-101678571D02*
X179704819Y-101869047D01*
X179704819Y-101869047D02*
X179752438Y-101964285D01*
X179752438Y-101964285D02*
X179800057Y-102011904D01*
X179800057Y-102011904D02*
X179895295Y-102059523D01*
X179895295Y-102059523D02*
X179942914Y-102059523D01*
X179942914Y-102059523D02*
X180038152Y-102011904D01*
X180038152Y-102011904D02*
X180085771Y-101964285D01*
X180085771Y-101964285D02*
X180133390Y-101869047D01*
X180133390Y-101869047D02*
X180133390Y-101678571D01*
X180133390Y-101678571D02*
X180181009Y-101583333D01*
X180181009Y-101583333D02*
X180228628Y-101535714D01*
X180228628Y-101535714D02*
X180323866Y-101488095D01*
X180323866Y-101488095D02*
X180514342Y-101488095D01*
X180514342Y-101488095D02*
X180609580Y-101535714D01*
X180609580Y-101535714D02*
X180657200Y-101583333D01*
X180657200Y-101583333D02*
X180704819Y-101678571D01*
X180704819Y-101678571D02*
X180704819Y-101869047D01*
X180704819Y-101869047D02*
X180657200Y-101964285D01*
X180657200Y-101964285D02*
X180609580Y-102011904D01*
X180609580Y-102011904D02*
X180514342Y-102059523D01*
X180514342Y-102059523D02*
X180323866Y-102059523D01*
X180323866Y-102059523D02*
X180228628Y-102011904D01*
X180228628Y-102011904D02*
X180181009Y-101964285D01*
X180181009Y-101964285D02*
X180133390Y-101869047D01*
X192704819Y-105988095D02*
X193514342Y-105988095D01*
X193514342Y-105988095D02*
X193609580Y-106035714D01*
X193609580Y-106035714D02*
X193657200Y-106083333D01*
X193657200Y-106083333D02*
X193704819Y-106178571D01*
X193704819Y-106178571D02*
X193704819Y-106369047D01*
X193704819Y-106369047D02*
X193657200Y-106464285D01*
X193657200Y-106464285D02*
X193609580Y-106511904D01*
X193609580Y-106511904D02*
X193514342Y-106559523D01*
X193514342Y-106559523D02*
X192704819Y-106559523D01*
X193704819Y-107083333D02*
X193704819Y-107273809D01*
X193704819Y-107273809D02*
X193657200Y-107369047D01*
X193657200Y-107369047D02*
X193609580Y-107416666D01*
X193609580Y-107416666D02*
X193466723Y-107511904D01*
X193466723Y-107511904D02*
X193276247Y-107559523D01*
X193276247Y-107559523D02*
X192895295Y-107559523D01*
X192895295Y-107559523D02*
X192800057Y-107511904D01*
X192800057Y-107511904D02*
X192752438Y-107464285D01*
X192752438Y-107464285D02*
X192704819Y-107369047D01*
X192704819Y-107369047D02*
X192704819Y-107178571D01*
X192704819Y-107178571D02*
X192752438Y-107083333D01*
X192752438Y-107083333D02*
X192800057Y-107035714D01*
X192800057Y-107035714D02*
X192895295Y-106988095D01*
X192895295Y-106988095D02*
X193133390Y-106988095D01*
X193133390Y-106988095D02*
X193228628Y-107035714D01*
X193228628Y-107035714D02*
X193276247Y-107083333D01*
X193276247Y-107083333D02*
X193323866Y-107178571D01*
X193323866Y-107178571D02*
X193323866Y-107369047D01*
X193323866Y-107369047D02*
X193276247Y-107464285D01*
X193276247Y-107464285D02*
X193228628Y-107511904D01*
X193228628Y-107511904D02*
X193133390Y-107559523D01*
X97854835Y-104333333D02*
X97378644Y-104000000D01*
X97854835Y-103761905D02*
X96854835Y-103761905D01*
X96854835Y-103761905D02*
X96854835Y-104142857D01*
X96854835Y-104142857D02*
X96902454Y-104238095D01*
X96902454Y-104238095D02*
X96950073Y-104285714D01*
X96950073Y-104285714D02*
X97045311Y-104333333D01*
X97045311Y-104333333D02*
X97188168Y-104333333D01*
X97188168Y-104333333D02*
X97283406Y-104285714D01*
X97283406Y-104285714D02*
X97331025Y-104238095D01*
X97331025Y-104238095D02*
X97378644Y-104142857D01*
X97378644Y-104142857D02*
X97378644Y-103761905D01*
X97188168Y-105190476D02*
X97854835Y-105190476D01*
X96807216Y-104952381D02*
X97521501Y-104714286D01*
X97521501Y-104714286D02*
X97521501Y-105333333D01*
D11*
%TO.C,R2*%
X90265016Y-107889564D02*
X90265016Y-107435436D01*
X91735016Y-107889564D02*
X91735016Y-107435436D01*
%TO.C,R6*%
X116015016Y-99477064D02*
X116015016Y-99022936D01*
X117485016Y-99477064D02*
X117485016Y-99022936D01*
%TO.C,R1*%
X90265000Y-104477064D02*
X90265000Y-104022936D01*
X91735000Y-104477064D02*
X91735000Y-104022936D01*
%TO.C,R8*%
X129265016Y-98477064D02*
X129265016Y-98022936D01*
X130735016Y-98477064D02*
X130735016Y-98022936D01*
%TO.C,U4*%
X124050000Y-98000000D02*
X124050000Y-95200000D01*
X127450000Y-98000000D02*
X127450000Y-94930000D01*
X127640000Y-94370000D02*
X127360000Y-94370000D01*
X127360000Y-94090000D01*
X127640000Y-94370000D01*
G36*
X127640000Y-94370000D02*
G01*
X127360000Y-94370000D01*
X127360000Y-94090000D01*
X127640000Y-94370000D01*
G37*
%TO.C,U2*%
X98050000Y-102650000D02*
X98050000Y-99850000D01*
X101450000Y-102650000D02*
X101450000Y-99580000D01*
X101640000Y-99020000D02*
X101360000Y-99020000D01*
X101360000Y-98740000D01*
X101640000Y-99020000D01*
G36*
X101640000Y-99020000D02*
G01*
X101360000Y-99020000D01*
X101360000Y-98740000D01*
X101640000Y-99020000D01*
G37*
%TO.C,R5*%
X116015000Y-95977064D02*
X116015000Y-95522936D01*
X117485000Y-95977064D02*
X117485000Y-95522936D01*
%TO.C,R17*%
X185765000Y-103477064D02*
X185765000Y-103022936D01*
X187235000Y-103477064D02*
X187235000Y-103022936D01*
%TO.C,U3*%
X111050000Y-99350000D02*
X111050000Y-96550000D01*
X114450000Y-99350000D02*
X114450000Y-96280000D01*
X114640000Y-95720000D02*
X114360000Y-95720000D01*
X114360000Y-95440000D01*
X114640000Y-95720000D01*
G36*
X114640000Y-95720000D02*
G01*
X114360000Y-95720000D01*
X114360000Y-95440000D01*
X114640000Y-95720000D01*
G37*
%TO.C,R10*%
X141515016Y-98564564D02*
X141515016Y-98110436D01*
X142985016Y-98564564D02*
X142985016Y-98110436D01*
%TO.C,R12*%
X154265016Y-98477064D02*
X154265016Y-98022936D01*
X155735016Y-98477064D02*
X155735016Y-98022936D01*
%TO.C,U6*%
X150020016Y-98010000D02*
X150020016Y-95210000D01*
X153420016Y-98010000D02*
X153420016Y-94940000D01*
X153610016Y-94380000D02*
X153330016Y-94380000D01*
X153330016Y-94100000D01*
X153610016Y-94380000D01*
G36*
X153610016Y-94380000D02*
G01*
X153330016Y-94380000D01*
X153330016Y-94100000D01*
X153610016Y-94380000D01*
G37*
%TO.C,R9*%
X141515000Y-94977064D02*
X141515000Y-94522936D01*
X142985000Y-94977064D02*
X142985000Y-94522936D01*
%TO.C,U7*%
X163050000Y-99350000D02*
X163050000Y-96550000D01*
X166450000Y-99350000D02*
X166450000Y-96280000D01*
X166640000Y-95720000D02*
X166360000Y-95720000D01*
X166360000Y-95440000D01*
X166640000Y-95720000D01*
G36*
X166640000Y-95720000D02*
G01*
X166360000Y-95720000D01*
X166360000Y-95440000D01*
X166640000Y-95720000D01*
G37*
%TO.C,R7*%
X129265016Y-94977064D02*
X129265016Y-94522936D01*
X130735016Y-94977064D02*
X130735016Y-94522936D01*
%TO.C,R14*%
X167265016Y-100227064D02*
X167265016Y-99772936D01*
X168735016Y-100227064D02*
X168735016Y-99772936D01*
%TO.C,U1*%
X85050000Y-108150000D02*
X85050000Y-105350000D01*
X88450000Y-108150000D02*
X88450000Y-105080000D01*
X88640000Y-104520000D02*
X88360000Y-104520000D01*
X88360000Y-104240000D01*
X88640000Y-104520000D01*
G36*
X88640000Y-104520000D02*
G01*
X88360000Y-104520000D01*
X88360000Y-104240000D01*
X88640000Y-104520000D01*
G37*
%TO.C,U5*%
X137050000Y-97900000D02*
X137050000Y-95100000D01*
X140450000Y-97900000D02*
X140450000Y-94830000D01*
X140640000Y-94270000D02*
X140360000Y-94270000D01*
X140360000Y-93990000D01*
X140640000Y-94270000D01*
G36*
X140640000Y-94270000D02*
G01*
X140360000Y-94270000D01*
X140360000Y-93990000D01*
X140640000Y-94270000D01*
G37*
%TO.C,R18*%
X185765000Y-106977064D02*
X185765000Y-106522936D01*
X187235000Y-106977064D02*
X187235000Y-106522936D01*
%TO.C,R15*%
X180515000Y-100977064D02*
X180515000Y-100522936D01*
X181985000Y-100977064D02*
X181985000Y-100522936D01*
%TO.C,R3*%
X95015000Y-101227064D02*
X95015000Y-100772936D01*
X96485000Y-101227064D02*
X96485000Y-100772936D01*
%TO.C,R13*%
X167265016Y-96727064D02*
X167265016Y-96272936D01*
X168735016Y-96727064D02*
X168735016Y-96272936D01*
%TO.C,R11*%
X154265000Y-94977064D02*
X154265000Y-94522936D01*
X155735000Y-94977064D02*
X155735000Y-94522936D01*
%TO.C,R16*%
X180515000Y-104477064D02*
X180515000Y-104022936D01*
X181985000Y-104477064D02*
X181985000Y-104022936D01*
%TO.C,U8*%
X176050000Y-102650000D02*
X176050000Y-99850000D01*
X179450000Y-102650000D02*
X179450000Y-99580000D01*
X179640000Y-99020000D02*
X179360000Y-99020000D01*
X179360000Y-98740000D01*
X179640000Y-99020000D01*
G36*
X179640000Y-99020000D02*
G01*
X179360000Y-99020000D01*
X179360000Y-98740000D01*
X179640000Y-99020000D01*
G37*
%TO.C,U9*%
X189050000Y-108150000D02*
X189050000Y-105350000D01*
X192450000Y-108150000D02*
X192450000Y-105080000D01*
X192640000Y-104520000D02*
X192360000Y-104520000D01*
X192360000Y-104240000D01*
X192640000Y-104520000D01*
G36*
X192640000Y-104520000D02*
G01*
X192360000Y-104520000D01*
X192360000Y-104240000D01*
X192640000Y-104520000D01*
G37*
%TO.C,R4*%
X95015016Y-104727064D02*
X95015016Y-104272936D01*
X96485016Y-104727064D02*
X96485016Y-104272936D01*
%TD*%
M02*
