%TF.GenerationSoftware,KiCad,Pcbnew,9.0.1*%
%TF.CreationDate,2025-05-09T11:22:53+02:00*%
%TF.ProjectId,FL-Zetor-Senzor,464c2d5a-6574-46f7-922d-53656e7a6f72,rev?*%
%TF.SameCoordinates,Original*%
%TF.FileFunction,Copper,L2,Bot*%
%TF.FilePolarity,Positive*%
%FSLAX46Y46*%
G04 Gerber Fmt 4.6, Leading zero omitted, Abs format (unit mm)*
G04 Created by KiCad (PCBNEW 9.0.1) date 2025-05-09 11:22:53*
%MOMM*%
%LPD*%
G01*
G04 APERTURE LIST*
G04 Aperture macros list*
%AMRoundRect*
0 Rectangle with rounded corners*
0 $1 Rounding radius*
0 $2 $3 $4 $5 $6 $7 $8 $9 X,Y pos of 4 corners*
0 Add a 4 corners polygon primitive as box body*
4,1,4,$2,$3,$4,$5,$6,$7,$8,$9,$2,$3,0*
0 Add four circle primitives for the rounded corners*
1,1,$1+$1,$2,$3*
1,1,$1+$1,$4,$5*
1,1,$1+$1,$6,$7*
1,1,$1+$1,$8,$9*
0 Add four rect primitives between the rounded corners*
20,1,$1+$1,$2,$3,$4,$5,0*
20,1,$1+$1,$4,$5,$6,$7,0*
20,1,$1+$1,$6,$7,$8,$9,0*
20,1,$1+$1,$8,$9,$2,$3,0*%
G04 Aperture macros list end*
%TA.AperFunction,ComponentPad*%
%ADD10C,5.700000*%
%TD*%
%TA.AperFunction,SMDPad,CuDef*%
%ADD11RoundRect,0.250000X0.450000X-0.262500X0.450000X0.262500X-0.450000X0.262500X-0.450000X-0.262500X0*%
%TD*%
%TA.AperFunction,SMDPad,CuDef*%
%ADD12RoundRect,0.197500X0.197500X0.632500X-0.197500X0.632500X-0.197500X-0.632500X0.197500X-0.632500X0*%
%TD*%
%TA.AperFunction,ViaPad*%
%ADD13C,0.600000*%
%TD*%
%TA.AperFunction,Conductor*%
%ADD14C,0.200000*%
%TD*%
%TA.AperFunction,Conductor*%
%ADD15C,0.250000*%
%TD*%
%TA.AperFunction,Conductor*%
%ADD16C,0.500000*%
%TD*%
G04 APERTURE END LIST*
D10*
%TO.P,H1,1,1*%
%TO.N,GND*%
X173250000Y-101750000D03*
%TD*%
%TO.P,H2,1,1*%
%TO.N,GND*%
X104250000Y-101750000D03*
%TD*%
D11*
%TO.P,R2,1*%
%TO.N,Sen1Out*%
X91000016Y-108575000D03*
%TO.P,R2,2*%
%TO.N,VCC*%
X91000016Y-106750000D03*
%TD*%
%TO.P,R6,1*%
%TO.N,Sen3Out*%
X116750016Y-100162500D03*
%TO.P,R6,2*%
%TO.N,VCC*%
X116750016Y-98337500D03*
%TD*%
%TO.P,R1,1*%
%TO.N,VCC*%
X91000000Y-105162500D03*
%TO.P,R1,2*%
%TO.N,Net-(U1-A)*%
X91000000Y-103337500D03*
%TD*%
%TO.P,R8,1*%
%TO.N,Sen4Out*%
X130000016Y-99162500D03*
%TO.P,R8,2*%
%TO.N,VCC*%
X130000016Y-97337500D03*
%TD*%
D12*
%TO.P,U4,1,A*%
%TO.N,Net-(U4-A)*%
X126650000Y-94600000D03*
%TO.P,U4,2,K*%
%TO.N,GND*%
X126650000Y-98600000D03*
%TO.P,U4,3*%
%TO.N,Sen4Out*%
X124850000Y-98600000D03*
%TO.P,U4,4*%
%TO.N,GND*%
X124850000Y-94600000D03*
%TD*%
%TO.P,U2,1,A*%
%TO.N,Net-(U2-A)*%
X100650000Y-99250000D03*
%TO.P,U2,2,K*%
%TO.N,GND*%
X100650000Y-103250000D03*
%TO.P,U2,3*%
%TO.N,Sen2Out*%
X98850000Y-103250000D03*
%TO.P,U2,4*%
%TO.N,GND*%
X98850000Y-99250000D03*
%TD*%
D11*
%TO.P,R5,1*%
%TO.N,VCC*%
X116750000Y-96662500D03*
%TO.P,R5,2*%
%TO.N,Net-(U3-A)*%
X116750000Y-94837500D03*
%TD*%
%TO.P,R17,1*%
%TO.N,VCC*%
X186500000Y-104162500D03*
%TO.P,R17,2*%
%TO.N,Net-(U9-A)*%
X186500000Y-102337500D03*
%TD*%
D12*
%TO.P,U3,1,A*%
%TO.N,Net-(U3-A)*%
X113650000Y-95950000D03*
%TO.P,U3,2,K*%
%TO.N,GND*%
X113650000Y-99950000D03*
%TO.P,U3,3*%
%TO.N,Sen3Out*%
X111850000Y-99950000D03*
%TO.P,U3,4*%
%TO.N,GND*%
X111850000Y-95950000D03*
%TD*%
D11*
%TO.P,R10,1*%
%TO.N,Sen5Out*%
X142250016Y-99250000D03*
%TO.P,R10,2*%
%TO.N,VCC*%
X142250016Y-97425000D03*
%TD*%
%TO.P,R12,1*%
%TO.N,Sen6Out*%
X155000016Y-99162500D03*
%TO.P,R12,2*%
%TO.N,VCC*%
X155000016Y-97337500D03*
%TD*%
D12*
%TO.P,U6,1,A*%
%TO.N,Net-(U6-A)*%
X152620016Y-94610000D03*
%TO.P,U6,2,K*%
%TO.N,GND*%
X152620016Y-98610000D03*
%TO.P,U6,3*%
%TO.N,Sen6Out*%
X150820016Y-98610000D03*
%TO.P,U6,4*%
%TO.N,GND*%
X150820016Y-94610000D03*
%TD*%
D11*
%TO.P,R9,1*%
%TO.N,VCC*%
X142250000Y-95662500D03*
%TO.P,R9,2*%
%TO.N,Net-(U5-A)*%
X142250000Y-93837500D03*
%TD*%
D12*
%TO.P,U7,1,A*%
%TO.N,Net-(U7-A)*%
X165650000Y-95950000D03*
%TO.P,U7,2,K*%
%TO.N,GND*%
X165650000Y-99950000D03*
%TO.P,U7,3*%
%TO.N,Sen7Out*%
X163850000Y-99950000D03*
%TO.P,U7,4*%
%TO.N,GND*%
X163850000Y-95950000D03*
%TD*%
D11*
%TO.P,R7,1*%
%TO.N,VCC*%
X130000016Y-95662500D03*
%TO.P,R7,2*%
%TO.N,Net-(U4-A)*%
X130000016Y-93837500D03*
%TD*%
%TO.P,R14,1*%
%TO.N,Sen7Out*%
X168000016Y-100912500D03*
%TO.P,R14,2*%
%TO.N,VCC*%
X168000016Y-99087500D03*
%TD*%
D12*
%TO.P,U1,1,A*%
%TO.N,Net-(U1-A)*%
X87650000Y-104750000D03*
%TO.P,U1,2,K*%
%TO.N,GND*%
X87650000Y-108750000D03*
%TO.P,U1,3*%
%TO.N,Sen1Out*%
X85850000Y-108750000D03*
%TO.P,U1,4*%
%TO.N,GND*%
X85850000Y-104750000D03*
%TD*%
%TO.P,U5,1,A*%
%TO.N,Net-(U5-A)*%
X139650000Y-94500000D03*
%TO.P,U5,2,K*%
%TO.N,GND*%
X139650000Y-98500000D03*
%TO.P,U5,3*%
%TO.N,Sen5Out*%
X137850000Y-98500000D03*
%TO.P,U5,4*%
%TO.N,GND*%
X137850000Y-94500000D03*
%TD*%
D11*
%TO.P,R18,1*%
%TO.N,Sen9Out*%
X186500000Y-107662500D03*
%TO.P,R18,2*%
%TO.N,VCC*%
X186500000Y-105837500D03*
%TD*%
%TO.P,R15,1*%
%TO.N,VCC*%
X181250000Y-101662500D03*
%TO.P,R15,2*%
%TO.N,Net-(U8-A)*%
X181250000Y-99837500D03*
%TD*%
%TO.P,R3,1*%
%TO.N,VCC*%
X95750000Y-101912500D03*
%TO.P,R3,2*%
%TO.N,Net-(U2-A)*%
X95750000Y-100087500D03*
%TD*%
%TO.P,R13,1*%
%TO.N,VCC*%
X168000016Y-97412500D03*
%TO.P,R13,2*%
%TO.N,Net-(U7-A)*%
X168000016Y-95587500D03*
%TD*%
%TO.P,R11,1*%
%TO.N,VCC*%
X155000000Y-95662500D03*
%TO.P,R11,2*%
%TO.N,Net-(U6-A)*%
X155000000Y-93837500D03*
%TD*%
%TO.P,R16,1*%
%TO.N,Sen8Out*%
X181250000Y-105162500D03*
%TO.P,R16,2*%
%TO.N,VCC*%
X181250000Y-103337500D03*
%TD*%
D12*
%TO.P,U8,1,A*%
%TO.N,Net-(U8-A)*%
X178650000Y-99250000D03*
%TO.P,U8,2,K*%
%TO.N,GND*%
X178650000Y-103250000D03*
%TO.P,U8,3*%
%TO.N,Sen8Out*%
X176850000Y-103250000D03*
%TO.P,U8,4*%
%TO.N,GND*%
X176850000Y-99250000D03*
%TD*%
%TO.P,U9,1,A*%
%TO.N,Net-(U9-A)*%
X191650000Y-104750000D03*
%TO.P,U9,2,K*%
%TO.N,GND*%
X191650000Y-108750000D03*
%TO.P,U9,3*%
%TO.N,Sen9Out*%
X189850000Y-108750000D03*
%TO.P,U9,4*%
%TO.N,GND*%
X189850000Y-104750000D03*
%TD*%
D11*
%TO.P,R4,1*%
%TO.N,Sen2Out*%
X95750016Y-105412500D03*
%TO.P,R4,2*%
%TO.N,VCC*%
X95750016Y-103587500D03*
%TD*%
D13*
%TO.N,GND*%
X150820016Y-94610000D03*
X139650000Y-98500000D03*
X87650000Y-108750000D03*
X100650000Y-103250000D03*
X98850000Y-99250000D03*
%TO.N,Sen1Out*%
X89000000Y-107250000D03*
%TO.N,Sen5Out*%
X120708627Y-101000000D03*
%TO.N,Sen4Out*%
X119246584Y-101218804D03*
%TO.N,Sen3Out*%
X114209745Y-98720669D03*
%TO.N,Sen2Out*%
X98850000Y-103250000D03*
%TO.N,VCC*%
X164750000Y-94124984D03*
%TO.N,Sen6Out*%
X151500000Y-97500000D03*
%TO.N,Sen7Out*%
X160500000Y-97500000D03*
%TO.N,Sen8Out*%
X176850000Y-103250000D03*
%TO.N,Sen9Out*%
X186500000Y-107662500D03*
%TD*%
D14*
%TO.N,GND*%
X139650000Y-98500000D02*
X139450000Y-98300000D01*
X137850000Y-96700000D02*
X139650000Y-98500000D01*
X137850000Y-94500000D02*
X137850000Y-96700000D01*
X87650000Y-106550000D02*
X85850000Y-104750000D01*
X87650000Y-108750000D02*
X87650000Y-106550000D01*
D15*
%TO.N,Sen1Out*%
X85850000Y-109350000D02*
X85850000Y-108750000D01*
X86750000Y-110250000D02*
X85850000Y-109350000D01*
X88250000Y-110250000D02*
X86750000Y-110250000D01*
X89000000Y-109500000D02*
X88250000Y-110250000D01*
X89000000Y-107250000D02*
X89000000Y-109500000D01*
X89000000Y-107250000D02*
X89675016Y-107250000D01*
X89675016Y-107250000D02*
X91000016Y-108575000D01*
%TO.N,Sen2Out*%
X96687500Y-105412500D02*
X95750016Y-105412500D01*
X98850000Y-103250000D02*
X96687500Y-105412500D01*
%TO.N,Sen3Out*%
X115587500Y-100162500D02*
X116750016Y-100162500D01*
X114500000Y-101250000D02*
X115587500Y-100162500D01*
X112500000Y-101250000D02*
X114500000Y-101250000D01*
X111850000Y-100600000D02*
X112500000Y-101250000D01*
X111850000Y-99950000D02*
X111850000Y-100600000D01*
%TO.N,Sen4Out*%
X123950000Y-99500000D02*
X124850000Y-98600000D01*
X119246584Y-101218804D02*
X119469235Y-101218804D01*
X121188039Y-99500000D02*
X123950000Y-99500000D01*
X119469235Y-101218804D02*
X121188039Y-99500000D01*
%TO.N,Sen5Out*%
X135475023Y-100874977D02*
X137850000Y-98500000D01*
X121624977Y-100874977D02*
X135475023Y-100874977D01*
X121499954Y-101000000D02*
X121624977Y-100874977D01*
X120708627Y-101000000D02*
X121499954Y-101000000D01*
X137850000Y-98500000D02*
X137850000Y-99350000D01*
X141750016Y-99750000D02*
X142250016Y-99250000D01*
X138250000Y-99750000D02*
X141750016Y-99750000D01*
X137850000Y-99350000D02*
X138250000Y-99750000D01*
%TO.N,Sen4Out*%
X124850000Y-99600000D02*
X125250000Y-100000000D01*
X129162516Y-100000000D02*
X130000016Y-99162500D01*
X124850000Y-98600000D02*
X124850000Y-99600000D01*
X125250000Y-100000000D02*
X129162516Y-100000000D01*
%TO.N,Sen3Out*%
X114209745Y-98720669D02*
X113079331Y-98720669D01*
X113079331Y-98720669D02*
X111850000Y-99950000D01*
D16*
%TO.N,VCC*%
X186500000Y-104162500D02*
X186500000Y-105837500D01*
X155000000Y-95662500D02*
X156087500Y-95662500D01*
X169916062Y-94624000D02*
X170000000Y-94707938D01*
X91000016Y-106750000D02*
X91000016Y-105162516D01*
X156873292Y-94000000D02*
X155623292Y-92750000D01*
X130000016Y-97337500D02*
X130000016Y-95662500D01*
X156873292Y-94876708D02*
X156873292Y-94000000D01*
X156087500Y-95662500D02*
X156873292Y-94876708D01*
X164750000Y-94124984D02*
X164625016Y-94000000D01*
X184000000Y-101662500D02*
X186500000Y-104162500D01*
X95750000Y-101912500D02*
X94285792Y-101912500D01*
X165374000Y-94624000D02*
X169916062Y-94624000D01*
X146500000Y-92750000D02*
X133500000Y-92750000D01*
X184000000Y-99750000D02*
X184000000Y-101662500D01*
X92587500Y-105162500D02*
X91000000Y-105162500D01*
X155623292Y-92750000D02*
X146500000Y-92750000D01*
X93250000Y-104500000D02*
X92587500Y-105162500D01*
X96775817Y-97750000D02*
X96140113Y-97986595D01*
X164625016Y-94000000D02*
X156873292Y-94000000D01*
X116750000Y-96662500D02*
X116750000Y-98337484D01*
X117957736Y-92874000D02*
X116957736Y-93874000D01*
X107500000Y-97750000D02*
X96775817Y-97750000D01*
X142250000Y-97424984D02*
X142250016Y-97425000D01*
X173000000Y-97750000D02*
X180724181Y-97750000D01*
X118996901Y-92750000D02*
X117957736Y-92874000D01*
X130587500Y-95662500D02*
X133500000Y-92750000D01*
X93250000Y-100876708D02*
X93250000Y-104500000D01*
X155000016Y-97337500D02*
X155000016Y-95662516D01*
X164874984Y-94124984D02*
X165374000Y-94624000D01*
X181250000Y-103337500D02*
X181250000Y-101662500D01*
X181250000Y-101662500D02*
X181337500Y-101750000D01*
X170000000Y-94707938D02*
X170000000Y-94750000D01*
X155000016Y-95662516D02*
X155000000Y-95662500D01*
X183912500Y-101750000D02*
X184000000Y-101662500D01*
X180724181Y-97750000D02*
X182756317Y-98506317D01*
X116957736Y-93874000D02*
X111376000Y-93874000D01*
X118996901Y-95003099D02*
X118996901Y-92750000D01*
X142250000Y-95662500D02*
X143587500Y-95662500D01*
X182756317Y-98506317D02*
X184000000Y-99750000D01*
X116750000Y-98337484D02*
X116750016Y-98337500D01*
X95750016Y-101912516D02*
X95750000Y-101912500D01*
X96140113Y-97986595D02*
X93250000Y-100876708D01*
X130000016Y-95662500D02*
X130587500Y-95662500D01*
X94285792Y-101912500D02*
X93250000Y-100876708D01*
X143587500Y-95662500D02*
X146500000Y-92750000D01*
X133500000Y-92750000D02*
X118996901Y-92750000D01*
X181337500Y-101750000D02*
X183912500Y-101750000D01*
X111376000Y-93874000D02*
X107500000Y-97750000D01*
X170087500Y-97412500D02*
X171375000Y-96125000D01*
X116750000Y-96662500D02*
X117337500Y-96662500D01*
X91000016Y-105162516D02*
X91000000Y-105162500D01*
X170000000Y-94750000D02*
X171375000Y-96125000D01*
X142250000Y-95662500D02*
X142250000Y-97424984D01*
X168000016Y-99087500D02*
X168000016Y-97412500D01*
X164750000Y-94124984D02*
X164874984Y-94124984D01*
X117337500Y-96662500D02*
X118996901Y-95003099D01*
X171375000Y-96125000D02*
X173000000Y-97750000D01*
X95750016Y-103587500D02*
X95750016Y-101912516D01*
X168000016Y-97412500D02*
X170087500Y-97412500D01*
%TO.N,Net-(U3-A)*%
X113650000Y-95950000D02*
X113650000Y-95850000D01*
X116587500Y-95000000D02*
X116750000Y-94837500D01*
X114600000Y-95000000D02*
X116587500Y-95000000D01*
X113650000Y-95950000D02*
X114600000Y-95000000D01*
D15*
%TO.N,Sen6Out*%
X153500000Y-100000000D02*
X154337500Y-99162500D01*
X150820016Y-99320016D02*
X151500000Y-100000000D01*
X150820016Y-98179984D02*
X150820016Y-99320016D01*
X154337500Y-99162500D02*
X155000016Y-99162500D01*
X151500000Y-100000000D02*
X153500000Y-100000000D01*
X151500000Y-97500000D02*
X150820016Y-98179984D01*
%TO.N,Sen7Out*%
X164250000Y-101250000D02*
X167000000Y-101250000D01*
X163850000Y-100850000D02*
X164250000Y-101250000D01*
X167337500Y-100912500D02*
X168000016Y-100912500D01*
X163850000Y-99950000D02*
X161400000Y-97500000D01*
X167000000Y-101250000D02*
X167337500Y-100912500D01*
X161400000Y-97500000D02*
X160500000Y-97500000D01*
X163850000Y-99950000D02*
X163850000Y-100850000D01*
%TO.N,Sen8Out*%
X178162500Y-105162500D02*
X181250000Y-105162500D01*
X176850000Y-103250000D02*
X176850000Y-103850000D01*
X176850000Y-103850000D02*
X178162500Y-105162500D01*
%TO.N,Sen9Out*%
X188762500Y-107662500D02*
X189850000Y-108750000D01*
X186500000Y-107662500D02*
X188762500Y-107662500D01*
%TO.N,Net-(U8-A)*%
X179237500Y-99837500D02*
X181250000Y-99837500D01*
X178650000Y-99250000D02*
X179237500Y-99837500D01*
%TO.N,Net-(U6-A)*%
X152620016Y-94610000D02*
X153392516Y-93837500D01*
X153392516Y-93837500D02*
X155000000Y-93837500D01*
%TO.N,Net-(U7-A)*%
X165650000Y-95950000D02*
X166012500Y-95587500D01*
X166012500Y-95587500D02*
X168000016Y-95587500D01*
%TO.N,Net-(U5-A)*%
X140312500Y-93837500D02*
X142250000Y-93837500D01*
X139650000Y-94500000D02*
X140312500Y-93837500D01*
%TO.N,Net-(U4-A)*%
X126650000Y-94600000D02*
X127412500Y-93837500D01*
X127412500Y-93837500D02*
X130000016Y-93837500D01*
%TO.N,Net-(U9-A)*%
X186500000Y-102337500D02*
X189237500Y-102337500D01*
X189237500Y-102337500D02*
X191650000Y-104750000D01*
%TO.N,Net-(U1-A)*%
X87650000Y-104750000D02*
X89062500Y-103337500D01*
X89062500Y-103337500D02*
X91000000Y-103337500D01*
%TO.N,Net-(U2-A)*%
X100250000Y-100500000D02*
X100650000Y-100100000D01*
X96337500Y-100087500D02*
X96750000Y-100500000D01*
X96750000Y-100500000D02*
X100250000Y-100500000D01*
X95750000Y-100087500D02*
X96337500Y-100087500D01*
X100650000Y-100100000D02*
X100650000Y-99250000D01*
%TD*%
%TA.AperFunction,Conductor*%
%TO.N,GND*%
G36*
X184597358Y-98949070D02*
G01*
X185768518Y-99424995D01*
X185770629Y-99425877D01*
X187514422Y-100175051D01*
X187516574Y-100176002D01*
X189208064Y-100942712D01*
X189245053Y-100959478D01*
X189247266Y-100960507D01*
X190948534Y-101772617D01*
X190959907Y-101778046D01*
X190962104Y-101779121D01*
X191403189Y-102000500D01*
X192658223Y-102630395D01*
X192660406Y-102631518D01*
X194339296Y-103516171D01*
X194341456Y-103517336D01*
X195455915Y-104133060D01*
X195505075Y-104182710D01*
X195519589Y-104251055D01*
X195503888Y-104302633D01*
X192776938Y-109125029D01*
X192726804Y-109173696D01*
X192658318Y-109187532D01*
X192593224Y-109162146D01*
X192552188Y-109105597D01*
X192545000Y-109063993D01*
X192545000Y-109000000D01*
X191900000Y-109000000D01*
X191900000Y-110080000D01*
X191903873Y-110080000D01*
X191974147Y-110073614D01*
X191998545Y-110066011D01*
X192068406Y-110064859D01*
X192127799Y-110101658D01*
X192157868Y-110164727D01*
X192149067Y-110234040D01*
X192143376Y-110245432D01*
X191199443Y-111914704D01*
X191149309Y-111963371D01*
X191080823Y-111977207D01*
X191030468Y-111961605D01*
X190794566Y-111828205D01*
X189217713Y-110978884D01*
X188992459Y-110863476D01*
X187876188Y-110291558D01*
X187623654Y-110162173D01*
X186013199Y-109378486D01*
X184386933Y-108628106D01*
X182745522Y-107911342D01*
X181089780Y-107228548D01*
X179420277Y-106579959D01*
X177737765Y-105965869D01*
X176043028Y-105386564D01*
X174763186Y-104978304D01*
X174705299Y-104939177D01*
X174677756Y-104874965D01*
X174689300Y-104806056D01*
X174736267Y-104754327D01*
X174742417Y-104750811D01*
X174974309Y-104626862D01*
X174974327Y-104626851D01*
X175248004Y-104443986D01*
X175436081Y-104289635D01*
X175436082Y-104289634D01*
X174190698Y-103044251D01*
X174292330Y-102970412D01*
X174470412Y-102792330D01*
X174544251Y-102690698D01*
X175789633Y-103936081D01*
X175839950Y-103933610D01*
X175907875Y-103949982D01*
X175956166Y-104000477D01*
X175964420Y-104020570D01*
X176011317Y-104171068D01*
X176011319Y-104171073D01*
X176099007Y-104316128D01*
X176099010Y-104316132D01*
X176218867Y-104435989D01*
X176218871Y-104435992D01*
X176357317Y-104519685D01*
X176363928Y-104523681D01*
X176525758Y-104574110D01*
X176596079Y-104580500D01*
X176644546Y-104580499D01*
X176711584Y-104600182D01*
X176732228Y-104616818D01*
X177673516Y-105558106D01*
X177673545Y-105558137D01*
X177763763Y-105648355D01*
X177763767Y-105648358D01*
X177866207Y-105716807D01*
X177866213Y-105716810D01*
X177866214Y-105716811D01*
X177980048Y-105763963D01*
X178040471Y-105775981D01*
X178100893Y-105788000D01*
X178100894Y-105788000D01*
X180072912Y-105788000D01*
X180139951Y-105807685D01*
X180178449Y-105846901D01*
X180207288Y-105893656D01*
X180331344Y-106017712D01*
X180480666Y-106109814D01*
X180647203Y-106164999D01*
X180749991Y-106175500D01*
X181750008Y-106175499D01*
X181750016Y-106175498D01*
X181750019Y-106175498D01*
X181821862Y-106168159D01*
X181852797Y-106164999D01*
X182019334Y-106109814D01*
X182168656Y-106017712D01*
X182292712Y-105893656D01*
X182384814Y-105744334D01*
X182439999Y-105577797D01*
X182450500Y-105475009D01*
X182450499Y-104849992D01*
X182439999Y-104747203D01*
X182384814Y-104580666D01*
X182292712Y-104431344D01*
X182199049Y-104337681D01*
X182165564Y-104276358D01*
X182170548Y-104206666D01*
X182199049Y-104162319D01*
X182228308Y-104133060D01*
X182292712Y-104068656D01*
X182384814Y-103919334D01*
X182439999Y-103752797D01*
X182450500Y-103650009D01*
X182450499Y-103024992D01*
X182447876Y-102999319D01*
X182439999Y-102922203D01*
X182439998Y-102922200D01*
X182411988Y-102837673D01*
X182384814Y-102755666D01*
X182344061Y-102689595D01*
X182325622Y-102622204D01*
X182346545Y-102555541D01*
X182400187Y-102510771D01*
X182449601Y-102500500D01*
X183725270Y-102500500D01*
X183792309Y-102520185D01*
X183812951Y-102536819D01*
X185263181Y-103987049D01*
X185296666Y-104048372D01*
X185299500Y-104074730D01*
X185299500Y-104475001D01*
X185299501Y-104475019D01*
X185310000Y-104577796D01*
X185310001Y-104577799D01*
X185365185Y-104744331D01*
X185365187Y-104744336D01*
X185393632Y-104790452D01*
X185445759Y-104874965D01*
X185457289Y-104893657D01*
X185475951Y-104912319D01*
X185509436Y-104973642D01*
X185504452Y-105043334D01*
X185475951Y-105087681D01*
X185457289Y-105106342D01*
X185365187Y-105255663D01*
X185365186Y-105255666D01*
X185310001Y-105422203D01*
X185310001Y-105422204D01*
X185310000Y-105422204D01*
X185299500Y-105524983D01*
X185299500Y-106150001D01*
X185299501Y-106150019D01*
X185310000Y-106252796D01*
X185310001Y-106252799D01*
X185365185Y-106419331D01*
X185365187Y-106419336D01*
X185383792Y-106449500D01*
X185439984Y-106540602D01*
X185457289Y-106568657D01*
X185550951Y-106662319D01*
X185584436Y-106723642D01*
X185579452Y-106793334D01*
X185550951Y-106837681D01*
X185457289Y-106931342D01*
X185365187Y-107080663D01*
X185365186Y-107080666D01*
X185310001Y-107247203D01*
X185310001Y-107247204D01*
X185310000Y-107247204D01*
X185299500Y-107349983D01*
X185299500Y-107975001D01*
X185299501Y-107975019D01*
X185310000Y-108077796D01*
X185310001Y-108077799D01*
X185365185Y-108244331D01*
X185365187Y-108244336D01*
X185392119Y-108288000D01*
X185457288Y-108393656D01*
X185581344Y-108517712D01*
X185730666Y-108609814D01*
X185897203Y-108664999D01*
X185999991Y-108675500D01*
X187000008Y-108675499D01*
X187000016Y-108675498D01*
X187000019Y-108675498D01*
X187056302Y-108669748D01*
X187102797Y-108664999D01*
X187269334Y-108609814D01*
X187418656Y-108517712D01*
X187542712Y-108393656D01*
X187571549Y-108346902D01*
X187623497Y-108300179D01*
X187677088Y-108288000D01*
X188452048Y-108288000D01*
X188519087Y-108307685D01*
X188539729Y-108324319D01*
X188918181Y-108702771D01*
X188951666Y-108764094D01*
X188954500Y-108790452D01*
X188954500Y-109438928D01*
X188960888Y-109509235D01*
X188960890Y-109509242D01*
X189011316Y-109671065D01*
X189011319Y-109671073D01*
X189099007Y-109816128D01*
X189099010Y-109816132D01*
X189218867Y-109935989D01*
X189218871Y-109935992D01*
X189313060Y-109992931D01*
X189363928Y-110023681D01*
X189525758Y-110074110D01*
X189596079Y-110080500D01*
X190103920Y-110080499D01*
X190103927Y-110080499D01*
X190174235Y-110074111D01*
X190174236Y-110074110D01*
X190174242Y-110074110D01*
X190336072Y-110023681D01*
X190481132Y-109935990D01*
X190600990Y-109816132D01*
X190644177Y-109744691D01*
X190695702Y-109697506D01*
X190764561Y-109685667D01*
X190828890Y-109712935D01*
X190856409Y-109744694D01*
X190899404Y-109815819D01*
X191019177Y-109935592D01*
X191019181Y-109935595D01*
X191164133Y-110023221D01*
X191164137Y-110023223D01*
X191325848Y-110073613D01*
X191325846Y-110073613D01*
X191396127Y-110080000D01*
X191400000Y-110080000D01*
X191400000Y-108500000D01*
X191900000Y-108500000D01*
X192545000Y-108500000D01*
X192545000Y-108061126D01*
X192538613Y-107990847D01*
X192488223Y-107829137D01*
X192488221Y-107829133D01*
X192400595Y-107684181D01*
X192400592Y-107684177D01*
X192280822Y-107564407D01*
X192280818Y-107564404D01*
X192135866Y-107476778D01*
X192135862Y-107476776D01*
X191974151Y-107426386D01*
X191974153Y-107426386D01*
X191903873Y-107420000D01*
X191900000Y-107420000D01*
X191900000Y-108500000D01*
X191400000Y-108500000D01*
X191400000Y-107420000D01*
X191396127Y-107420000D01*
X191325847Y-107426386D01*
X191164137Y-107476776D01*
X191164133Y-107476778D01*
X191019181Y-107564404D01*
X191019177Y-107564407D01*
X190899407Y-107684177D01*
X190856409Y-107755306D01*
X190804881Y-107802493D01*
X190736022Y-107814332D01*
X190671693Y-107787063D01*
X190644175Y-107755305D01*
X190600992Y-107683871D01*
X190600989Y-107683867D01*
X190481132Y-107564010D01*
X190481128Y-107564007D01*
X190336073Y-107476319D01*
X190336068Y-107476317D01*
X190174246Y-107425891D01*
X190174238Y-107425889D01*
X190125003Y-107421415D01*
X190103921Y-107419500D01*
X190103918Y-107419500D01*
X189596071Y-107419500D01*
X189525764Y-107425888D01*
X189525761Y-107425889D01*
X189509429Y-107430978D01*
X189494952Y-107431215D01*
X189481389Y-107436275D01*
X189460718Y-107431778D01*
X189439568Y-107432126D01*
X189426000Y-107424225D01*
X189413116Y-107421423D01*
X189384862Y-107400272D01*
X189252698Y-107268108D01*
X189252678Y-107268086D01*
X189161233Y-107176641D01*
X189116256Y-107146589D01*
X189116255Y-107146588D01*
X189110009Y-107142415D01*
X189058786Y-107108188D01*
X188960673Y-107067549D01*
X188956359Y-107065762D01*
X188956353Y-107065759D01*
X188944953Y-107061037D01*
X188934927Y-107059043D01*
X188884529Y-107049018D01*
X188824110Y-107037000D01*
X188824107Y-107037000D01*
X188824106Y-107037000D01*
X187677088Y-107037000D01*
X187610049Y-107017315D01*
X187583124Y-106993912D01*
X187576709Y-106986462D01*
X187542712Y-106931344D01*
X187445778Y-106834410D01*
X187442766Y-106830912D01*
X187430180Y-106803126D01*
X187415564Y-106776358D01*
X187415903Y-106771606D01*
X187413938Y-106767266D01*
X187418372Y-106737090D01*
X187420548Y-106706666D01*
X187423523Y-106702036D01*
X187424096Y-106698139D01*
X187431444Y-106689711D01*
X187449049Y-106662319D01*
X187495787Y-106615581D01*
X187542712Y-106568656D01*
X187634814Y-106419334D01*
X187689999Y-106252797D01*
X187700500Y-106150009D01*
X187700499Y-105524992D01*
X187691702Y-105438873D01*
X188955000Y-105438873D01*
X188961386Y-105509152D01*
X189011776Y-105670862D01*
X189011778Y-105670866D01*
X189099404Y-105815818D01*
X189099407Y-105815822D01*
X189219177Y-105935592D01*
X189219181Y-105935595D01*
X189364133Y-106023221D01*
X189364137Y-106023223D01*
X189525848Y-106073613D01*
X189525846Y-106073613D01*
X189596127Y-106080000D01*
X189600000Y-106080000D01*
X189600000Y-105000000D01*
X188955000Y-105000000D01*
X188955000Y-105438873D01*
X187691702Y-105438873D01*
X187689999Y-105422203D01*
X187634814Y-105255666D01*
X187542712Y-105106344D01*
X187524049Y-105087681D01*
X187522461Y-105084774D01*
X187519639Y-105083038D01*
X187505831Y-105054317D01*
X187490564Y-105026358D01*
X187490800Y-105023053D01*
X187489365Y-105020068D01*
X187493275Y-104988449D01*
X187495548Y-104956666D01*
X187497654Y-104953034D01*
X187497940Y-104950726D01*
X187505122Y-104940159D01*
X187516432Y-104920664D01*
X187520049Y-104916318D01*
X187542712Y-104893656D01*
X187634814Y-104744334D01*
X187689999Y-104577797D01*
X187700500Y-104475009D01*
X187700499Y-103849992D01*
X187697058Y-103816311D01*
X187689999Y-103747203D01*
X187689998Y-103747200D01*
X187675755Y-103704219D01*
X187634814Y-103580666D01*
X187542712Y-103431344D01*
X187449049Y-103337681D01*
X187446954Y-103333845D01*
X187443269Y-103331493D01*
X187430354Y-103303445D01*
X187415564Y-103276358D01*
X187415875Y-103271998D01*
X187414047Y-103268027D01*
X187418346Y-103237451D01*
X187420548Y-103206666D01*
X187423339Y-103201945D01*
X187423776Y-103198838D01*
X187433389Y-103184946D01*
X187442766Y-103169088D01*
X187445778Y-103165589D01*
X187542712Y-103068656D01*
X187576709Y-103013537D01*
X187583124Y-103006088D01*
X187604534Y-102992234D01*
X187623497Y-102975179D01*
X187634898Y-102972587D01*
X187641785Y-102968132D01*
X187654682Y-102968091D01*
X187677088Y-102963000D01*
X188927048Y-102963000D01*
X188994087Y-102982685D01*
X189014729Y-102999319D01*
X189332025Y-103316615D01*
X189365510Y-103377938D01*
X189360526Y-103447630D01*
X189318654Y-103503563D01*
X189308495Y-103510412D01*
X189219180Y-103564405D01*
X189219177Y-103564407D01*
X189099407Y-103684177D01*
X189099404Y-103684181D01*
X189011778Y-103829133D01*
X189011776Y-103829137D01*
X188961386Y-103990847D01*
X188955000Y-104061126D01*
X188955000Y-104500000D01*
X189726000Y-104500000D01*
X189793039Y-104519685D01*
X189838794Y-104572489D01*
X189850000Y-104624000D01*
X189850000Y-104750000D01*
X189976000Y-104750000D01*
X190043039Y-104769685D01*
X190088794Y-104822489D01*
X190100000Y-104874000D01*
X190100000Y-106080000D01*
X190103873Y-106080000D01*
X190174152Y-106073613D01*
X190335862Y-106023223D01*
X190335866Y-106023221D01*
X190480818Y-105935595D01*
X190480822Y-105935592D01*
X190600593Y-105815821D01*
X190643589Y-105744695D01*
X190695116Y-105697506D01*
X190763975Y-105685667D01*
X190828304Y-105712934D01*
X190855824Y-105744693D01*
X190899010Y-105816132D01*
X191018867Y-105935989D01*
X191018871Y-105935992D01*
X191155926Y-106018844D01*
X191163928Y-106023681D01*
X191325758Y-106074110D01*
X191396079Y-106080500D01*
X191903920Y-106080499D01*
X191903927Y-106080499D01*
X191974235Y-106074111D01*
X191974236Y-106074110D01*
X191974242Y-106074110D01*
X192136072Y-106023681D01*
X192281132Y-105935990D01*
X192400990Y-105816132D01*
X192488681Y-105671072D01*
X192539110Y-105509242D01*
X192545500Y-105438921D01*
X192545499Y-104061080D01*
X192545499Y-104061079D01*
X192545499Y-104061071D01*
X192539111Y-103990764D01*
X192539110Y-103990761D01*
X192539110Y-103990758D01*
X192488681Y-103828928D01*
X192479857Y-103814332D01*
X192400992Y-103683871D01*
X192400989Y-103683867D01*
X192281132Y-103564010D01*
X192281128Y-103564007D01*
X192136073Y-103476319D01*
X192136068Y-103476317D01*
X191974246Y-103425891D01*
X191974238Y-103425889D01*
X191925003Y-103421415D01*
X191903921Y-103419500D01*
X191903918Y-103419500D01*
X191396071Y-103419500D01*
X191325764Y-103425888D01*
X191325761Y-103425889D01*
X191309429Y-103430978D01*
X191239568Y-103432126D01*
X191184862Y-103400272D01*
X189731214Y-101946624D01*
X189723360Y-101938770D01*
X189723358Y-101938767D01*
X189636233Y-101851642D01*
X189565399Y-101804312D01*
X189559384Y-101800292D01*
X189559382Y-101800291D01*
X189533788Y-101783189D01*
X189533786Y-101783188D01*
X189508274Y-101772621D01*
X189453292Y-101749847D01*
X189419952Y-101736037D01*
X189359529Y-101724018D01*
X189354806Y-101723078D01*
X189354804Y-101723078D01*
X189299110Y-101712000D01*
X189299107Y-101712000D01*
X189299106Y-101712000D01*
X187677088Y-101712000D01*
X187610049Y-101692315D01*
X187571549Y-101653097D01*
X187542712Y-101606344D01*
X187418656Y-101482288D01*
X187269334Y-101390186D01*
X187102797Y-101335001D01*
X187102795Y-101335000D01*
X187000010Y-101324500D01*
X185999998Y-101324500D01*
X185999980Y-101324501D01*
X185897203Y-101335000D01*
X185897200Y-101335001D01*
X185730668Y-101390185D01*
X185730663Y-101390187D01*
X185581342Y-101482289D01*
X185457288Y-101606343D01*
X185457285Y-101606347D01*
X185367150Y-101752479D01*
X185315202Y-101799204D01*
X185246240Y-101810425D01*
X185182158Y-101782582D01*
X185173931Y-101775063D01*
X184786819Y-101387951D01*
X184753334Y-101326628D01*
X184750500Y-101300270D01*
X184750500Y-99676079D01*
X184721659Y-99531092D01*
X184721658Y-99531091D01*
X184721658Y-99531087D01*
X184709939Y-99502795D01*
X184665087Y-99394511D01*
X184665080Y-99394498D01*
X184582952Y-99271585D01*
X184535009Y-99223642D01*
X184478416Y-99167049D01*
X184462995Y-99151628D01*
X184429511Y-99090306D01*
X184434495Y-99020614D01*
X184476367Y-98964681D01*
X184541831Y-98940264D01*
X184597358Y-98949070D01*
G37*
%TD.AperFunction*%
%TA.AperFunction,Conductor*%
G36*
X94480021Y-98408343D02*
G01*
X94514068Y-98469356D01*
X94509724Y-98539091D01*
X94480830Y-98584508D01*
X92771584Y-100293756D01*
X92667048Y-100398291D01*
X92652987Y-100419336D01*
X92618028Y-100471658D01*
X92584914Y-100521215D01*
X92584913Y-100521217D01*
X92528343Y-100657790D01*
X92528340Y-100657800D01*
X92499500Y-100802787D01*
X92499500Y-104137770D01*
X92479815Y-104204809D01*
X92463181Y-104225451D01*
X92312951Y-104375681D01*
X92286023Y-104390384D01*
X92260205Y-104406977D01*
X92254004Y-104407868D01*
X92251628Y-104409166D01*
X92225270Y-104412000D01*
X92074730Y-104412000D01*
X92007691Y-104392315D01*
X91987049Y-104375681D01*
X91949049Y-104337681D01*
X91915564Y-104276358D01*
X91920548Y-104206666D01*
X91949049Y-104162319D01*
X91978308Y-104133060D01*
X92042712Y-104068656D01*
X92134814Y-103919334D01*
X92189999Y-103752797D01*
X92200500Y-103650009D01*
X92200499Y-103024992D01*
X92197876Y-102999319D01*
X92189999Y-102922203D01*
X92189998Y-102922200D01*
X92161988Y-102837673D01*
X92134814Y-102755666D01*
X92042712Y-102606344D01*
X91918656Y-102482288D01*
X91805218Y-102412319D01*
X91769336Y-102390187D01*
X91769331Y-102390185D01*
X91767862Y-102389698D01*
X91602797Y-102335001D01*
X91602795Y-102335000D01*
X91500010Y-102324500D01*
X90499998Y-102324500D01*
X90499980Y-102324501D01*
X90397203Y-102335000D01*
X90397200Y-102335001D01*
X90230668Y-102390185D01*
X90230663Y-102390187D01*
X90081342Y-102482289D01*
X89957289Y-102606342D01*
X89957288Y-102606344D01*
X89930095Y-102650432D01*
X89928451Y-102653097D01*
X89876503Y-102699821D01*
X89822912Y-102712000D01*
X89130241Y-102712000D01*
X89130221Y-102711999D01*
X89124107Y-102711999D01*
X89000894Y-102711999D01*
X88900097Y-102732048D01*
X88900092Y-102732048D01*
X88880048Y-102736036D01*
X88880045Y-102736037D01*
X88859078Y-102744723D01*
X88859075Y-102744724D01*
X88766221Y-102783184D01*
X88766208Y-102783191D01*
X88663767Y-102851641D01*
X88663763Y-102851644D01*
X88115135Y-103400272D01*
X88053812Y-103433757D01*
X87990567Y-103430977D01*
X87974242Y-103425890D01*
X87974240Y-103425889D01*
X87974238Y-103425889D01*
X87925003Y-103421415D01*
X87903921Y-103419500D01*
X87903918Y-103419500D01*
X87396071Y-103419500D01*
X87325764Y-103425888D01*
X87325757Y-103425890D01*
X87163934Y-103476316D01*
X87163926Y-103476319D01*
X87018871Y-103564007D01*
X87018867Y-103564010D01*
X86899010Y-103683867D01*
X86899010Y-103683868D01*
X86855824Y-103755306D01*
X86804296Y-103802494D01*
X86735436Y-103814332D01*
X86671108Y-103787063D01*
X86643589Y-103755305D01*
X86600591Y-103684176D01*
X86480822Y-103564407D01*
X86480818Y-103564404D01*
X86335866Y-103476778D01*
X86335862Y-103476776D01*
X86174151Y-103426386D01*
X86174153Y-103426386D01*
X86103873Y-103420000D01*
X86100000Y-103420000D01*
X86100000Y-106080000D01*
X86103873Y-106080000D01*
X86174152Y-106073613D01*
X86335862Y-106023223D01*
X86335866Y-106023221D01*
X86480818Y-105935595D01*
X86480822Y-105935592D01*
X86600593Y-105815821D01*
X86643589Y-105744695D01*
X86695116Y-105697506D01*
X86763975Y-105685667D01*
X86828304Y-105712934D01*
X86855824Y-105744693D01*
X86899010Y-105816132D01*
X87018867Y-105935989D01*
X87018871Y-105935992D01*
X87155926Y-106018844D01*
X87163928Y-106023681D01*
X87325758Y-106074110D01*
X87396079Y-106080500D01*
X87903920Y-106080499D01*
X87903927Y-106080499D01*
X87974235Y-106074111D01*
X87974236Y-106074110D01*
X87974242Y-106074110D01*
X88136072Y-106023681D01*
X88281132Y-105935990D01*
X88400990Y-105816132D01*
X88488681Y-105671072D01*
X88539110Y-105509242D01*
X88545500Y-105438921D01*
X88545499Y-104790451D01*
X88565183Y-104723413D01*
X88581818Y-104702771D01*
X88741256Y-104543334D01*
X89101880Y-104182710D01*
X89285272Y-103999319D01*
X89346595Y-103965834D01*
X89372953Y-103963000D01*
X89822912Y-103963000D01*
X89889951Y-103982685D01*
X89916876Y-104006088D01*
X89923290Y-104013537D01*
X89957288Y-104068656D01*
X90054221Y-104165589D01*
X90057234Y-104169088D01*
X90069819Y-104196873D01*
X90084436Y-104223642D01*
X90084096Y-104228393D01*
X90086062Y-104232734D01*
X90081627Y-104262909D01*
X90079452Y-104293334D01*
X90076476Y-104297963D01*
X90075904Y-104301861D01*
X90068555Y-104310288D01*
X90050951Y-104337681D01*
X89957289Y-104431342D01*
X89865187Y-104580663D01*
X89865185Y-104580668D01*
X89849882Y-104626851D01*
X89810001Y-104747203D01*
X89810001Y-104747204D01*
X89810000Y-104747204D01*
X89799500Y-104849983D01*
X89799500Y-105475001D01*
X89799501Y-105475019D01*
X89810000Y-105577796D01*
X89810001Y-105577799D01*
X89865185Y-105744331D01*
X89865189Y-105744340D01*
X89955752Y-105891166D01*
X89974192Y-105958558D01*
X89955752Y-106021358D01*
X89865206Y-106168159D01*
X89865201Y-106168168D01*
X89837365Y-106252170D01*
X89810017Y-106334703D01*
X89810017Y-106334704D01*
X89810016Y-106334704D01*
X89799516Y-106437483D01*
X89799516Y-106500500D01*
X89796965Y-106509185D01*
X89798254Y-106518147D01*
X89787275Y-106542187D01*
X89779831Y-106567539D01*
X89772990Y-106573466D01*
X89769229Y-106581703D01*
X89746994Y-106595992D01*
X89727027Y-106613294D01*
X89716512Y-106615581D01*
X89710451Y-106619477D01*
X89675516Y-106624500D01*
X89542350Y-106624500D01*
X89475311Y-106604815D01*
X89473459Y-106603602D01*
X89379184Y-106540609D01*
X89379172Y-106540602D01*
X89233501Y-106480264D01*
X89233489Y-106480261D01*
X89078845Y-106449500D01*
X89078842Y-106449500D01*
X88921158Y-106449500D01*
X88921155Y-106449500D01*
X88766510Y-106480261D01*
X88766498Y-106480264D01*
X88620827Y-106540602D01*
X88620814Y-106540609D01*
X88489711Y-106628210D01*
X88489707Y-106628213D01*
X88378213Y-106739707D01*
X88378210Y-106739711D01*
X88290609Y-106870814D01*
X88290602Y-106870827D01*
X88230264Y-107016498D01*
X88230261Y-107016510D01*
X88199500Y-107171153D01*
X88199500Y-107328086D01*
X88179815Y-107395125D01*
X88127011Y-107440880D01*
X88057853Y-107450824D01*
X88038611Y-107446472D01*
X87974149Y-107426386D01*
X87903873Y-107420000D01*
X87900000Y-107420000D01*
X87900000Y-108626000D01*
X87880315Y-108693039D01*
X87827511Y-108738794D01*
X87776000Y-108750000D01*
X87524000Y-108750000D01*
X87456961Y-108730315D01*
X87411206Y-108677511D01*
X87400000Y-108626000D01*
X87400000Y-107420000D01*
X87396127Y-107420000D01*
X87325847Y-107426386D01*
X87164137Y-107476776D01*
X87164133Y-107476778D01*
X87019181Y-107564404D01*
X87019177Y-107564407D01*
X86899407Y-107684177D01*
X86856409Y-107755306D01*
X86804881Y-107802493D01*
X86736022Y-107814332D01*
X86671693Y-107787063D01*
X86644175Y-107755305D01*
X86600992Y-107683871D01*
X86600989Y-107683867D01*
X86481132Y-107564010D01*
X86481128Y-107564007D01*
X86336073Y-107476319D01*
X86336068Y-107476317D01*
X86174246Y-107425891D01*
X86174238Y-107425889D01*
X86125003Y-107421415D01*
X86103921Y-107419500D01*
X86103918Y-107419500D01*
X85596071Y-107419500D01*
X85525764Y-107425888D01*
X85525757Y-107425890D01*
X85363934Y-107476316D01*
X85363926Y-107476319D01*
X85218871Y-107564007D01*
X85218867Y-107564010D01*
X85099010Y-107683867D01*
X85099007Y-107683871D01*
X85011319Y-107828926D01*
X85011317Y-107828931D01*
X84960891Y-107990753D01*
X84960889Y-107990761D01*
X84954500Y-108061081D01*
X84954500Y-109063114D01*
X84934815Y-109130153D01*
X84882011Y-109175908D01*
X84812853Y-109185852D01*
X84749297Y-109156827D01*
X84722563Y-109124152D01*
X82638625Y-105438873D01*
X84955000Y-105438873D01*
X84961386Y-105509152D01*
X85011776Y-105670862D01*
X85011778Y-105670866D01*
X85099404Y-105815818D01*
X85099407Y-105815822D01*
X85219177Y-105935592D01*
X85219181Y-105935595D01*
X85364133Y-106023221D01*
X85364137Y-106023223D01*
X85525848Y-106073613D01*
X85525846Y-106073613D01*
X85596127Y-106080000D01*
X85600000Y-106080000D01*
X85600000Y-105000000D01*
X84955000Y-105000000D01*
X84955000Y-105438873D01*
X82638625Y-105438873D01*
X81996108Y-104302632D01*
X81980245Y-104234588D01*
X82003687Y-104168769D01*
X82044080Y-104133061D01*
X82174282Y-104061126D01*
X84955000Y-104061126D01*
X84955000Y-104500000D01*
X85600000Y-104500000D01*
X85600000Y-103420000D01*
X85596127Y-103420000D01*
X85525847Y-103426386D01*
X85364137Y-103476776D01*
X85364133Y-103476778D01*
X85219181Y-103564404D01*
X85219177Y-103564407D01*
X85099407Y-103684177D01*
X85099404Y-103684181D01*
X85011778Y-103829133D01*
X85011776Y-103829137D01*
X84961386Y-103990847D01*
X84955000Y-104061126D01*
X82174282Y-104061126D01*
X83158592Y-103517308D01*
X83160650Y-103516198D01*
X84839709Y-102631456D01*
X84841661Y-102630452D01*
X86537933Y-101779102D01*
X86540044Y-101778068D01*
X88252771Y-100960490D01*
X88254894Y-100959502D01*
X89983463Y-100175985D01*
X89985541Y-100175068D01*
X91729405Y-99425863D01*
X91731444Y-99425011D01*
X93489699Y-98710509D01*
X93491881Y-98709647D01*
X94348751Y-98381047D01*
X94418392Y-98375424D01*
X94480021Y-98408343D01*
G37*
%TD.AperFunction*%
%TA.AperFunction,Conductor*%
G36*
X100912172Y-100824930D02*
G01*
X100968105Y-100866802D01*
X100992522Y-100932266D01*
X100990455Y-100965303D01*
X100932261Y-101257860D01*
X100900000Y-101585428D01*
X100900000Y-104580000D01*
X100903873Y-104580000D01*
X100974152Y-104573613D01*
X101135862Y-104523223D01*
X101135866Y-104523221D01*
X101280818Y-104435595D01*
X101280822Y-104435592D01*
X101400592Y-104315822D01*
X101400595Y-104315818D01*
X101488221Y-104170866D01*
X101535062Y-104020545D01*
X101573800Y-103962397D01*
X101637825Y-103934422D01*
X101659534Y-103933583D01*
X101710365Y-103936081D01*
X102955748Y-102690698D01*
X103029588Y-102792330D01*
X103207670Y-102970412D01*
X103309300Y-103044251D01*
X102063917Y-104289633D01*
X102063917Y-104289634D01*
X102252000Y-104443989D01*
X102252004Y-104443992D01*
X102525672Y-104626851D01*
X102525690Y-104626862D01*
X102757573Y-104750806D01*
X102807417Y-104799768D01*
X102822878Y-104867906D01*
X102799046Y-104933585D01*
X102743489Y-104975954D01*
X102736804Y-104978299D01*
X101456968Y-105386557D01*
X99762230Y-105965862D01*
X98079702Y-106579958D01*
X96410231Y-107228534D01*
X94754472Y-107911333D01*
X93113042Y-108628106D01*
X92376466Y-108967971D01*
X92307347Y-108978185D01*
X92243679Y-108949408D01*
X92205675Y-108890778D01*
X92200515Y-108855385D01*
X92200515Y-108262492D01*
X92198660Y-108244336D01*
X92190015Y-108159703D01*
X92190014Y-108159700D01*
X92165285Y-108085074D01*
X92134830Y-107993166D01*
X92042728Y-107843844D01*
X91949065Y-107750181D01*
X91915580Y-107688858D01*
X91920564Y-107619166D01*
X91949065Y-107574819D01*
X91959877Y-107564007D01*
X92042728Y-107481156D01*
X92134830Y-107331834D01*
X92190015Y-107165297D01*
X92200516Y-107062509D01*
X92200515Y-106437492D01*
X92198660Y-106419336D01*
X92190015Y-106334703D01*
X92190014Y-106334700D01*
X92167816Y-106267712D01*
X92134830Y-106168166D01*
X92094077Y-106102095D01*
X92075638Y-106034704D01*
X92096561Y-105968041D01*
X92150203Y-105923271D01*
X92199617Y-105913000D01*
X92661420Y-105913000D01*
X92771182Y-105891166D01*
X92806413Y-105884158D01*
X92942481Y-105827797D01*
X92942993Y-105827585D01*
X92942993Y-105827584D01*
X92942995Y-105827584D01*
X93002237Y-105788000D01*
X93002237Y-105787999D01*
X93002239Y-105787999D01*
X93038215Y-105763961D01*
X93065916Y-105745452D01*
X93832951Y-104978416D01*
X93915084Y-104855495D01*
X93920572Y-104842247D01*
X93927902Y-104824547D01*
X93971658Y-104718913D01*
X93977729Y-104688393D01*
X93990538Y-104624000D01*
X94000500Y-104573920D01*
X94000500Y-102772049D01*
X94020185Y-102705010D01*
X94072989Y-102659255D01*
X94142147Y-102649311D01*
X94148685Y-102650430D01*
X94163578Y-102653393D01*
X94211873Y-102663000D01*
X94211874Y-102663000D01*
X94211875Y-102663000D01*
X94359709Y-102663000D01*
X94604385Y-102663000D01*
X94671424Y-102682685D01*
X94717179Y-102735489D01*
X94727123Y-102804647D01*
X94709924Y-102852096D01*
X94615205Y-103005659D01*
X94615201Y-103005668D01*
X94610617Y-103019502D01*
X94560017Y-103172203D01*
X94560017Y-103172204D01*
X94560016Y-103172204D01*
X94549516Y-103274983D01*
X94549516Y-103900001D01*
X94549517Y-103900019D01*
X94560016Y-104002796D01*
X94560017Y-104002799D01*
X94615201Y-104169331D01*
X94615203Y-104169336D01*
X94637083Y-104204809D01*
X94705747Y-104316132D01*
X94707305Y-104318657D01*
X94800967Y-104412319D01*
X94834452Y-104473642D01*
X94829468Y-104543334D01*
X94800967Y-104587681D01*
X94707305Y-104681342D01*
X94615203Y-104830663D01*
X94615201Y-104830668D01*
X94600523Y-104874965D01*
X94560017Y-104997203D01*
X94560017Y-104997204D01*
X94560016Y-104997204D01*
X94549516Y-105099983D01*
X94549516Y-105725001D01*
X94549517Y-105725019D01*
X94560016Y-105827796D01*
X94560017Y-105827799D01*
X94615201Y-105994331D01*
X94615203Y-105994336D01*
X94640102Y-106034704D01*
X94707304Y-106143656D01*
X94831360Y-106267712D01*
X94980682Y-106359814D01*
X95147219Y-106414999D01*
X95250007Y-106425500D01*
X96250024Y-106425499D01*
X96250032Y-106425498D01*
X96250035Y-106425498D01*
X96310405Y-106419331D01*
X96352813Y-106414999D01*
X96519350Y-106359814D01*
X96668672Y-106267712D01*
X96792728Y-106143656D01*
X96852627Y-106046541D01*
X96864804Y-106035213D01*
X96872197Y-106022277D01*
X96894149Y-106007914D01*
X96900855Y-106001677D01*
X96905674Y-105999165D01*
X96983786Y-105966812D01*
X97035009Y-105932584D01*
X97086233Y-105898358D01*
X97173358Y-105811233D01*
X97173359Y-105811231D01*
X97180425Y-105804165D01*
X97180428Y-105804161D01*
X98384863Y-104599725D01*
X98446184Y-104566242D01*
X98509434Y-104569023D01*
X98525758Y-104574110D01*
X98596079Y-104580500D01*
X99103920Y-104580499D01*
X99103927Y-104580499D01*
X99174235Y-104574111D01*
X99174236Y-104574110D01*
X99174242Y-104574110D01*
X99336072Y-104523681D01*
X99481132Y-104435990D01*
X99600990Y-104316132D01*
X99644177Y-104244691D01*
X99695702Y-104197506D01*
X99764561Y-104185667D01*
X99828890Y-104212935D01*
X99856409Y-104244694D01*
X99899404Y-104315819D01*
X100019177Y-104435592D01*
X100019181Y-104435595D01*
X100164133Y-104523221D01*
X100164137Y-104523223D01*
X100325848Y-104573613D01*
X100325846Y-104573613D01*
X100396127Y-104580000D01*
X100400000Y-104580000D01*
X100400000Y-101920000D01*
X100396127Y-101920000D01*
X100325847Y-101926386D01*
X100164137Y-101976776D01*
X100164133Y-101976778D01*
X100019181Y-102064404D01*
X100019177Y-102064407D01*
X99899407Y-102184177D01*
X99856409Y-102255306D01*
X99804881Y-102302493D01*
X99736022Y-102314332D01*
X99671693Y-102287063D01*
X99644175Y-102255305D01*
X99600992Y-102183871D01*
X99600989Y-102183867D01*
X99481132Y-102064010D01*
X99481128Y-102064007D01*
X99336073Y-101976319D01*
X99336068Y-101976317D01*
X99174246Y-101925891D01*
X99174238Y-101925889D01*
X99125003Y-101921415D01*
X99103921Y-101919500D01*
X99103918Y-101919500D01*
X98596071Y-101919500D01*
X98525764Y-101925888D01*
X98525757Y-101925890D01*
X98363934Y-101976316D01*
X98363926Y-101976319D01*
X98218871Y-102064007D01*
X98218867Y-102064010D01*
X98099010Y-102183867D01*
X98099007Y-102183871D01*
X98011319Y-102328926D01*
X98011317Y-102328931D01*
X97960891Y-102490753D01*
X97960889Y-102490761D01*
X97954500Y-102561081D01*
X97954500Y-103209547D01*
X97934815Y-103276586D01*
X97918181Y-103297228D01*
X97155460Y-104059948D01*
X97094137Y-104093433D01*
X97024445Y-104088449D01*
X96968512Y-104046577D01*
X96944095Y-103981113D01*
X96944420Y-103959670D01*
X96950516Y-103900009D01*
X96950515Y-103274992D01*
X96949076Y-103260909D01*
X96940015Y-103172203D01*
X96940014Y-103172200D01*
X96924705Y-103126000D01*
X96884830Y-103005666D01*
X96792728Y-102856344D01*
X96774057Y-102837673D01*
X96740572Y-102776350D01*
X96745556Y-102706658D01*
X96774057Y-102662311D01*
X96783271Y-102653097D01*
X96792712Y-102643656D01*
X96884814Y-102494334D01*
X96939999Y-102327797D01*
X96950500Y-102225009D01*
X96950499Y-101599992D01*
X96939999Y-101497203D01*
X96884814Y-101330666D01*
X96874901Y-101314595D01*
X96856462Y-101247205D01*
X96877384Y-101180541D01*
X96931026Y-101135771D01*
X96980441Y-101125500D01*
X100311608Y-101125500D01*
X100311608Y-101125499D01*
X100390467Y-101109814D01*
X100432452Y-101101463D01*
X100465792Y-101087652D01*
X100546286Y-101054312D01*
X100603425Y-101016132D01*
X100603426Y-101016132D01*
X100645087Y-100988294D01*
X100648733Y-100985858D01*
X100735858Y-100898733D01*
X100735858Y-100898731D01*
X100746066Y-100888524D01*
X100746067Y-100888521D01*
X100781159Y-100853429D01*
X100842480Y-100819946D01*
X100912172Y-100824930D01*
G37*
%TD.AperFunction*%
%TA.AperFunction,Conductor*%
G36*
X175898039Y-98520185D02*
G01*
X175943794Y-98572989D01*
X175955000Y-98624500D01*
X175955000Y-99000000D01*
X176726000Y-99000000D01*
X176793039Y-99019685D01*
X176838794Y-99072489D01*
X176850000Y-99124000D01*
X176850000Y-99250000D01*
X176976000Y-99250000D01*
X177043039Y-99269685D01*
X177088794Y-99322489D01*
X177100000Y-99374000D01*
X177100000Y-100580000D01*
X177103873Y-100580000D01*
X177174152Y-100573613D01*
X177335862Y-100523223D01*
X177335866Y-100523221D01*
X177480818Y-100435595D01*
X177480822Y-100435592D01*
X177600593Y-100315821D01*
X177643589Y-100244695D01*
X177695116Y-100197506D01*
X177763975Y-100185667D01*
X177828304Y-100212934D01*
X177855824Y-100244693D01*
X177899010Y-100316132D01*
X178018867Y-100435989D01*
X178018871Y-100435992D01*
X178163924Y-100523679D01*
X178163928Y-100523681D01*
X178325758Y-100574110D01*
X178396079Y-100580500D01*
X178903920Y-100580499D01*
X178903927Y-100580499D01*
X178974235Y-100574111D01*
X178974236Y-100574110D01*
X178974242Y-100574110D01*
X179136072Y-100523681D01*
X179198640Y-100485858D01*
X179206870Y-100480883D01*
X179271019Y-100463000D01*
X180072912Y-100463000D01*
X180139951Y-100482685D01*
X180166876Y-100506088D01*
X180173290Y-100513537D01*
X180207288Y-100568656D01*
X180304221Y-100665589D01*
X180307234Y-100669088D01*
X180319819Y-100696873D01*
X180334436Y-100723642D01*
X180334096Y-100728393D01*
X180336062Y-100732734D01*
X180331627Y-100762909D01*
X180329452Y-100793334D01*
X180326476Y-100797963D01*
X180325904Y-100801861D01*
X180318555Y-100810288D01*
X180300951Y-100837681D01*
X180207289Y-100931342D01*
X180115187Y-101080663D01*
X180115185Y-101080668D01*
X180105528Y-101109812D01*
X180060001Y-101247203D01*
X180060001Y-101247204D01*
X180060000Y-101247204D01*
X180049500Y-101349983D01*
X180049500Y-101975001D01*
X180049501Y-101975019D01*
X180060000Y-102077796D01*
X180060001Y-102077799D01*
X180115185Y-102244331D01*
X180115187Y-102244336D01*
X180141541Y-102287063D01*
X180205148Y-102390187D01*
X180207289Y-102393657D01*
X180225951Y-102412319D01*
X180259436Y-102473642D01*
X180254452Y-102543334D01*
X180225951Y-102587681D01*
X180207289Y-102606342D01*
X180115187Y-102755663D01*
X180115186Y-102755666D01*
X180060001Y-102922203D01*
X180060001Y-102922204D01*
X180060000Y-102922204D01*
X180049500Y-103024983D01*
X180049500Y-103650001D01*
X180049501Y-103650019D01*
X180060000Y-103752796D01*
X180060001Y-103752799D01*
X180115185Y-103919331D01*
X180115187Y-103919336D01*
X180127238Y-103938873D01*
X180202643Y-104061126D01*
X180207289Y-104068657D01*
X180300951Y-104162319D01*
X180303045Y-104166154D01*
X180306731Y-104168507D01*
X180319645Y-104196554D01*
X180334436Y-104223642D01*
X180334124Y-104228001D01*
X180335953Y-104231973D01*
X180331653Y-104262548D01*
X180329452Y-104293334D01*
X180326660Y-104298054D01*
X180326224Y-104301162D01*
X180316610Y-104315053D01*
X180307234Y-104330912D01*
X180304221Y-104334410D01*
X180207288Y-104431344D01*
X180173290Y-104486462D01*
X180166876Y-104493912D01*
X180145465Y-104507765D01*
X180126503Y-104524821D01*
X180115101Y-104527412D01*
X180108215Y-104531868D01*
X180095317Y-104531908D01*
X180072912Y-104537000D01*
X179478777Y-104537000D01*
X179411738Y-104517315D01*
X179365983Y-104464511D01*
X179356039Y-104395353D01*
X179385064Y-104331797D01*
X179391096Y-104325319D01*
X179400592Y-104315822D01*
X179400595Y-104315818D01*
X179488221Y-104170866D01*
X179488223Y-104170862D01*
X179538613Y-104009152D01*
X179545000Y-103938873D01*
X179545000Y-103500000D01*
X178774000Y-103500000D01*
X178706961Y-103480315D01*
X178661206Y-103427511D01*
X178650000Y-103376000D01*
X178650000Y-103250000D01*
X178524000Y-103250000D01*
X178456961Y-103230315D01*
X178411206Y-103177511D01*
X178400000Y-103126000D01*
X178400000Y-103000000D01*
X178900000Y-103000000D01*
X179545000Y-103000000D01*
X179545000Y-102561126D01*
X179538613Y-102490847D01*
X179488223Y-102329137D01*
X179488221Y-102329133D01*
X179400595Y-102184181D01*
X179400592Y-102184177D01*
X179280822Y-102064407D01*
X179280818Y-102064404D01*
X179135866Y-101976778D01*
X179135862Y-101976776D01*
X178974151Y-101926386D01*
X178974153Y-101926386D01*
X178903873Y-101920000D01*
X178900000Y-101920000D01*
X178900000Y-103000000D01*
X178400000Y-103000000D01*
X178400000Y-101920000D01*
X178396127Y-101920000D01*
X178325847Y-101926386D01*
X178164137Y-101976776D01*
X178164133Y-101976778D01*
X178019181Y-102064404D01*
X178019177Y-102064407D01*
X177899407Y-102184177D01*
X177856409Y-102255306D01*
X177804881Y-102302493D01*
X177736022Y-102314332D01*
X177671693Y-102287063D01*
X177644175Y-102255305D01*
X177600992Y-102183871D01*
X177600989Y-102183867D01*
X177481132Y-102064010D01*
X177481128Y-102064007D01*
X177336073Y-101976319D01*
X177336068Y-101976317D01*
X177174246Y-101925891D01*
X177174238Y-101925889D01*
X177125003Y-101921415D01*
X177103921Y-101919500D01*
X177103918Y-101919500D01*
X176724000Y-101919500D01*
X176656961Y-101899815D01*
X176611206Y-101847011D01*
X176600000Y-101795500D01*
X176600000Y-101585428D01*
X176567738Y-101257860D01*
X176503525Y-100935043D01*
X176503519Y-100935019D01*
X176443580Y-100737427D01*
X176442956Y-100667560D01*
X176480204Y-100608447D01*
X176543498Y-100578856D01*
X176573464Y-100577940D01*
X176596129Y-100580000D01*
X176600000Y-100580000D01*
X176600000Y-99500000D01*
X175955000Y-99500000D01*
X175925198Y-99529802D01*
X175863874Y-99563286D01*
X175831432Y-99565971D01*
X175789633Y-99563917D01*
X174544250Y-100809300D01*
X174470412Y-100707670D01*
X174292330Y-100529588D01*
X174190697Y-100455747D01*
X175436081Y-99210365D01*
X175436081Y-99210364D01*
X175247999Y-99056010D01*
X175247995Y-99056007D01*
X174974327Y-98873148D01*
X174974309Y-98873137D01*
X174713736Y-98733858D01*
X174663891Y-98684896D01*
X174648431Y-98616758D01*
X174672263Y-98551078D01*
X174727820Y-98508710D01*
X174772189Y-98500500D01*
X175831000Y-98500500D01*
X175898039Y-98520185D01*
G37*
%TD.AperFunction*%
%TA.AperFunction,Conductor*%
G36*
X149943010Y-93520185D02*
G01*
X149988765Y-93572989D01*
X149998709Y-93642147D01*
X149984428Y-93682096D01*
X149984872Y-93682296D01*
X149982372Y-93687848D01*
X149982085Y-93688654D01*
X149981793Y-93689136D01*
X149981792Y-93689137D01*
X149931402Y-93850847D01*
X149925016Y-93921126D01*
X149925016Y-94360000D01*
X150696016Y-94360000D01*
X150763055Y-94379685D01*
X150808810Y-94432489D01*
X150820016Y-94484000D01*
X150820016Y-94610000D01*
X150946016Y-94610000D01*
X151013055Y-94629685D01*
X151058810Y-94682489D01*
X151070016Y-94734000D01*
X151070016Y-95940000D01*
X151073889Y-95940000D01*
X151144168Y-95933613D01*
X151305878Y-95883223D01*
X151305882Y-95883221D01*
X151450834Y-95795595D01*
X151450838Y-95795592D01*
X151570609Y-95675821D01*
X151613605Y-95604695D01*
X151665132Y-95557506D01*
X151733991Y-95545667D01*
X151798320Y-95572934D01*
X151825840Y-95604693D01*
X151869026Y-95676132D01*
X151988883Y-95795989D01*
X151988887Y-95795992D01*
X152117401Y-95873681D01*
X152133944Y-95883681D01*
X152295774Y-95934110D01*
X152366095Y-95940500D01*
X152873936Y-95940499D01*
X152873943Y-95940499D01*
X152944251Y-95934111D01*
X152944252Y-95934110D01*
X152944258Y-95934110D01*
X153106088Y-95883681D01*
X153251148Y-95795990D01*
X153371006Y-95676132D01*
X153458697Y-95531072D01*
X153509126Y-95369242D01*
X153515516Y-95298921D01*
X153515515Y-94650452D01*
X153524160Y-94621009D01*
X153530683Y-94591025D01*
X153534436Y-94586011D01*
X153535199Y-94583414D01*
X153551834Y-94562771D01*
X153615288Y-94499318D01*
X153676612Y-94465834D01*
X153702969Y-94463000D01*
X153822912Y-94463000D01*
X153889951Y-94482685D01*
X153928451Y-94521903D01*
X153957289Y-94568657D01*
X154050951Y-94662319D01*
X154084436Y-94723642D01*
X154079452Y-94793334D01*
X154050951Y-94837681D01*
X153957289Y-94931342D01*
X153865187Y-95080663D01*
X153865185Y-95080668D01*
X153858643Y-95100410D01*
X153810001Y-95247203D01*
X153810001Y-95247204D01*
X153810000Y-95247204D01*
X153799500Y-95349983D01*
X153799500Y-95975001D01*
X153799501Y-95975019D01*
X153810000Y-96077796D01*
X153810001Y-96077799D01*
X153865185Y-96244331D01*
X153865187Y-96244336D01*
X153896243Y-96294686D01*
X153951430Y-96384159D01*
X153957289Y-96393657D01*
X153975959Y-96412327D01*
X154009444Y-96473650D01*
X154004460Y-96543342D01*
X153975959Y-96587689D01*
X153957305Y-96606342D01*
X153865203Y-96755663D01*
X153865201Y-96755668D01*
X153858829Y-96774897D01*
X153810017Y-96922203D01*
X153810017Y-96922204D01*
X153810016Y-96922204D01*
X153799516Y-97024983D01*
X153799516Y-97650001D01*
X153799517Y-97650019D01*
X153810016Y-97752796D01*
X153810017Y-97752799D01*
X153865201Y-97919331D01*
X153865203Y-97919336D01*
X153866972Y-97922204D01*
X153942519Y-98044686D01*
X153957305Y-98068657D01*
X154050967Y-98162319D01*
X154084452Y-98223642D01*
X154079468Y-98293334D01*
X154050967Y-98337681D01*
X153957305Y-98431342D01*
X153865203Y-98580663D01*
X153865201Y-98580668D01*
X153848530Y-98630978D01*
X153813730Y-98736000D01*
X153810016Y-98747207D01*
X153810015Y-98747210D01*
X153807877Y-98768133D01*
X153798581Y-98790911D01*
X153793352Y-98814953D01*
X153783282Y-98828403D01*
X153781479Y-98832824D01*
X153772201Y-98843207D01*
X153722893Y-98892515D01*
X153661570Y-98926000D01*
X153591878Y-98921016D01*
X153547531Y-98892515D01*
X153515016Y-98860000D01*
X152744016Y-98860000D01*
X152676977Y-98840315D01*
X152631222Y-98787511D01*
X152620016Y-98736000D01*
X152620016Y-98610000D01*
X152494016Y-98610000D01*
X152426977Y-98590315D01*
X152381222Y-98537511D01*
X152370016Y-98486000D01*
X152370016Y-98360000D01*
X152870016Y-98360000D01*
X153515016Y-98360000D01*
X153515016Y-97921126D01*
X153508629Y-97850847D01*
X153458239Y-97689137D01*
X153458237Y-97689133D01*
X153370611Y-97544181D01*
X153370608Y-97544177D01*
X153250838Y-97424407D01*
X153250834Y-97424404D01*
X153105882Y-97336778D01*
X153105878Y-97336776D01*
X152944167Y-97286386D01*
X152944169Y-97286386D01*
X152873889Y-97280000D01*
X152870016Y-97280000D01*
X152870016Y-98360000D01*
X152370016Y-98360000D01*
X152370016Y-97303031D01*
X152299914Y-97265636D01*
X152298267Y-97264020D01*
X152296027Y-97263472D01*
X152273448Y-97239682D01*
X152250029Y-97216715D01*
X152249516Y-97214465D01*
X152247929Y-97212793D01*
X152243724Y-97203701D01*
X152209394Y-97120821D01*
X152209390Y-97120814D01*
X152121789Y-96989711D01*
X152121786Y-96989707D01*
X152010292Y-96878213D01*
X152010288Y-96878210D01*
X151879185Y-96790609D01*
X151879172Y-96790602D01*
X151733501Y-96730264D01*
X151733489Y-96730261D01*
X151578845Y-96699500D01*
X151578842Y-96699500D01*
X151421158Y-96699500D01*
X151421155Y-96699500D01*
X151266510Y-96730261D01*
X151266498Y-96730264D01*
X151120827Y-96790602D01*
X151120814Y-96790609D01*
X150989711Y-96878210D01*
X150989707Y-96878213D01*
X150878213Y-96989707D01*
X150878210Y-96989711D01*
X150790609Y-97120814D01*
X150790604Y-97120824D01*
X150756585Y-97202953D01*
X150712743Y-97257357D01*
X150646449Y-97279421D01*
X150642026Y-97279500D01*
X150566087Y-97279500D01*
X150495780Y-97285888D01*
X150495773Y-97285890D01*
X150333950Y-97336316D01*
X150333942Y-97336319D01*
X150188887Y-97424007D01*
X150188883Y-97424010D01*
X150069026Y-97543867D01*
X150069023Y-97543871D01*
X149981335Y-97688926D01*
X149981333Y-97688931D01*
X149930907Y-97850753D01*
X149930905Y-97850761D01*
X149928324Y-97879172D01*
X149924675Y-97919336D01*
X149924516Y-97921081D01*
X149924516Y-99298928D01*
X149930904Y-99369235D01*
X149930906Y-99369242D01*
X149981332Y-99531065D01*
X149981335Y-99531073D01*
X150069023Y-99676128D01*
X150069026Y-99676132D01*
X150188883Y-99795989D01*
X150188887Y-99795992D01*
X150318756Y-99874500D01*
X150333944Y-99883681D01*
X150495774Y-99934110D01*
X150510176Y-99935418D01*
X150575159Y-99961087D01*
X150586639Y-99971229D01*
X151101263Y-100485855D01*
X151101267Y-100485858D01*
X151203710Y-100554309D01*
X151203711Y-100554309D01*
X151203715Y-100554312D01*
X151254868Y-100575500D01*
X151317548Y-100601463D01*
X151337597Y-100605451D01*
X151382682Y-100614419D01*
X151438392Y-100625501D01*
X151438394Y-100625501D01*
X151567721Y-100625501D01*
X151567741Y-100625500D01*
X153561607Y-100625500D01*
X153622029Y-100613481D01*
X153682452Y-100601463D01*
X153715792Y-100587652D01*
X153796286Y-100554312D01*
X153863485Y-100509410D01*
X153898733Y-100485858D01*
X153985858Y-100398733D01*
X153985859Y-100398730D01*
X153992925Y-100391665D01*
X153992928Y-100391661D01*
X154209719Y-100174869D01*
X154271040Y-100141386D01*
X154336402Y-100144846D01*
X154397219Y-100164999D01*
X154500007Y-100175500D01*
X155500024Y-100175499D01*
X155500032Y-100175498D01*
X155500035Y-100175498D01*
X155556318Y-100169748D01*
X155602813Y-100164999D01*
X155769350Y-100109814D01*
X155918672Y-100017712D01*
X156042728Y-99893656D01*
X156134830Y-99744334D01*
X156190015Y-99577797D01*
X156200516Y-99475009D01*
X156200515Y-98849992D01*
X156199526Y-98840315D01*
X156190015Y-98747203D01*
X156190014Y-98747200D01*
X156176263Y-98705703D01*
X156134830Y-98580666D01*
X156042728Y-98431344D01*
X155949065Y-98337681D01*
X155915580Y-98276358D01*
X155920564Y-98206666D01*
X155949065Y-98162319D01*
X155992178Y-98119206D01*
X156042728Y-98068656D01*
X156134830Y-97919334D01*
X156190015Y-97752797D01*
X156200516Y-97650009D01*
X156200515Y-97024992D01*
X156198953Y-97009704D01*
X156190015Y-96922203D01*
X156190014Y-96922200D01*
X156173072Y-96871072D01*
X156134830Y-96755666D01*
X156119161Y-96730263D01*
X156062792Y-96638873D01*
X162955000Y-96638873D01*
X162961386Y-96709152D01*
X163011776Y-96870862D01*
X163011778Y-96870866D01*
X163099404Y-97015818D01*
X163099407Y-97015822D01*
X163219177Y-97135592D01*
X163219181Y-97135595D01*
X163364133Y-97223221D01*
X163364137Y-97223223D01*
X163525848Y-97273613D01*
X163525846Y-97273613D01*
X163596127Y-97280000D01*
X163600000Y-97280000D01*
X163600000Y-96200000D01*
X162955000Y-96200000D01*
X162955000Y-96638873D01*
X156062792Y-96638873D01*
X156040108Y-96602096D01*
X156021668Y-96534704D01*
X156042591Y-96468041D01*
X156096233Y-96423271D01*
X156145647Y-96413000D01*
X156161420Y-96413000D01*
X156258962Y-96393596D01*
X156306413Y-96384158D01*
X156442995Y-96327584D01*
X156492229Y-96294686D01*
X156565916Y-96245452D01*
X157456244Y-95355124D01*
X157519081Y-95261080D01*
X157538376Y-95232203D01*
X157567735Y-95161325D01*
X157594951Y-95095620D01*
X157601081Y-95064802D01*
X157620156Y-94968910D01*
X157621973Y-94959769D01*
X157623792Y-94950626D01*
X157623792Y-94874500D01*
X157643477Y-94807461D01*
X157696281Y-94761706D01*
X157747792Y-94750500D01*
X162960361Y-94750500D01*
X163027400Y-94770185D01*
X163073155Y-94822989D01*
X163083099Y-94892147D01*
X163066478Y-94938649D01*
X163011778Y-95029133D01*
X163011776Y-95029137D01*
X162961386Y-95190847D01*
X162955000Y-95261126D01*
X162955000Y-95700000D01*
X163726000Y-95700000D01*
X163793039Y-95719685D01*
X163838794Y-95772489D01*
X163850000Y-95824000D01*
X163850000Y-95950000D01*
X163976000Y-95950000D01*
X164043039Y-95969685D01*
X164088794Y-96022489D01*
X164100000Y-96074000D01*
X164100000Y-97280000D01*
X164103873Y-97280000D01*
X164174152Y-97273613D01*
X164335862Y-97223223D01*
X164335866Y-97223221D01*
X164480818Y-97135595D01*
X164480822Y-97135592D01*
X164600593Y-97015821D01*
X164643589Y-96944695D01*
X164695116Y-96897506D01*
X164763975Y-96885667D01*
X164828304Y-96912934D01*
X164855824Y-96944693D01*
X164899008Y-97016129D01*
X164899010Y-97016132D01*
X165018867Y-97135989D01*
X165018871Y-97135992D01*
X165152404Y-97216715D01*
X165163928Y-97223681D01*
X165163930Y-97223681D01*
X165163931Y-97223682D01*
X165173860Y-97226776D01*
X165325758Y-97274110D01*
X165396079Y-97280500D01*
X165903920Y-97280499D01*
X165903927Y-97280499D01*
X165974235Y-97274111D01*
X165974236Y-97274110D01*
X165974242Y-97274110D01*
X166136072Y-97223681D01*
X166281132Y-97135990D01*
X166400990Y-97016132D01*
X166488681Y-96871072D01*
X166539110Y-96709242D01*
X166545500Y-96638921D01*
X166545500Y-96337000D01*
X166548050Y-96328314D01*
X166546762Y-96319353D01*
X166557740Y-96295312D01*
X166565185Y-96269961D01*
X166572025Y-96264033D01*
X166575787Y-96255797D01*
X166598021Y-96241507D01*
X166617989Y-96224206D01*
X166628503Y-96221918D01*
X166634565Y-96218023D01*
X166669500Y-96213000D01*
X166822928Y-96213000D01*
X166889967Y-96232685D01*
X166928465Y-96271901D01*
X166957304Y-96318656D01*
X166957305Y-96318657D01*
X167050967Y-96412319D01*
X167084452Y-96473642D01*
X167079468Y-96543334D01*
X167050967Y-96587681D01*
X166957305Y-96681342D01*
X166865203Y-96830663D01*
X166865202Y-96830666D01*
X166810017Y-96997203D01*
X166810017Y-96997204D01*
X166810016Y-96997204D01*
X166799516Y-97099983D01*
X166799516Y-97725001D01*
X166799517Y-97725019D01*
X166810016Y-97827796D01*
X166810017Y-97827799D01*
X166865201Y-97994331D01*
X166865203Y-97994336D01*
X166896259Y-98044686D01*
X166951446Y-98134159D01*
X166957305Y-98143657D01*
X166975967Y-98162319D01*
X167009452Y-98223642D01*
X167004468Y-98293334D01*
X166975967Y-98337681D01*
X166957305Y-98356342D01*
X166865203Y-98505663D01*
X166865201Y-98505668D01*
X166842893Y-98572989D01*
X166810017Y-98672203D01*
X166810017Y-98672204D01*
X166810016Y-98672204D01*
X166799516Y-98774983D01*
X166799516Y-99400001D01*
X166799517Y-99400019D01*
X166810016Y-99502796D01*
X166810017Y-99502799D01*
X166865201Y-99669331D01*
X166865203Y-99669336D01*
X166884117Y-99700000D01*
X166947037Y-99802011D01*
X166957305Y-99818657D01*
X167050967Y-99912319D01*
X167084452Y-99973642D01*
X167079468Y-100043334D01*
X167050967Y-100087681D01*
X166957305Y-100181342D01*
X166865203Y-100330663D01*
X166865202Y-100330665D01*
X166865202Y-100330666D01*
X166848338Y-100381557D01*
X166810016Y-100497205D01*
X166808392Y-100513105D01*
X166807397Y-100515542D01*
X166807772Y-100518147D01*
X166794270Y-100547711D01*
X166781994Y-100577796D01*
X166779840Y-100579307D01*
X166778747Y-100581703D01*
X166751401Y-100599276D01*
X166724813Y-100617946D01*
X166721502Y-100618491D01*
X166719969Y-100619477D01*
X166685034Y-100624500D01*
X166669000Y-100624500D01*
X166601961Y-100604815D01*
X166556206Y-100552011D01*
X166545000Y-100500500D01*
X166545000Y-100200000D01*
X165774000Y-100200000D01*
X165706961Y-100180315D01*
X165661206Y-100127511D01*
X165650000Y-100076000D01*
X165650000Y-99950000D01*
X165524000Y-99950000D01*
X165456961Y-99930315D01*
X165411206Y-99877511D01*
X165400000Y-99826000D01*
X165400000Y-99700000D01*
X165900000Y-99700000D01*
X166545000Y-99700000D01*
X166545000Y-99261126D01*
X166538613Y-99190847D01*
X166488223Y-99029137D01*
X166488221Y-99029133D01*
X166400595Y-98884181D01*
X166400592Y-98884177D01*
X166280822Y-98764407D01*
X166280818Y-98764404D01*
X166135866Y-98676778D01*
X166135862Y-98676776D01*
X165974151Y-98626386D01*
X165974153Y-98626386D01*
X165903873Y-98620000D01*
X165900000Y-98620000D01*
X165900000Y-99700000D01*
X165400000Y-99700000D01*
X165400000Y-98620000D01*
X165396127Y-98620000D01*
X165325847Y-98626386D01*
X165164137Y-98676776D01*
X165164133Y-98676778D01*
X165019181Y-98764404D01*
X165019177Y-98764407D01*
X164899407Y-98884177D01*
X164856409Y-98955306D01*
X164804881Y-99002493D01*
X164736022Y-99014332D01*
X164671693Y-98987063D01*
X164644175Y-98955305D01*
X164600990Y-98883868D01*
X164481132Y-98764010D01*
X164481128Y-98764007D01*
X164336073Y-98676319D01*
X164336068Y-98676317D01*
X164174246Y-98625891D01*
X164174238Y-98625889D01*
X164125003Y-98621415D01*
X164103921Y-98619500D01*
X164103918Y-98619500D01*
X163596071Y-98619500D01*
X163525764Y-98625888D01*
X163525761Y-98625889D01*
X163509429Y-98630978D01*
X163439568Y-98632126D01*
X163384862Y-98600272D01*
X161893150Y-97108560D01*
X161885860Y-97101270D01*
X161885858Y-97101267D01*
X161798733Y-97014142D01*
X161747509Y-96979915D01*
X161696286Y-96945688D01*
X161696283Y-96945686D01*
X161696280Y-96945685D01*
X161622603Y-96915168D01*
X161622601Y-96915167D01*
X161615792Y-96912347D01*
X161582452Y-96898537D01*
X161522029Y-96886518D01*
X161517306Y-96885578D01*
X161517304Y-96885578D01*
X161461610Y-96874500D01*
X161461607Y-96874500D01*
X161461606Y-96874500D01*
X161042350Y-96874500D01*
X160975311Y-96854815D01*
X160973459Y-96853602D01*
X160879184Y-96790609D01*
X160879172Y-96790602D01*
X160733501Y-96730264D01*
X160733489Y-96730261D01*
X160578845Y-96699500D01*
X160578842Y-96699500D01*
X160421158Y-96699500D01*
X160421155Y-96699500D01*
X160266510Y-96730261D01*
X160266498Y-96730264D01*
X160120827Y-96790602D01*
X160120814Y-96790609D01*
X159989711Y-96878210D01*
X159989707Y-96878213D01*
X159878213Y-96989707D01*
X159878210Y-96989711D01*
X159790609Y-97120814D01*
X159790602Y-97120827D01*
X159730264Y-97266498D01*
X159730261Y-97266510D01*
X159699500Y-97421153D01*
X159699500Y-97578846D01*
X159730261Y-97733489D01*
X159730264Y-97733501D01*
X159790602Y-97879172D01*
X159790609Y-97879185D01*
X159878210Y-98010288D01*
X159878213Y-98010292D01*
X159989707Y-98121786D01*
X159989711Y-98121789D01*
X160120814Y-98209390D01*
X160120827Y-98209397D01*
X160182188Y-98234813D01*
X160266503Y-98269737D01*
X160389315Y-98294166D01*
X160421153Y-98300499D01*
X160421156Y-98300500D01*
X160421158Y-98300500D01*
X160578844Y-98300500D01*
X160578845Y-98300499D01*
X160733497Y-98269737D01*
X160879179Y-98209394D01*
X160973459Y-98146398D01*
X160991505Y-98140747D01*
X161007415Y-98130523D01*
X161038374Y-98126071D01*
X161040136Y-98125520D01*
X161042350Y-98125500D01*
X161089548Y-98125500D01*
X161156587Y-98145185D01*
X161177229Y-98161819D01*
X162918181Y-99902771D01*
X162951666Y-99964094D01*
X162954500Y-99990452D01*
X162954500Y-100638928D01*
X162960888Y-100709235D01*
X162960890Y-100709242D01*
X163011316Y-100871065D01*
X163011319Y-100871073D01*
X163099007Y-101016128D01*
X163099010Y-101016132D01*
X163218870Y-101135992D01*
X163312583Y-101192642D01*
X163339372Y-101214461D01*
X163346070Y-101221686D01*
X163364142Y-101248733D01*
X163451267Y-101335858D01*
X163451269Y-101335859D01*
X163764141Y-101648732D01*
X163764142Y-101648733D01*
X163807724Y-101692315D01*
X163851268Y-101735859D01*
X163922101Y-101783188D01*
X163922100Y-101783188D01*
X163953712Y-101804310D01*
X163953713Y-101804310D01*
X163953714Y-101804311D01*
X164067548Y-101851463D01*
X164188388Y-101875499D01*
X164188392Y-101875500D01*
X164188393Y-101875500D01*
X167061608Y-101875500D01*
X167061608Y-101875499D01*
X167140467Y-101859814D01*
X167164733Y-101854987D01*
X167164780Y-101854991D01*
X167227924Y-101858899D01*
X167230678Y-101859811D01*
X167230682Y-101859814D01*
X167397219Y-101914999D01*
X167500007Y-101925500D01*
X168500024Y-101925499D01*
X168500032Y-101925498D01*
X168500035Y-101925498D01*
X168558751Y-101919500D01*
X168602813Y-101914999D01*
X168769350Y-101859814D01*
X168918672Y-101767712D01*
X169042728Y-101643656D01*
X169134830Y-101494334D01*
X169190015Y-101327797D01*
X169200516Y-101225009D01*
X169200515Y-100599992D01*
X169199254Y-100587652D01*
X169190015Y-100497203D01*
X169190014Y-100497200D01*
X169181550Y-100471658D01*
X169134830Y-100330666D01*
X169042728Y-100181344D01*
X168949065Y-100087681D01*
X168915580Y-100026358D01*
X168920564Y-99956666D01*
X168949065Y-99912319D01*
X168992615Y-99868769D01*
X169042728Y-99818656D01*
X169134830Y-99669334D01*
X169190015Y-99502797D01*
X169200516Y-99400009D01*
X169200515Y-98774992D01*
X169199814Y-98768133D01*
X169190015Y-98672203D01*
X169190014Y-98672200D01*
X169183744Y-98653278D01*
X169134830Y-98505666D01*
X169131335Y-98500000D01*
X169040108Y-98352096D01*
X169021668Y-98284704D01*
X169042591Y-98218041D01*
X169096233Y-98173271D01*
X169145647Y-98163000D01*
X170161420Y-98163000D01*
X170258962Y-98143596D01*
X170306413Y-98134158D01*
X170442995Y-98077584D01*
X170492229Y-98044686D01*
X170565916Y-97995452D01*
X171287319Y-97274049D01*
X171348642Y-97240564D01*
X171418334Y-97245548D01*
X171462681Y-97274049D01*
X172480617Y-98291985D01*
X172514102Y-98353308D01*
X172509118Y-98423000D01*
X172467246Y-98478933D01*
X172428932Y-98498326D01*
X172120062Y-98592022D01*
X171815960Y-98717985D01*
X171815955Y-98717987D01*
X171525690Y-98873137D01*
X171525672Y-98873148D01*
X171252004Y-99056007D01*
X171251999Y-99056010D01*
X171063917Y-99210364D01*
X171063917Y-99210365D01*
X172309301Y-100455748D01*
X172207670Y-100529588D01*
X172029588Y-100707670D01*
X171955748Y-100809301D01*
X170710365Y-99563917D01*
X170710364Y-99563917D01*
X170556010Y-99751999D01*
X170556007Y-99752004D01*
X170373148Y-100025672D01*
X170373137Y-100025690D01*
X170217987Y-100315955D01*
X170217985Y-100315960D01*
X170092025Y-100620053D01*
X169996475Y-100935038D01*
X169996474Y-100935043D01*
X169932261Y-101257860D01*
X169900000Y-101585428D01*
X169900000Y-101914571D01*
X169932261Y-102242139D01*
X169996474Y-102564956D01*
X169996475Y-102564961D01*
X170092025Y-102879946D01*
X170217985Y-103184039D01*
X170217987Y-103184044D01*
X170373137Y-103474309D01*
X170373148Y-103474326D01*
X170398518Y-103512295D01*
X170419396Y-103578972D01*
X170400912Y-103646352D01*
X170348933Y-103693043D01*
X170279963Y-103704219D01*
X170265095Y-103701422D01*
X169155516Y-103421607D01*
X167410245Y-103019502D01*
X165656986Y-102653392D01*
X164271160Y-102393657D01*
X163896595Y-102323455D01*
X163896589Y-102323454D01*
X163896573Y-102323451D01*
X162418440Y-102077796D01*
X162129782Y-102029823D01*
X160457639Y-101787183D01*
X160357272Y-101772619D01*
X158579926Y-101551966D01*
X156798321Y-101367936D01*
X155013362Y-101220622D01*
X153225704Y-101110080D01*
X151436199Y-101036362D01*
X150735494Y-101021935D01*
X149645523Y-100999494D01*
X149645509Y-100999494D01*
X148750000Y-100999500D01*
X136534452Y-100999500D01*
X136467413Y-100979815D01*
X136421658Y-100927011D01*
X136411714Y-100857853D01*
X136440739Y-100794297D01*
X136446771Y-100787819D01*
X136665934Y-100568656D01*
X137337320Y-99897268D01*
X137398641Y-99863785D01*
X137468332Y-99868769D01*
X137512679Y-99897269D01*
X137764141Y-100148732D01*
X137764142Y-100148733D01*
X137851267Y-100235858D01*
X137891888Y-100263000D01*
X137953714Y-100304311D01*
X137953715Y-100304311D01*
X137953716Y-100304312D01*
X137979502Y-100314993D01*
X138067548Y-100351463D01*
X138183366Y-100374500D01*
X138188388Y-100375499D01*
X138188392Y-100375500D01*
X138188393Y-100375500D01*
X141811624Y-100375500D01*
X141811624Y-100375499D01*
X141898658Y-100358188D01*
X141932468Y-100351463D01*
X141982676Y-100330666D01*
X142046302Y-100304312D01*
X142076855Y-100283896D01*
X142143531Y-100263019D01*
X142145745Y-100262999D01*
X142750018Y-100262999D01*
X142750024Y-100262999D01*
X142852813Y-100252499D01*
X143019350Y-100197314D01*
X143168672Y-100105212D01*
X143292728Y-99981156D01*
X143384830Y-99831834D01*
X143440015Y-99665297D01*
X143450516Y-99562509D01*
X143450515Y-98937492D01*
X143448660Y-98919336D01*
X143440015Y-98834703D01*
X143440014Y-98834700D01*
X143428354Y-98799513D01*
X143384830Y-98668166D01*
X143292728Y-98518844D01*
X143199065Y-98425181D01*
X143165580Y-98363858D01*
X143170564Y-98294166D01*
X143199065Y-98249819D01*
X143242218Y-98206666D01*
X143292728Y-98156156D01*
X143384830Y-98006834D01*
X143440015Y-97840297D01*
X143450516Y-97737509D01*
X143450515Y-97112492D01*
X143450113Y-97108560D01*
X143440015Y-97009703D01*
X143440014Y-97009700D01*
X143430111Y-96979815D01*
X143384830Y-96843166D01*
X143292728Y-96693844D01*
X143230307Y-96631423D01*
X143225968Y-96623477D01*
X143218721Y-96618052D01*
X143209486Y-96593292D01*
X143196822Y-96570100D01*
X143197467Y-96561070D01*
X143194304Y-96552588D01*
X143199920Y-96526767D01*
X143201806Y-96500408D01*
X143207624Y-96491354D01*
X143209156Y-96484315D01*
X143230307Y-96456061D01*
X143237049Y-96449319D01*
X143298372Y-96415834D01*
X143324730Y-96413000D01*
X143661420Y-96413000D01*
X143758962Y-96393596D01*
X143806413Y-96384158D01*
X143942995Y-96327584D01*
X143992229Y-96294686D01*
X144065916Y-96245452D01*
X145012495Y-95298873D01*
X149925016Y-95298873D01*
X149931402Y-95369152D01*
X149981792Y-95530862D01*
X149981794Y-95530866D01*
X150069420Y-95675818D01*
X150069423Y-95675822D01*
X150189193Y-95795592D01*
X150189197Y-95795595D01*
X150334149Y-95883221D01*
X150334153Y-95883223D01*
X150495864Y-95933613D01*
X150495862Y-95933613D01*
X150566143Y-95940000D01*
X150570016Y-95940000D01*
X150570016Y-94860000D01*
X149925016Y-94860000D01*
X149925016Y-95298873D01*
X145012495Y-95298873D01*
X146774549Y-93536819D01*
X146835872Y-93503334D01*
X146862230Y-93500500D01*
X149875971Y-93500500D01*
X149943010Y-93520185D01*
G37*
%TD.AperFunction*%
%TA.AperFunction,Conductor*%
G36*
X123967427Y-93520185D02*
G01*
X124013182Y-93572989D01*
X124023126Y-93642147D01*
X124013461Y-93675396D01*
X124011776Y-93679138D01*
X123961386Y-93840847D01*
X123955000Y-93911126D01*
X123955000Y-94350000D01*
X124726000Y-94350000D01*
X124793039Y-94369685D01*
X124838794Y-94422489D01*
X124850000Y-94474000D01*
X124850000Y-94600000D01*
X124976000Y-94600000D01*
X125043039Y-94619685D01*
X125088794Y-94672489D01*
X125100000Y-94724000D01*
X125100000Y-95930000D01*
X125103873Y-95930000D01*
X125174152Y-95923613D01*
X125335862Y-95873223D01*
X125335866Y-95873221D01*
X125480818Y-95785595D01*
X125480822Y-95785592D01*
X125600593Y-95665821D01*
X125643589Y-95594695D01*
X125695116Y-95547506D01*
X125763975Y-95535667D01*
X125828304Y-95562934D01*
X125855824Y-95594693D01*
X125899010Y-95666132D01*
X126018867Y-95785989D01*
X126018871Y-95785992D01*
X126092495Y-95830499D01*
X126163928Y-95873681D01*
X126325758Y-95924110D01*
X126396079Y-95930500D01*
X126903920Y-95930499D01*
X126903927Y-95930499D01*
X126974235Y-95924111D01*
X126974236Y-95924110D01*
X126974242Y-95924110D01*
X127136072Y-95873681D01*
X127281132Y-95785990D01*
X127400990Y-95666132D01*
X127488681Y-95521072D01*
X127539110Y-95359242D01*
X127545500Y-95288921D01*
X127545499Y-94640452D01*
X127554144Y-94611009D01*
X127560667Y-94581025D01*
X127564420Y-94576011D01*
X127565183Y-94573414D01*
X127581819Y-94552771D01*
X127635273Y-94499318D01*
X127696596Y-94465834D01*
X127722953Y-94463000D01*
X128822928Y-94463000D01*
X128889967Y-94482685D01*
X128928467Y-94521903D01*
X128957305Y-94568657D01*
X129050967Y-94662319D01*
X129084452Y-94723642D01*
X129079468Y-94793334D01*
X129050967Y-94837681D01*
X128957305Y-94931342D01*
X128865203Y-95080663D01*
X128865201Y-95080668D01*
X128858659Y-95100410D01*
X128810017Y-95247203D01*
X128810017Y-95247204D01*
X128810016Y-95247204D01*
X128799516Y-95349983D01*
X128799516Y-95975001D01*
X128799517Y-95975019D01*
X128810016Y-96077796D01*
X128810017Y-96077799D01*
X128865201Y-96244331D01*
X128865203Y-96244336D01*
X128896259Y-96294686D01*
X128951446Y-96384159D01*
X128957305Y-96393657D01*
X128975967Y-96412319D01*
X129009452Y-96473642D01*
X129004468Y-96543334D01*
X128975967Y-96587681D01*
X128957305Y-96606342D01*
X128865203Y-96755663D01*
X128865201Y-96755668D01*
X128858829Y-96774897D01*
X128810017Y-96922203D01*
X128810017Y-96922204D01*
X128810016Y-96922204D01*
X128799516Y-97024983D01*
X128799516Y-97650001D01*
X128799517Y-97650019D01*
X128810016Y-97752796D01*
X128810017Y-97752799D01*
X128865201Y-97919331D01*
X128865203Y-97919336D01*
X128866972Y-97922204D01*
X128942519Y-98044686D01*
X128957305Y-98068657D01*
X129050967Y-98162319D01*
X129084452Y-98223642D01*
X129079468Y-98293334D01*
X129050967Y-98337681D01*
X128957305Y-98431342D01*
X128865203Y-98580663D01*
X128865201Y-98580668D01*
X128848530Y-98630978D01*
X128810017Y-98747203D01*
X128810017Y-98747204D01*
X128810016Y-98747204D01*
X128799516Y-98849983D01*
X128799516Y-98849991D01*
X128799516Y-99106344D01*
X128799517Y-99250500D01*
X128779833Y-99317539D01*
X128727029Y-99363294D01*
X128675517Y-99374500D01*
X127669000Y-99374500D01*
X127601961Y-99354815D01*
X127556206Y-99302011D01*
X127545000Y-99250500D01*
X127545000Y-98850000D01*
X126774000Y-98850000D01*
X126706961Y-98830315D01*
X126661206Y-98777511D01*
X126650000Y-98726000D01*
X126650000Y-98600000D01*
X126524000Y-98600000D01*
X126456961Y-98580315D01*
X126411206Y-98527511D01*
X126400000Y-98476000D01*
X126400000Y-98350000D01*
X126900000Y-98350000D01*
X127545000Y-98350000D01*
X127545000Y-97911126D01*
X127538613Y-97840847D01*
X127488223Y-97679137D01*
X127488221Y-97679133D01*
X127400595Y-97534181D01*
X127400592Y-97534177D01*
X127280822Y-97414407D01*
X127280818Y-97414404D01*
X127135866Y-97326778D01*
X127135862Y-97326776D01*
X126974151Y-97276386D01*
X126974153Y-97276386D01*
X126903873Y-97270000D01*
X126900000Y-97270000D01*
X126900000Y-98350000D01*
X126400000Y-98350000D01*
X126400000Y-97270000D01*
X126396127Y-97270000D01*
X126325847Y-97276386D01*
X126164137Y-97326776D01*
X126164133Y-97326778D01*
X126019181Y-97414404D01*
X126019177Y-97414407D01*
X125899407Y-97534177D01*
X125856409Y-97605306D01*
X125804881Y-97652493D01*
X125736022Y-97664332D01*
X125671693Y-97637063D01*
X125644175Y-97605305D01*
X125600992Y-97533871D01*
X125600989Y-97533867D01*
X125481132Y-97414010D01*
X125481128Y-97414007D01*
X125336073Y-97326319D01*
X125336068Y-97326317D01*
X125174246Y-97275891D01*
X125174238Y-97275889D01*
X125125003Y-97271415D01*
X125103921Y-97269500D01*
X125103918Y-97269500D01*
X124596071Y-97269500D01*
X124525764Y-97275888D01*
X124525757Y-97275890D01*
X124363934Y-97326316D01*
X124363926Y-97326319D01*
X124218871Y-97414007D01*
X124218867Y-97414010D01*
X124099010Y-97533867D01*
X124099007Y-97533871D01*
X124011319Y-97678926D01*
X124011317Y-97678931D01*
X123960891Y-97840753D01*
X123960889Y-97840761D01*
X123954500Y-97911081D01*
X123954500Y-98559547D01*
X123934815Y-98626586D01*
X123918181Y-98647228D01*
X123727229Y-98838181D01*
X123665906Y-98871666D01*
X123639548Y-98874500D01*
X121126431Y-98874500D01*
X121083291Y-98883081D01*
X121083289Y-98883081D01*
X121079335Y-98883868D01*
X121005587Y-98898537D01*
X120976916Y-98910413D01*
X120969376Y-98913536D01*
X120969369Y-98913538D01*
X120891758Y-98945685D01*
X120891750Y-98945690D01*
X120879064Y-98954165D01*
X120879065Y-98954166D01*
X120789307Y-99014140D01*
X120757140Y-99046308D01*
X120702181Y-99101267D01*
X120702178Y-99101270D01*
X119421260Y-100382187D01*
X119359937Y-100415672D01*
X119331518Y-100417329D01*
X119331518Y-100418304D01*
X119167739Y-100418304D01*
X119013094Y-100449065D01*
X119013082Y-100449068D01*
X118867411Y-100509406D01*
X118867398Y-100509413D01*
X118736295Y-100597014D01*
X118736291Y-100597017D01*
X118624797Y-100708511D01*
X118624794Y-100708515D01*
X118537193Y-100839618D01*
X118537186Y-100839631D01*
X118476848Y-100985302D01*
X118476845Y-100985314D01*
X118446084Y-101139957D01*
X118446084Y-101297650D01*
X118476845Y-101452293D01*
X118478615Y-101458128D01*
X118476528Y-101458760D01*
X118482933Y-101518482D01*
X118451640Y-101580952D01*
X118391541Y-101616588D01*
X118376186Y-101619486D01*
X117142726Y-101772617D01*
X116630042Y-101847011D01*
X115370217Y-102029820D01*
X115370193Y-102029824D01*
X113603425Y-102323447D01*
X111843011Y-102653387D01*
X110089752Y-103019498D01*
X108344481Y-103421602D01*
X107234909Y-103701415D01*
X107165091Y-103698721D01*
X107107814Y-103658708D01*
X107081261Y-103594080D01*
X107093864Y-103525356D01*
X107101487Y-103512286D01*
X107126855Y-103474321D01*
X107126862Y-103474309D01*
X107282012Y-103184044D01*
X107282014Y-103184039D01*
X107407974Y-102879946D01*
X107503524Y-102564961D01*
X107503525Y-102564956D01*
X107567738Y-102242139D01*
X107600000Y-101914571D01*
X107600000Y-101585428D01*
X107567738Y-101257860D01*
X107503525Y-100935043D01*
X107503524Y-100935038D01*
X107407974Y-100620053D01*
X107282014Y-100315960D01*
X107282012Y-100315955D01*
X107126862Y-100025690D01*
X107126851Y-100025672D01*
X106943992Y-99752004D01*
X106943989Y-99752000D01*
X106789634Y-99563917D01*
X106789633Y-99563917D01*
X105544251Y-100809300D01*
X105470412Y-100707670D01*
X105292330Y-100529588D01*
X105190697Y-100455747D01*
X106436081Y-99210365D01*
X106436081Y-99210364D01*
X106247999Y-99056010D01*
X106247995Y-99056007D01*
X105974327Y-98873148D01*
X105974309Y-98873137D01*
X105713736Y-98733858D01*
X105663891Y-98684896D01*
X105648431Y-98616758D01*
X105672263Y-98551078D01*
X105727820Y-98508710D01*
X105772189Y-98500500D01*
X107573920Y-98500500D01*
X107682340Y-98478933D01*
X107718913Y-98471658D01*
X107855495Y-98415084D01*
X107919505Y-98372314D01*
X107978416Y-98332952D01*
X109672495Y-96638873D01*
X110955000Y-96638873D01*
X110961386Y-96709152D01*
X111011776Y-96870862D01*
X111011778Y-96870866D01*
X111099404Y-97015818D01*
X111099407Y-97015822D01*
X111219177Y-97135592D01*
X111219181Y-97135595D01*
X111364133Y-97223221D01*
X111364137Y-97223223D01*
X111525848Y-97273613D01*
X111525846Y-97273613D01*
X111596127Y-97280000D01*
X111600000Y-97280000D01*
X111600000Y-96200000D01*
X110955000Y-96200000D01*
X110955000Y-96638873D01*
X109672495Y-96638873D01*
X110743319Y-95568049D01*
X110804642Y-95534564D01*
X110874334Y-95539548D01*
X110930267Y-95581420D01*
X110954684Y-95646884D01*
X110955000Y-95655730D01*
X110955000Y-95700000D01*
X111726000Y-95700000D01*
X111793039Y-95719685D01*
X111838794Y-95772489D01*
X111850000Y-95824000D01*
X111850000Y-95950000D01*
X111976000Y-95950000D01*
X112043039Y-95969685D01*
X112088794Y-96022489D01*
X112100000Y-96074000D01*
X112100000Y-97280000D01*
X112103873Y-97280000D01*
X112174152Y-97273613D01*
X112335862Y-97223223D01*
X112335866Y-97223221D01*
X112480818Y-97135595D01*
X112480822Y-97135592D01*
X112600593Y-97015821D01*
X112643589Y-96944695D01*
X112695116Y-96897506D01*
X112763975Y-96885667D01*
X112828304Y-96912934D01*
X112855824Y-96944693D01*
X112899008Y-97016129D01*
X112899010Y-97016132D01*
X113018867Y-97135989D01*
X113018871Y-97135992D01*
X113152404Y-97216715D01*
X113163928Y-97223681D01*
X113163930Y-97223681D01*
X113163931Y-97223682D01*
X113173860Y-97226776D01*
X113325758Y-97274110D01*
X113396079Y-97280500D01*
X113903920Y-97280499D01*
X113903927Y-97280499D01*
X113974235Y-97274111D01*
X113974236Y-97274110D01*
X113974242Y-97274110D01*
X114136072Y-97223681D01*
X114281132Y-97135990D01*
X114400990Y-97016132D01*
X114488681Y-96871072D01*
X114539110Y-96709242D01*
X114545500Y-96638921D01*
X114545499Y-96167229D01*
X114565183Y-96100191D01*
X114581818Y-96079549D01*
X114874549Y-95786819D01*
X114935872Y-95753334D01*
X114962230Y-95750500D01*
X115596659Y-95750500D01*
X115663698Y-95770185D01*
X115709453Y-95822989D01*
X115719397Y-95892147D01*
X115702198Y-95939596D01*
X115615189Y-96080659D01*
X115615185Y-96080668D01*
X115600495Y-96124999D01*
X115560001Y-96247203D01*
X115560001Y-96247204D01*
X115560000Y-96247204D01*
X115549500Y-96349983D01*
X115549500Y-96975001D01*
X115549501Y-96975019D01*
X115560000Y-97077796D01*
X115560001Y-97077799D01*
X115615185Y-97244331D01*
X115615187Y-97244336D01*
X115640818Y-97285890D01*
X115671922Y-97336319D01*
X115707289Y-97393657D01*
X115725959Y-97412327D01*
X115759444Y-97473650D01*
X115754460Y-97543342D01*
X115725959Y-97587689D01*
X115707305Y-97606342D01*
X115615203Y-97755663D01*
X115615201Y-97755668D01*
X115596839Y-97811081D01*
X115560017Y-97922203D01*
X115560017Y-97922204D01*
X115560016Y-97922204D01*
X115549516Y-98024983D01*
X115549516Y-98650001D01*
X115549517Y-98650019D01*
X115560016Y-98752796D01*
X115560017Y-98752799D01*
X115615201Y-98919331D01*
X115615203Y-98919336D01*
X115643172Y-98964681D01*
X115697037Y-99052011D01*
X115707305Y-99068657D01*
X115800967Y-99162319D01*
X115803061Y-99166154D01*
X115806747Y-99168507D01*
X115819661Y-99196554D01*
X115834452Y-99223642D01*
X115834140Y-99228001D01*
X115835969Y-99231973D01*
X115831669Y-99262548D01*
X115829468Y-99293334D01*
X115826676Y-99298054D01*
X115826240Y-99301162D01*
X115816626Y-99315053D01*
X115807250Y-99330912D01*
X115804237Y-99334410D01*
X115707304Y-99431344D01*
X115673306Y-99486462D01*
X115666892Y-99493912D01*
X115645481Y-99507765D01*
X115626519Y-99524821D01*
X115615117Y-99527412D01*
X115608231Y-99531868D01*
X115595333Y-99531908D01*
X115572928Y-99537000D01*
X115525889Y-99537000D01*
X115465471Y-99549018D01*
X115422243Y-99557616D01*
X115405046Y-99561037D01*
X115291216Y-99608187D01*
X115291207Y-99608192D01*
X115188768Y-99676640D01*
X115165409Y-99700000D01*
X115101642Y-99763767D01*
X115101639Y-99763770D01*
X114692885Y-100172523D01*
X114631562Y-100206008D01*
X114561870Y-100201024D01*
X114560277Y-100200000D01*
X113774000Y-100200000D01*
X113706961Y-100180315D01*
X113661206Y-100127511D01*
X113650000Y-100076000D01*
X113650000Y-99824000D01*
X113669685Y-99756961D01*
X113722489Y-99711206D01*
X113774000Y-99700000D01*
X114545000Y-99700000D01*
X114545000Y-99525691D01*
X114564685Y-99458652D01*
X114600110Y-99422589D01*
X114679959Y-99369235D01*
X114720034Y-99342458D01*
X114831534Y-99230958D01*
X114919139Y-99099848D01*
X114924842Y-99086081D01*
X114979482Y-98954166D01*
X114979482Y-98954165D01*
X115010245Y-98799511D01*
X115010245Y-98641827D01*
X115010245Y-98641824D01*
X115010244Y-98641822D01*
X115007075Y-98625889D01*
X114979482Y-98487172D01*
X114976069Y-98478933D01*
X114919142Y-98341496D01*
X114919135Y-98341483D01*
X114831534Y-98210380D01*
X114831531Y-98210376D01*
X114720037Y-98098882D01*
X114720033Y-98098879D01*
X114588930Y-98011278D01*
X114588917Y-98011271D01*
X114443246Y-97950933D01*
X114443234Y-97950930D01*
X114288590Y-97920169D01*
X114288587Y-97920169D01*
X114130903Y-97920169D01*
X114130900Y-97920169D01*
X113976255Y-97950930D01*
X113976243Y-97950933D01*
X113830572Y-98011271D01*
X113830560Y-98011278D01*
X113736286Y-98074271D01*
X113669609Y-98095149D01*
X113667395Y-98095169D01*
X113140943Y-98095169D01*
X113140938Y-98095168D01*
X113017725Y-98095168D01*
X112922338Y-98114142D01*
X112915602Y-98115481D01*
X112915599Y-98115482D01*
X112896878Y-98119206D01*
X112860782Y-98134158D01*
X112860781Y-98134158D01*
X112783052Y-98166353D01*
X112783039Y-98166360D01*
X112680598Y-98234810D01*
X112680594Y-98234813D01*
X112315135Y-98600272D01*
X112253812Y-98633757D01*
X112190567Y-98630977D01*
X112174242Y-98625890D01*
X112174240Y-98625889D01*
X112174238Y-98625889D01*
X112125003Y-98621415D01*
X112103921Y-98619500D01*
X112103918Y-98619500D01*
X111596071Y-98619500D01*
X111525764Y-98625888D01*
X111525757Y-98625890D01*
X111363934Y-98676316D01*
X111363926Y-98676319D01*
X111218871Y-98764007D01*
X111218867Y-98764010D01*
X111099010Y-98883867D01*
X111099010Y-98883868D01*
X111011319Y-99028926D01*
X111011317Y-99028931D01*
X110960891Y-99190753D01*
X110960889Y-99190761D01*
X110954500Y-99261081D01*
X110954500Y-100638928D01*
X110960888Y-100709235D01*
X110960890Y-100709242D01*
X111011316Y-100871065D01*
X111011319Y-100871073D01*
X111099007Y-101016128D01*
X111099010Y-101016132D01*
X111218867Y-101135989D01*
X111218871Y-101135992D01*
X111358867Y-101220622D01*
X111363928Y-101223681D01*
X111363930Y-101223681D01*
X111363931Y-101223682D01*
X111368212Y-101225016D01*
X111525758Y-101274110D01*
X111591057Y-101280043D01*
X111596078Y-101280500D01*
X111598875Y-101280627D01*
X111598869Y-101280754D01*
X111598879Y-101280755D01*
X111598859Y-101280969D01*
X111598822Y-101281779D01*
X111661505Y-101300131D01*
X111682228Y-101316818D01*
X112014139Y-101648729D01*
X112014142Y-101648733D01*
X112101267Y-101735858D01*
X112172101Y-101783188D01*
X112178080Y-101787183D01*
X112203709Y-101804309D01*
X112203712Y-101804310D01*
X112203715Y-101804312D01*
X112251049Y-101823918D01*
X112317548Y-101851463D01*
X112359533Y-101859814D01*
X112438391Y-101875499D01*
X112438392Y-101875500D01*
X112438393Y-101875500D01*
X114561608Y-101875500D01*
X114561608Y-101875499D01*
X114640467Y-101859814D01*
X114682452Y-101851463D01*
X114715792Y-101837652D01*
X114796286Y-101804312D01*
X114869088Y-101755666D01*
X114898733Y-101735858D01*
X114985858Y-101648733D01*
X114985860Y-101648729D01*
X115636441Y-100998148D01*
X115697760Y-100964666D01*
X115767452Y-100969650D01*
X115811799Y-100998151D01*
X115831360Y-101017712D01*
X115980682Y-101109814D01*
X116147219Y-101164999D01*
X116250007Y-101175500D01*
X117250024Y-101175499D01*
X117250032Y-101175498D01*
X117250035Y-101175498D01*
X117306318Y-101169748D01*
X117352813Y-101164999D01*
X117519350Y-101109814D01*
X117668672Y-101017712D01*
X117792728Y-100893656D01*
X117884830Y-100744334D01*
X117940015Y-100577797D01*
X117950516Y-100475009D01*
X117950515Y-99849992D01*
X117948660Y-99831836D01*
X117940015Y-99747203D01*
X117940014Y-99747200D01*
X117916633Y-99676642D01*
X117884830Y-99580666D01*
X117792728Y-99431344D01*
X117699065Y-99337681D01*
X117665580Y-99276358D01*
X117670564Y-99206666D01*
X117699065Y-99162319D01*
X117737384Y-99124000D01*
X117792728Y-99068656D01*
X117884830Y-98919334D01*
X117940015Y-98752797D01*
X117950516Y-98650009D01*
X117950515Y-98024992D01*
X117949113Y-98011271D01*
X117940015Y-97922203D01*
X117940014Y-97922200D01*
X117936344Y-97911126D01*
X117884830Y-97755666D01*
X117792728Y-97606344D01*
X117774057Y-97587673D01*
X117740572Y-97526350D01*
X117745556Y-97456658D01*
X117774057Y-97412311D01*
X117792712Y-97393656D01*
X117884814Y-97244334D01*
X117909161Y-97170857D01*
X117939184Y-97122182D01*
X119579852Y-95481515D01*
X119661985Y-95358594D01*
X119665549Y-95349991D01*
X119686703Y-95298920D01*
X119690865Y-95288873D01*
X123955000Y-95288873D01*
X123961386Y-95359152D01*
X124011776Y-95520862D01*
X124011778Y-95520866D01*
X124099404Y-95665818D01*
X124099407Y-95665822D01*
X124219177Y-95785592D01*
X124219181Y-95785595D01*
X124364133Y-95873221D01*
X124364137Y-95873223D01*
X124525848Y-95923613D01*
X124525846Y-95923613D01*
X124596127Y-95930000D01*
X124600000Y-95930000D01*
X124600000Y-94850000D01*
X123955000Y-94850000D01*
X123955000Y-95288873D01*
X119690865Y-95288873D01*
X119718559Y-95222012D01*
X119746675Y-95080668D01*
X119747401Y-95077019D01*
X119747401Y-93624500D01*
X119767086Y-93557461D01*
X119819890Y-93511706D01*
X119871401Y-93500500D01*
X123900388Y-93500500D01*
X123967427Y-93520185D01*
G37*
%TD.AperFunction*%
%TA.AperFunction,Conductor*%
G36*
X102794850Y-98520185D02*
G01*
X102840605Y-98572989D01*
X102850549Y-98642147D01*
X102821524Y-98705703D01*
X102786264Y-98733858D01*
X102525690Y-98873137D01*
X102525672Y-98873148D01*
X102252004Y-99056007D01*
X102251999Y-99056010D01*
X102063917Y-99210364D01*
X102063917Y-99210365D01*
X103309301Y-100455748D01*
X103207670Y-100529588D01*
X103029588Y-100707670D01*
X102955748Y-100809301D01*
X101710365Y-99563917D01*
X101675584Y-99565626D01*
X101607659Y-99549254D01*
X101559368Y-99498759D01*
X101545499Y-99441777D01*
X101545499Y-98624499D01*
X101565184Y-98557461D01*
X101617988Y-98511706D01*
X101669499Y-98500500D01*
X102727811Y-98500500D01*
X102794850Y-98520185D01*
G37*
%TD.AperFunction*%
%TA.AperFunction,Conductor*%
G36*
X136934800Y-93520185D02*
G01*
X136980555Y-93572989D01*
X136990499Y-93642147D01*
X136986147Y-93661390D01*
X136961385Y-93740852D01*
X136955000Y-93811126D01*
X136955000Y-94250000D01*
X137726000Y-94250000D01*
X137793039Y-94269685D01*
X137838794Y-94322489D01*
X137850000Y-94374000D01*
X137850000Y-94500000D01*
X137976000Y-94500000D01*
X138043039Y-94519685D01*
X138088794Y-94572489D01*
X138100000Y-94624000D01*
X138100000Y-95830000D01*
X138103873Y-95830000D01*
X138174152Y-95823613D01*
X138335862Y-95773223D01*
X138335866Y-95773221D01*
X138480818Y-95685595D01*
X138480822Y-95685592D01*
X138600593Y-95565821D01*
X138643589Y-95494695D01*
X138695116Y-95447506D01*
X138763975Y-95435667D01*
X138828304Y-95462934D01*
X138855824Y-95494693D01*
X138899010Y-95566132D01*
X139018867Y-95685989D01*
X139018871Y-95685992D01*
X139130269Y-95753334D01*
X139163928Y-95773681D01*
X139325758Y-95824110D01*
X139396079Y-95830500D01*
X139903920Y-95830499D01*
X139903927Y-95830499D01*
X139974235Y-95824111D01*
X139974236Y-95824110D01*
X139974242Y-95824110D01*
X140136072Y-95773681D01*
X140281132Y-95685990D01*
X140400990Y-95566132D01*
X140488681Y-95421072D01*
X140539110Y-95259242D01*
X140545500Y-95188921D01*
X140545499Y-94586999D01*
X140565183Y-94519961D01*
X140617987Y-94474206D01*
X140669499Y-94463000D01*
X141072912Y-94463000D01*
X141139951Y-94482685D01*
X141166876Y-94506088D01*
X141173290Y-94513537D01*
X141207288Y-94568656D01*
X141304221Y-94665589D01*
X141307234Y-94669088D01*
X141319819Y-94696873D01*
X141334436Y-94723642D01*
X141334096Y-94728393D01*
X141336062Y-94732734D01*
X141331627Y-94762909D01*
X141329452Y-94793334D01*
X141326476Y-94797963D01*
X141325904Y-94801861D01*
X141318555Y-94810288D01*
X141300951Y-94837681D01*
X141207289Y-94931342D01*
X141115187Y-95080663D01*
X141115185Y-95080668D01*
X141108643Y-95100410D01*
X141060001Y-95247203D01*
X141060001Y-95247204D01*
X141060000Y-95247204D01*
X141049500Y-95349983D01*
X141049500Y-95975001D01*
X141049501Y-95975019D01*
X141060000Y-96077796D01*
X141060001Y-96077799D01*
X141115185Y-96244331D01*
X141115187Y-96244336D01*
X141146243Y-96294686D01*
X141201430Y-96384159D01*
X141207289Y-96393657D01*
X141269708Y-96456076D01*
X141303193Y-96517399D01*
X141298209Y-96587091D01*
X141269710Y-96631437D01*
X141207303Y-96693844D01*
X141115203Y-96843163D01*
X141115201Y-96843168D01*
X141097195Y-96897506D01*
X141060017Y-97009703D01*
X141060017Y-97009704D01*
X141060016Y-97009704D01*
X141049516Y-97112483D01*
X141049516Y-97737501D01*
X141049517Y-97737519D01*
X141060016Y-97840296D01*
X141060017Y-97840299D01*
X141115201Y-98006831D01*
X141115203Y-98006836D01*
X141138549Y-98044686D01*
X141201285Y-98146398D01*
X141207305Y-98156157D01*
X141300967Y-98249819D01*
X141334452Y-98311142D01*
X141329468Y-98380834D01*
X141300967Y-98425181D01*
X141207305Y-98518842D01*
X141115203Y-98668163D01*
X141115201Y-98668168D01*
X141098693Y-98717987D01*
X141060017Y-98834703D01*
X141060017Y-98834704D01*
X141060016Y-98834704D01*
X141049516Y-98937483D01*
X141049516Y-99000500D01*
X141029831Y-99067539D01*
X140977027Y-99113294D01*
X140925516Y-99124500D01*
X140669000Y-99124500D01*
X140601961Y-99104815D01*
X140556206Y-99052011D01*
X140545000Y-99000500D01*
X140545000Y-98750000D01*
X139774000Y-98750000D01*
X139706961Y-98730315D01*
X139661206Y-98677511D01*
X139650000Y-98626000D01*
X139650000Y-98500000D01*
X139524000Y-98500000D01*
X139456961Y-98480315D01*
X139411206Y-98427511D01*
X139400000Y-98376000D01*
X139400000Y-98250000D01*
X139900000Y-98250000D01*
X140545000Y-98250000D01*
X140545000Y-97811126D01*
X140538613Y-97740847D01*
X140488223Y-97579137D01*
X140488221Y-97579133D01*
X140400595Y-97434181D01*
X140400592Y-97434177D01*
X140280822Y-97314407D01*
X140280818Y-97314404D01*
X140135866Y-97226778D01*
X140135862Y-97226776D01*
X139974151Y-97176386D01*
X139974153Y-97176386D01*
X139903873Y-97170000D01*
X139900000Y-97170000D01*
X139900000Y-98250000D01*
X139400000Y-98250000D01*
X139400000Y-97170000D01*
X139396127Y-97170000D01*
X139325847Y-97176386D01*
X139164137Y-97226776D01*
X139164133Y-97226778D01*
X139019181Y-97314404D01*
X139019177Y-97314407D01*
X138899407Y-97434177D01*
X138856409Y-97505306D01*
X138804881Y-97552493D01*
X138736022Y-97564332D01*
X138671693Y-97537063D01*
X138644175Y-97505305D01*
X138600992Y-97433871D01*
X138600989Y-97433867D01*
X138481132Y-97314010D01*
X138481128Y-97314007D01*
X138336073Y-97226319D01*
X138336068Y-97226317D01*
X138174246Y-97175891D01*
X138174238Y-97175889D01*
X138125003Y-97171415D01*
X138103921Y-97169500D01*
X138103918Y-97169500D01*
X137596071Y-97169500D01*
X137525764Y-97175888D01*
X137525757Y-97175890D01*
X137363934Y-97226316D01*
X137363926Y-97226319D01*
X137218871Y-97314007D01*
X137218867Y-97314010D01*
X137099010Y-97433867D01*
X137099007Y-97433871D01*
X137011319Y-97578926D01*
X137011317Y-97578931D01*
X136960891Y-97740753D01*
X136960889Y-97740761D01*
X136954500Y-97811081D01*
X136954500Y-98459546D01*
X136934815Y-98526585D01*
X136918181Y-98547227D01*
X136500728Y-98964681D01*
X135655820Y-99809590D01*
X135252252Y-100213158D01*
X135190929Y-100246643D01*
X135164571Y-100249477D01*
X130980159Y-100249477D01*
X130913120Y-100229792D01*
X130867365Y-100176988D01*
X130857421Y-100107830D01*
X130886446Y-100044274D01*
X130915064Y-100019938D01*
X130918667Y-100017715D01*
X130918666Y-100017715D01*
X130918672Y-100017712D01*
X131042728Y-99893656D01*
X131134830Y-99744334D01*
X131190015Y-99577797D01*
X131200516Y-99475009D01*
X131200515Y-98849992D01*
X131199526Y-98840315D01*
X131190015Y-98747203D01*
X131190014Y-98747200D01*
X131176263Y-98705703D01*
X131134830Y-98580666D01*
X131042728Y-98431344D01*
X130949065Y-98337681D01*
X130915580Y-98276358D01*
X130920564Y-98206666D01*
X130949065Y-98162319D01*
X130992178Y-98119206D01*
X131042728Y-98068656D01*
X131134830Y-97919334D01*
X131190015Y-97752797D01*
X131200516Y-97650009D01*
X131200515Y-97024992D01*
X131198953Y-97009704D01*
X131190015Y-96922203D01*
X131190014Y-96922200D01*
X131173072Y-96871072D01*
X131134830Y-96755666D01*
X131042728Y-96606344D01*
X131024065Y-96587681D01*
X130990580Y-96526358D01*
X130995564Y-96456666D01*
X131024065Y-96412319D01*
X131042728Y-96393656D01*
X131134830Y-96244334D01*
X131159185Y-96170833D01*
X131189208Y-96122158D01*
X132122494Y-95188873D01*
X136955000Y-95188873D01*
X136961386Y-95259152D01*
X137011776Y-95420862D01*
X137011778Y-95420866D01*
X137099404Y-95565818D01*
X137099407Y-95565822D01*
X137219177Y-95685592D01*
X137219181Y-95685595D01*
X137364133Y-95773221D01*
X137364137Y-95773223D01*
X137525848Y-95823613D01*
X137525846Y-95823613D01*
X137596127Y-95830000D01*
X137600000Y-95830000D01*
X137600000Y-94750000D01*
X136955000Y-94750000D01*
X136955000Y-95188873D01*
X132122494Y-95188873D01*
X133774549Y-93536819D01*
X133835872Y-93503334D01*
X133862230Y-93500500D01*
X136867761Y-93500500D01*
X136934800Y-93520185D01*
G37*
%TD.AperFunction*%
%TA.AperFunction,Conductor*%
G36*
X97898039Y-98520185D02*
G01*
X97943794Y-98572989D01*
X97955000Y-98624500D01*
X97955000Y-99000000D01*
X98726000Y-99000000D01*
X98793039Y-99019685D01*
X98838794Y-99072489D01*
X98850000Y-99124000D01*
X98850000Y-99376000D01*
X98830315Y-99443039D01*
X98777511Y-99488794D01*
X98726000Y-99500000D01*
X97955000Y-99500000D01*
X97955000Y-99750500D01*
X97935315Y-99817539D01*
X97882511Y-99863294D01*
X97831000Y-99874500D01*
X97072643Y-99874500D01*
X97005604Y-99854815D01*
X96959849Y-99802011D01*
X96949285Y-99763102D01*
X96940452Y-99676642D01*
X96939999Y-99672203D01*
X96884814Y-99505666D01*
X96792712Y-99356344D01*
X96668656Y-99232288D01*
X96519334Y-99140186D01*
X96470488Y-99124000D01*
X96356057Y-99086081D01*
X96298612Y-99046308D01*
X96271789Y-98981792D01*
X96284104Y-98913016D01*
X96307377Y-98880697D01*
X96536054Y-98652020D01*
X96580480Y-98623492D01*
X96890023Y-98508287D01*
X96933274Y-98500500D01*
X97831000Y-98500500D01*
X97898039Y-98520185D01*
G37*
%TD.AperFunction*%
%TD*%
M02*
