%TF.GenerationSoftware,KiCad,Pcbnew,9.0.1*%
%TF.CreationDate,2025-05-09T11:22:53+02:00*%
%TF.ProjectId,FL-Zetor-Senzor,464c2d5a-6574-46f7-922d-53656e7a6f72,rev?*%
%TF.SameCoordinates,Original*%
%TF.FileFunction,Legend,Top*%
%TF.FilePolarity,Positive*%
%FSLAX46Y46*%
G04 Gerber Fmt 4.6, Leading zero omitted, Abs format (unit mm)*
G04 Created by KiCad (PCBNEW 9.0.1) date 2025-05-09 11:22:53*
%MOMM*%
%LPD*%
G01*
G04 APERTURE LIST*
%ADD10C,0.300000*%
%ADD11C,0.150000*%
%ADD12C,0.120000*%
%ADD13C,0.000000*%
G04 APERTURE END LIST*
D10*
G36*
X132799850Y-94734060D02*
G01*
X132826025Y-94786411D01*
X132418796Y-94867857D01*
X132418796Y-94800523D01*
X132452027Y-94734060D01*
X132518492Y-94700828D01*
X132733386Y-94700828D01*
X132799850Y-94734060D01*
G37*
G36*
X134965657Y-94745535D02*
G01*
X135002661Y-94782539D01*
X135047367Y-94871951D01*
X135047367Y-95229704D01*
X135002660Y-95319117D01*
X134965655Y-95356122D01*
X134876243Y-95400828D01*
X134732777Y-95400828D01*
X134643363Y-95356121D01*
X134606358Y-95319116D01*
X134561653Y-95229704D01*
X134561653Y-94871951D01*
X134606358Y-94782540D01*
X134643363Y-94745535D01*
X134732777Y-94700828D01*
X134876243Y-94700828D01*
X134965657Y-94745535D01*
G37*
G36*
X139799849Y-94734060D02*
G01*
X139826024Y-94786411D01*
X139418795Y-94867857D01*
X139418795Y-94800523D01*
X139452026Y-94734060D01*
X139518491Y-94700828D01*
X139733385Y-94700828D01*
X139799849Y-94734060D01*
G37*
G36*
X143679942Y-94745535D02*
G01*
X143716946Y-94782539D01*
X143761652Y-94871951D01*
X143761652Y-95229704D01*
X143716945Y-95319117D01*
X143679940Y-95356122D01*
X143590528Y-95400828D01*
X143447062Y-95400828D01*
X143357648Y-95356121D01*
X143320643Y-95319116D01*
X143275938Y-95229704D01*
X143275938Y-94871951D01*
X143320643Y-94782540D01*
X143357648Y-94745535D01*
X143447062Y-94700828D01*
X143590528Y-94700828D01*
X143679942Y-94745535D01*
G37*
G36*
X150537084Y-94245535D02*
G01*
X150574088Y-94282539D01*
X150627266Y-94388897D01*
X150690223Y-94640721D01*
X150690223Y-94960935D01*
X150627266Y-95212759D01*
X150574087Y-95319117D01*
X150537082Y-95356122D01*
X150447670Y-95400828D01*
X150375633Y-95400828D01*
X150286219Y-95356121D01*
X150249215Y-95319117D01*
X150196034Y-95212757D01*
X150133080Y-94960936D01*
X150133080Y-94640720D01*
X150196034Y-94388898D01*
X150249215Y-94282538D01*
X150286219Y-94245535D01*
X150375633Y-94200828D01*
X150447670Y-94200828D01*
X150537084Y-94245535D01*
G37*
G36*
X151156890Y-96010352D02*
G01*
X126237843Y-96010352D01*
X126237843Y-94050828D01*
X126404510Y-94050828D01*
X126404510Y-95550828D01*
X126407392Y-95580090D01*
X126407392Y-95580092D01*
X126429790Y-95634164D01*
X126471174Y-95675548D01*
X126525246Y-95697946D01*
X126554510Y-95700828D01*
X127268796Y-95700828D01*
X127298060Y-95697946D01*
X127352132Y-95675548D01*
X127393516Y-95634164D01*
X127415914Y-95580092D01*
X127415914Y-95521564D01*
X127393516Y-95467492D01*
X127352132Y-95426108D01*
X127298060Y-95403710D01*
X127268796Y-95400828D01*
X126704510Y-95400828D01*
X126704510Y-94050828D01*
X127618796Y-94050828D01*
X127618796Y-95550828D01*
X127621678Y-95580092D01*
X127644076Y-95634164D01*
X127685460Y-95675548D01*
X127739532Y-95697946D01*
X127798060Y-95697946D01*
X127852132Y-95675548D01*
X127893516Y-95634164D01*
X127915914Y-95580092D01*
X127918780Y-95550986D01*
X130618796Y-95550986D01*
X130621678Y-95565395D01*
X130621678Y-95580092D01*
X130627361Y-95593812D01*
X130630274Y-95608375D01*
X130638452Y-95620587D01*
X130644076Y-95634164D01*
X130654574Y-95644662D01*
X130662840Y-95657005D01*
X130675070Y-95665158D01*
X130685460Y-95675548D01*
X130699181Y-95681231D01*
X130711539Y-95689470D01*
X130725953Y-95692321D01*
X130739532Y-95697946D01*
X130768796Y-95700828D01*
X130768954Y-95700828D01*
X131768796Y-95700828D01*
X131798060Y-95697946D01*
X131852132Y-95675548D01*
X131893516Y-95634164D01*
X131915914Y-95580092D01*
X131915914Y-95521564D01*
X131893516Y-95467492D01*
X131852132Y-95426108D01*
X131798060Y-95403710D01*
X131768796Y-95400828D01*
X131049074Y-95400828D01*
X131472883Y-94765114D01*
X132118796Y-94765114D01*
X132118796Y-95336542D01*
X132121678Y-95365806D01*
X132123740Y-95370784D01*
X132124122Y-95376160D01*
X132134632Y-95403623D01*
X132206060Y-95546482D01*
X132209139Y-95551374D01*
X132209910Y-95553685D01*
X132212405Y-95556562D01*
X132221725Y-95571367D01*
X132235931Y-95583688D01*
X132248257Y-95597900D01*
X132263061Y-95607218D01*
X132265939Y-95609714D01*
X132268250Y-95610484D01*
X132273143Y-95613564D01*
X132416001Y-95684993D01*
X132443464Y-95695502D01*
X132448839Y-95695883D01*
X132453818Y-95697946D01*
X132483082Y-95700828D01*
X132768796Y-95700828D01*
X132798060Y-95697946D01*
X132803038Y-95695883D01*
X132808414Y-95695502D01*
X132835878Y-95684992D01*
X132978735Y-95613564D01*
X133003621Y-95597899D01*
X133041967Y-95553684D01*
X133060475Y-95498162D01*
X133056327Y-95439782D01*
X133030153Y-95387433D01*
X132985938Y-95349086D01*
X132930415Y-95330578D01*
X132872035Y-95334726D01*
X132844572Y-95345236D01*
X132733386Y-95400828D01*
X132518491Y-95400828D01*
X132452028Y-95367597D01*
X132418796Y-95301133D01*
X132418796Y-95173798D01*
X133012345Y-95055089D01*
X133012346Y-95055089D01*
X133012346Y-95055088D01*
X133012500Y-95055058D01*
X133040630Y-95046493D01*
X133052841Y-95038314D01*
X133066418Y-95032691D01*
X133076919Y-95022189D01*
X133089260Y-95013925D01*
X133097412Y-95001697D01*
X133107802Y-94991307D01*
X133113484Y-94977587D01*
X133121724Y-94965229D01*
X133124576Y-94950811D01*
X133130200Y-94937235D01*
X133133082Y-94907971D01*
X133133082Y-94907819D01*
X133133083Y-94907814D01*
X133133082Y-94907809D01*
X133133082Y-94765114D01*
X133130200Y-94735850D01*
X133128136Y-94730869D01*
X133127755Y-94725495D01*
X133117246Y-94698031D01*
X133045817Y-94555175D01*
X133042736Y-94550280D01*
X133041967Y-94547973D01*
X133039474Y-94545098D01*
X133030152Y-94530289D01*
X133020092Y-94521564D01*
X133264535Y-94521564D01*
X133264535Y-94580092D01*
X133286933Y-94634164D01*
X133328317Y-94675548D01*
X133382389Y-94697946D01*
X133411653Y-94700828D01*
X133475938Y-94700828D01*
X133475938Y-95336542D01*
X133478820Y-95365806D01*
X133480881Y-95370783D01*
X133481264Y-95376161D01*
X133491774Y-95403624D01*
X133563203Y-95546482D01*
X133566283Y-95551376D01*
X133567053Y-95553684D01*
X133569545Y-95556557D01*
X133578868Y-95571368D01*
X133593079Y-95583692D01*
X133605400Y-95597899D01*
X133620207Y-95607220D01*
X133623083Y-95609714D01*
X133625391Y-95610483D01*
X133630285Y-95613564D01*
X133773143Y-95684992D01*
X133800606Y-95695502D01*
X133805981Y-95695883D01*
X133810960Y-95697946D01*
X133840224Y-95700828D01*
X133983081Y-95700828D01*
X134012345Y-95697946D01*
X134066417Y-95675548D01*
X134107801Y-95634164D01*
X134130199Y-95580092D01*
X134130199Y-95521564D01*
X134107801Y-95467492D01*
X134066417Y-95426108D01*
X134012345Y-95403710D01*
X133983081Y-95400828D01*
X133875634Y-95400828D01*
X133809170Y-95367596D01*
X133775938Y-95301132D01*
X133775938Y-94836542D01*
X134261653Y-94836542D01*
X134261653Y-95265114D01*
X134264535Y-95294378D01*
X134266597Y-95299356D01*
X134266979Y-95304732D01*
X134277489Y-95332196D01*
X134348917Y-95475053D01*
X134356844Y-95487646D01*
X134358360Y-95491306D01*
X134361741Y-95495425D01*
X134364582Y-95499939D01*
X134367575Y-95502535D01*
X134377015Y-95514037D01*
X134448444Y-95585466D01*
X134459948Y-95594907D01*
X134462543Y-95597899D01*
X134467052Y-95600737D01*
X134471175Y-95604121D01*
X134474836Y-95605637D01*
X134487428Y-95613564D01*
X134630286Y-95684992D01*
X134657749Y-95695502D01*
X134663124Y-95695883D01*
X134668103Y-95697946D01*
X134697367Y-95700828D01*
X134911653Y-95700828D01*
X134940917Y-95697946D01*
X134945895Y-95695883D01*
X134951271Y-95695502D01*
X134978735Y-95684992D01*
X135121592Y-95613564D01*
X135134185Y-95605636D01*
X135137845Y-95604121D01*
X135141964Y-95600739D01*
X135146478Y-95597899D01*
X135149074Y-95594905D01*
X135160576Y-95585466D01*
X135232005Y-95514037D01*
X135241446Y-95502532D01*
X135244438Y-95499938D01*
X135247276Y-95495428D01*
X135250660Y-95491306D01*
X135252176Y-95487644D01*
X135260103Y-95475053D01*
X135331531Y-95332195D01*
X135342041Y-95304732D01*
X135342422Y-95299356D01*
X135344485Y-95294378D01*
X135347367Y-95265114D01*
X135347367Y-94836542D01*
X135344485Y-94807278D01*
X135342422Y-94802299D01*
X135342041Y-94796924D01*
X135331531Y-94769461D01*
X135260103Y-94626603D01*
X135252174Y-94614008D01*
X135250659Y-94610349D01*
X135247277Y-94606228D01*
X135244438Y-94601718D01*
X135241446Y-94599123D01*
X135232004Y-94587618D01*
X135195213Y-94550828D01*
X135690224Y-94550828D01*
X135690224Y-95550828D01*
X135693106Y-95580092D01*
X135715504Y-95634164D01*
X135756888Y-95675548D01*
X135810960Y-95697946D01*
X135869488Y-95697946D01*
X135923560Y-95675548D01*
X135934687Y-95664421D01*
X136264535Y-95664421D01*
X136264535Y-95722949D01*
X136286933Y-95777021D01*
X136328317Y-95818405D01*
X136382389Y-95840803D01*
X136411653Y-95843685D01*
X137554510Y-95843685D01*
X137583774Y-95840803D01*
X137637846Y-95818405D01*
X137679230Y-95777021D01*
X137701628Y-95722949D01*
X137701628Y-95664421D01*
X137679230Y-95610349D01*
X137637846Y-95568965D01*
X137583774Y-95546567D01*
X137554510Y-95543685D01*
X136411653Y-95543685D01*
X136382389Y-95546567D01*
X136328317Y-95568965D01*
X136286933Y-95610349D01*
X136264535Y-95664421D01*
X135934687Y-95664421D01*
X135964944Y-95634164D01*
X135987342Y-95580092D01*
X135990224Y-95550828D01*
X135990224Y-94871952D01*
X136034931Y-94782538D01*
X136071935Y-94745535D01*
X136161349Y-94700828D01*
X136268796Y-94700828D01*
X136298060Y-94697946D01*
X136352132Y-94675548D01*
X136393516Y-94634164D01*
X136415914Y-94580092D01*
X136415914Y-94521564D01*
X136393516Y-94467492D01*
X136352132Y-94426108D01*
X136298060Y-94403710D01*
X136268796Y-94400828D01*
X136125939Y-94400828D01*
X136096675Y-94403710D01*
X136091694Y-94405773D01*
X136086320Y-94406155D01*
X136058856Y-94416664D01*
X135962363Y-94464911D01*
X135923560Y-94426108D01*
X135869488Y-94403710D01*
X135810960Y-94403710D01*
X135756888Y-94426108D01*
X135715504Y-94467492D01*
X135693106Y-94521564D01*
X135690224Y-94550828D01*
X135195213Y-94550828D01*
X135160575Y-94516190D01*
X135149075Y-94506752D01*
X135146478Y-94503758D01*
X135141961Y-94500915D01*
X135137844Y-94497536D01*
X135134187Y-94496021D01*
X135121592Y-94488093D01*
X134978735Y-94416664D01*
X134951272Y-94406155D01*
X134945897Y-94405773D01*
X134940917Y-94403710D01*
X134911653Y-94400828D01*
X134697367Y-94400828D01*
X134668103Y-94403710D01*
X134663122Y-94405773D01*
X134657748Y-94406155D01*
X134630284Y-94416664D01*
X134487428Y-94488093D01*
X134474834Y-94496020D01*
X134471175Y-94497536D01*
X134467054Y-94500917D01*
X134462542Y-94503758D01*
X134459945Y-94506751D01*
X134448445Y-94516190D01*
X134377016Y-94587618D01*
X134367576Y-94599120D01*
X134364582Y-94601717D01*
X134361740Y-94606231D01*
X134358361Y-94610349D01*
X134356845Y-94614007D01*
X134348917Y-94626603D01*
X134277489Y-94769460D01*
X134266979Y-94796924D01*
X134266597Y-94802299D01*
X134264535Y-94807278D01*
X134261653Y-94836542D01*
X133775938Y-94836542D01*
X133775938Y-94700828D01*
X133983081Y-94700828D01*
X134012345Y-94697946D01*
X134066417Y-94675548D01*
X134107801Y-94634164D01*
X134130199Y-94580092D01*
X134130199Y-94521564D01*
X134107801Y-94467492D01*
X134066417Y-94426108D01*
X134012345Y-94403710D01*
X133983081Y-94400828D01*
X133775938Y-94400828D01*
X133775938Y-94336542D01*
X137690224Y-94336542D01*
X137690224Y-94479400D01*
X137693106Y-94508664D01*
X137695168Y-94513642D01*
X137695550Y-94519018D01*
X137706060Y-94546482D01*
X137777488Y-94689339D01*
X137785416Y-94701934D01*
X137786932Y-94705593D01*
X137790311Y-94709710D01*
X137793153Y-94714225D01*
X137796147Y-94716821D01*
X137805587Y-94728324D01*
X137877016Y-94799752D01*
X137888516Y-94809190D01*
X137891113Y-94812184D01*
X137895625Y-94815024D01*
X137899746Y-94818406D01*
X137903405Y-94819921D01*
X137915999Y-94827849D01*
X138058855Y-94899278D01*
X138060997Y-94900097D01*
X138061867Y-94900742D01*
X138074138Y-94905126D01*
X138086319Y-94909787D01*
X138087399Y-94909863D01*
X138089558Y-94910635D01*
X138359296Y-94978069D01*
X138465655Y-95031248D01*
X138502659Y-95068253D01*
X138547367Y-95157667D01*
X138547367Y-95229703D01*
X138502659Y-95319117D01*
X138465656Y-95356121D01*
X138376243Y-95400828D01*
X138078853Y-95400828D01*
X137887658Y-95337097D01*
X137858984Y-95330577D01*
X137800604Y-95334727D01*
X137748257Y-95360901D01*
X137709909Y-95405115D01*
X137691401Y-95460640D01*
X137695551Y-95519020D01*
X137721725Y-95571367D01*
X137765939Y-95609715D01*
X137792790Y-95621703D01*
X138007076Y-95693131D01*
X138021588Y-95696430D01*
X138025246Y-95697946D01*
X138030548Y-95698468D01*
X138035750Y-95699651D01*
X138039704Y-95699369D01*
X138054510Y-95700828D01*
X138411652Y-95700828D01*
X138440916Y-95697946D01*
X138445894Y-95695883D01*
X138451270Y-95695502D01*
X138478733Y-95684992D01*
X138621592Y-95613564D01*
X138634186Y-95605635D01*
X138637846Y-95604120D01*
X138641966Y-95600738D01*
X138646477Y-95597899D01*
X138649071Y-95594907D01*
X138660577Y-95585465D01*
X138732005Y-95514036D01*
X138741443Y-95502535D01*
X138744437Y-95499939D01*
X138747277Y-95495426D01*
X138750659Y-95491306D01*
X138752174Y-95487646D01*
X138760102Y-95475053D01*
X138831531Y-95332197D01*
X138842040Y-95304733D01*
X138842421Y-95299358D01*
X138844485Y-95294378D01*
X138847367Y-95265114D01*
X138847367Y-95122257D01*
X138844485Y-95092993D01*
X138842421Y-95088012D01*
X138842040Y-95082638D01*
X138831531Y-95055174D01*
X138760102Y-94912318D01*
X138752174Y-94899724D01*
X138750659Y-94896065D01*
X138747277Y-94891944D01*
X138744437Y-94887432D01*
X138741443Y-94884835D01*
X138732005Y-94873335D01*
X138660577Y-94801906D01*
X138649074Y-94792466D01*
X138646478Y-94789472D01*
X138641963Y-94786630D01*
X138637846Y-94783251D01*
X138634187Y-94781735D01*
X138621592Y-94773807D01*
X138604206Y-94765114D01*
X139118795Y-94765114D01*
X139118795Y-95336542D01*
X139121677Y-95365806D01*
X139123739Y-95370784D01*
X139124121Y-95376160D01*
X139134631Y-95403623D01*
X139206059Y-95546482D01*
X139209138Y-95551374D01*
X139209909Y-95553685D01*
X139212404Y-95556562D01*
X139221724Y-95571367D01*
X139235930Y-95583688D01*
X139248256Y-95597900D01*
X139263060Y-95607218D01*
X139265938Y-95609714D01*
X139268249Y-95610484D01*
X139273142Y-95613564D01*
X139416000Y-95684993D01*
X139443463Y-95695502D01*
X139448838Y-95695883D01*
X139453817Y-95697946D01*
X139483081Y-95700828D01*
X139768795Y-95700828D01*
X139798059Y-95697946D01*
X139803037Y-95695883D01*
X139808413Y-95695502D01*
X139835877Y-95684992D01*
X139978734Y-95613564D01*
X140003620Y-95597899D01*
X140041966Y-95553684D01*
X140060474Y-95498162D01*
X140056326Y-95439782D01*
X140030152Y-95387433D01*
X139985937Y-95349086D01*
X139930414Y-95330578D01*
X139872034Y-95334726D01*
X139844571Y-95345236D01*
X139733385Y-95400828D01*
X139518490Y-95400828D01*
X139452027Y-95367597D01*
X139418795Y-95301133D01*
X139418795Y-95173798D01*
X140012344Y-95055089D01*
X140012345Y-95055089D01*
X140012345Y-95055088D01*
X140012499Y-95055058D01*
X140040629Y-95046493D01*
X140052840Y-95038314D01*
X140066417Y-95032691D01*
X140076918Y-95022189D01*
X140089259Y-95013925D01*
X140097411Y-95001697D01*
X140107801Y-94991307D01*
X140113483Y-94977587D01*
X140121723Y-94965229D01*
X140124575Y-94950811D01*
X140130199Y-94937235D01*
X140133081Y-94907971D01*
X140133081Y-94907819D01*
X140133082Y-94907814D01*
X140133081Y-94907809D01*
X140133081Y-94765114D01*
X140130199Y-94735850D01*
X140128135Y-94730869D01*
X140127754Y-94725495D01*
X140117245Y-94698031D01*
X140045816Y-94555175D01*
X140043080Y-94550828D01*
X140475937Y-94550828D01*
X140475937Y-95550828D01*
X140478819Y-95580092D01*
X140501217Y-95634164D01*
X140542601Y-95675548D01*
X140596673Y-95697946D01*
X140655201Y-95697946D01*
X140709273Y-95675548D01*
X140750657Y-95634164D01*
X140773055Y-95580092D01*
X140775937Y-95550828D01*
X140775937Y-94755817D01*
X140786219Y-94745535D01*
X140875633Y-94700828D01*
X141019099Y-94700828D01*
X141085563Y-94734060D01*
X141118795Y-94800524D01*
X141118795Y-95550828D01*
X141121677Y-95580092D01*
X141144075Y-95634164D01*
X141185459Y-95675548D01*
X141239531Y-95697946D01*
X141298059Y-95697946D01*
X141352131Y-95675548D01*
X141393515Y-95634164D01*
X141415913Y-95580092D01*
X141418795Y-95550828D01*
X141418795Y-95539302D01*
X141690667Y-95539302D01*
X141693105Y-95559618D01*
X141693105Y-95580092D01*
X141696563Y-95588441D01*
X141697640Y-95597411D01*
X141707670Y-95615254D01*
X141715503Y-95634164D01*
X141721890Y-95640551D01*
X141726319Y-95648430D01*
X141742417Y-95661078D01*
X141756887Y-95675548D01*
X141765235Y-95679006D01*
X141772341Y-95684589D01*
X141792046Y-95690111D01*
X141810959Y-95697946D01*
X141824895Y-95699318D01*
X141828697Y-95700384D01*
X141831860Y-95700004D01*
X141840223Y-95700828D01*
X142625938Y-95700828D01*
X142655202Y-95697946D01*
X142709274Y-95675548D01*
X142750658Y-95634164D01*
X142773056Y-95580092D01*
X142773056Y-95521564D01*
X142750658Y-95467492D01*
X142709274Y-95426108D01*
X142655202Y-95403710D01*
X142625938Y-95400828D01*
X142148843Y-95400828D01*
X142592211Y-94836542D01*
X142975938Y-94836542D01*
X142975938Y-95265114D01*
X142978820Y-95294378D01*
X142980882Y-95299356D01*
X142981264Y-95304732D01*
X142991774Y-95332196D01*
X143063202Y-95475053D01*
X143071129Y-95487646D01*
X143072645Y-95491306D01*
X143076026Y-95495425D01*
X143078867Y-95499939D01*
X143081860Y-95502535D01*
X143091300Y-95514037D01*
X143162729Y-95585466D01*
X143174233Y-95594907D01*
X143176828Y-95597899D01*
X143181337Y-95600737D01*
X143185460Y-95604121D01*
X143189121Y-95605637D01*
X143201713Y-95613564D01*
X143344571Y-95684992D01*
X143372034Y-95695502D01*
X143377409Y-95695883D01*
X143382388Y-95697946D01*
X143411652Y-95700828D01*
X143625938Y-95700828D01*
X143655202Y-95697946D01*
X143660180Y-95695883D01*
X143665556Y-95695502D01*
X143693020Y-95684992D01*
X143835877Y-95613564D01*
X143848470Y-95605636D01*
X143852130Y-95604121D01*
X143856249Y-95600739D01*
X143860763Y-95597899D01*
X143863359Y-95594905D01*
X143874861Y-95585466D01*
X143946290Y-95514037D01*
X143955731Y-95502532D01*
X143958723Y-95499938D01*
X143961561Y-95495428D01*
X143964945Y-95491306D01*
X143966461Y-95487644D01*
X143974388Y-95475053D01*
X144045816Y-95332195D01*
X144056326Y-95304732D01*
X144056707Y-95299356D01*
X144058770Y-95294378D01*
X144061652Y-95265114D01*
X144061652Y-94836542D01*
X144058770Y-94807278D01*
X144056707Y-94802299D01*
X144056326Y-94796924D01*
X144045816Y-94769461D01*
X143974388Y-94626603D01*
X143966459Y-94614008D01*
X143964944Y-94610349D01*
X143961562Y-94606228D01*
X143958723Y-94601718D01*
X143955731Y-94599123D01*
X143946289Y-94587618D01*
X143909498Y-94550828D01*
X144404509Y-94550828D01*
X144404509Y-95550828D01*
X144407391Y-95580092D01*
X144429789Y-95634164D01*
X144471173Y-95675548D01*
X144525245Y-95697946D01*
X144583773Y-95697946D01*
X144637845Y-95675548D01*
X144679229Y-95634164D01*
X144701627Y-95580092D01*
X144704509Y-95550828D01*
X144704509Y-94871952D01*
X144749216Y-94782538D01*
X144786220Y-94745535D01*
X144875634Y-94700828D01*
X144983081Y-94700828D01*
X145012345Y-94697946D01*
X145066417Y-94675548D01*
X145107801Y-94634164D01*
X145130199Y-94580092D01*
X145130199Y-94521564D01*
X145107801Y-94467492D01*
X145066417Y-94426108D01*
X145012345Y-94403710D01*
X144983081Y-94400828D01*
X144840224Y-94400828D01*
X144810960Y-94403710D01*
X144805979Y-94405773D01*
X144800605Y-94406155D01*
X144773141Y-94416664D01*
X144676648Y-94464911D01*
X144637845Y-94426108D01*
X144583773Y-94403710D01*
X144525245Y-94403710D01*
X144471173Y-94426108D01*
X144429789Y-94467492D01*
X144407391Y-94521564D01*
X144404509Y-94550828D01*
X143909498Y-94550828D01*
X143874860Y-94516190D01*
X143863360Y-94506752D01*
X143860763Y-94503758D01*
X143856246Y-94500915D01*
X143852129Y-94497536D01*
X143848472Y-94496021D01*
X143835877Y-94488093D01*
X143693020Y-94416664D01*
X143665557Y-94406155D01*
X143660182Y-94405773D01*
X143655202Y-94403710D01*
X143625938Y-94400828D01*
X143411652Y-94400828D01*
X143382388Y-94403710D01*
X143377407Y-94405773D01*
X143372033Y-94406155D01*
X143344569Y-94416664D01*
X143201713Y-94488093D01*
X143189119Y-94496020D01*
X143185460Y-94497536D01*
X143181339Y-94500917D01*
X143176827Y-94503758D01*
X143174230Y-94506751D01*
X143162730Y-94516190D01*
X143091301Y-94587618D01*
X143081861Y-94599120D01*
X143078867Y-94601717D01*
X143076025Y-94606231D01*
X143072646Y-94610349D01*
X143071130Y-94614007D01*
X143063202Y-94626603D01*
X142991774Y-94769460D01*
X142981264Y-94796924D01*
X142980882Y-94802299D01*
X142978820Y-94807278D01*
X142975938Y-94836542D01*
X142592211Y-94836542D01*
X142743886Y-94643501D01*
X142748403Y-94636418D01*
X142750658Y-94634164D01*
X142752170Y-94630513D01*
X142759699Y-94618710D01*
X142765221Y-94599004D01*
X142773056Y-94580092D01*
X142773056Y-94571052D01*
X142775494Y-94562354D01*
X142773056Y-94542037D01*
X142773056Y-94521564D01*
X142769597Y-94513214D01*
X142768521Y-94504245D01*
X142758490Y-94486401D01*
X142750658Y-94467492D01*
X142744270Y-94461104D01*
X142739842Y-94453226D01*
X142723743Y-94440577D01*
X142709274Y-94426108D01*
X142700925Y-94422649D01*
X142693820Y-94417067D01*
X142674114Y-94411544D01*
X142655202Y-94403710D01*
X142641265Y-94402337D01*
X142637464Y-94401272D01*
X142634300Y-94401651D01*
X142625938Y-94400828D01*
X141840223Y-94400828D01*
X141810959Y-94403710D01*
X141756887Y-94426108D01*
X141715503Y-94467492D01*
X141693105Y-94521564D01*
X141693105Y-94580092D01*
X141715503Y-94634164D01*
X141756887Y-94675548D01*
X141810959Y-94697946D01*
X141840223Y-94700828D01*
X142317318Y-94700828D01*
X141722275Y-95458155D01*
X141717757Y-95465237D01*
X141715503Y-95467492D01*
X141713990Y-95471142D01*
X141706462Y-95482946D01*
X141700939Y-95502651D01*
X141693105Y-95521564D01*
X141693105Y-95530603D01*
X141690667Y-95539302D01*
X141418795Y-95539302D01*
X141418795Y-94765114D01*
X141415913Y-94735850D01*
X141413849Y-94730869D01*
X141413468Y-94725495D01*
X141402959Y-94698031D01*
X141331530Y-94555175D01*
X141328449Y-94550280D01*
X141327680Y-94547973D01*
X141325187Y-94545098D01*
X141315865Y-94530289D01*
X141301655Y-94517965D01*
X141289334Y-94503758D01*
X141274528Y-94494438D01*
X141271650Y-94491942D01*
X141269338Y-94491171D01*
X141264448Y-94488093D01*
X141121591Y-94416664D01*
X141094128Y-94406155D01*
X141088753Y-94405773D01*
X141083773Y-94403710D01*
X141054509Y-94400828D01*
X140840223Y-94400828D01*
X140810959Y-94403710D01*
X140805978Y-94405773D01*
X140800604Y-94406155D01*
X140773140Y-94416664D01*
X140724266Y-94441101D01*
X140709273Y-94426108D01*
X140655201Y-94403710D01*
X140596673Y-94403710D01*
X140542601Y-94426108D01*
X140501217Y-94467492D01*
X140478819Y-94521564D01*
X140475937Y-94550828D01*
X140043080Y-94550828D01*
X140042735Y-94550280D01*
X140041966Y-94547973D01*
X140039473Y-94545098D01*
X140030151Y-94530289D01*
X140015941Y-94517965D01*
X140003620Y-94503758D01*
X139988814Y-94494438D01*
X139985936Y-94491942D01*
X139983624Y-94491171D01*
X139978734Y-94488093D01*
X139835877Y-94416664D01*
X139808414Y-94406155D01*
X139803039Y-94405773D01*
X139798059Y-94403710D01*
X139768795Y-94400828D01*
X139483081Y-94400828D01*
X139453817Y-94403710D01*
X139448839Y-94405771D01*
X139443462Y-94406154D01*
X139415999Y-94416664D01*
X139273141Y-94488093D01*
X139268246Y-94491173D01*
X139265939Y-94491943D01*
X139263064Y-94494435D01*
X139248255Y-94503758D01*
X139235932Y-94517966D01*
X139221724Y-94530289D01*
X139212401Y-94545098D01*
X139209909Y-94547973D01*
X139209139Y-94550280D01*
X139206059Y-94555175D01*
X139134631Y-94698032D01*
X139124121Y-94725496D01*
X139123739Y-94730871D01*
X139121677Y-94735850D01*
X139118795Y-94765114D01*
X138604206Y-94765114D01*
X138478734Y-94702378D01*
X138476593Y-94701558D01*
X138475723Y-94700914D01*
X138463467Y-94696535D01*
X138451271Y-94691868D01*
X138450187Y-94691791D01*
X138448032Y-94691021D01*
X138178294Y-94623586D01*
X138071934Y-94570406D01*
X138034929Y-94533401D01*
X137990224Y-94443990D01*
X137990224Y-94371951D01*
X138034929Y-94282540D01*
X138071934Y-94245535D01*
X138161348Y-94200828D01*
X138458741Y-94200828D01*
X138649932Y-94264559D01*
X138678606Y-94271079D01*
X138736986Y-94266930D01*
X138789333Y-94240756D01*
X138827681Y-94196542D01*
X138846189Y-94141018D01*
X138842040Y-94082638D01*
X138835515Y-94069589D01*
X146262830Y-94069589D01*
X146269350Y-94098262D01*
X146769350Y-95598262D01*
X146781338Y-95625113D01*
X146788360Y-95633210D01*
X146793153Y-95642795D01*
X146807359Y-95655116D01*
X146819685Y-95669328D01*
X146829272Y-95674121D01*
X146837367Y-95681142D01*
X146855209Y-95687089D01*
X146872033Y-95695501D01*
X146882723Y-95696260D01*
X146892891Y-95699650D01*
X146911647Y-95698317D01*
X146930413Y-95699651D01*
X146940583Y-95696260D01*
X146951272Y-95695501D01*
X146968093Y-95687090D01*
X146985937Y-95681142D01*
X146994033Y-95674119D01*
X147003619Y-95669327D01*
X147015942Y-95655118D01*
X147030151Y-95642795D01*
X147034943Y-95633209D01*
X147041966Y-95625113D01*
X147053954Y-95598262D01*
X147433162Y-94460639D01*
X147691401Y-94460639D01*
X147695550Y-94519019D01*
X147721724Y-94571368D01*
X147765939Y-94609715D01*
X147821462Y-94628222D01*
X147879842Y-94624073D01*
X147907305Y-94613564D01*
X148050162Y-94542135D01*
X148062755Y-94534207D01*
X148066415Y-94532692D01*
X148070534Y-94529310D01*
X148075048Y-94526470D01*
X148077644Y-94523476D01*
X148089146Y-94514037D01*
X148118794Y-94484389D01*
X148118794Y-95400828D01*
X147840223Y-95400828D01*
X147810959Y-95403710D01*
X147756887Y-95426108D01*
X147715503Y-95467492D01*
X147693105Y-95521564D01*
X147693105Y-95580092D01*
X147715503Y-95634164D01*
X147756887Y-95675548D01*
X147810959Y-95697946D01*
X147840223Y-95700828D01*
X148697366Y-95700828D01*
X148726630Y-95697946D01*
X148780702Y-95675548D01*
X148822086Y-95634164D01*
X148844484Y-95580092D01*
X148844484Y-95521564D01*
X148822086Y-95467492D01*
X148804732Y-95450138D01*
X149121676Y-95450138D01*
X149121676Y-95508664D01*
X149123902Y-95514037D01*
X149144073Y-95562735D01*
X149162728Y-95585466D01*
X149234156Y-95656894D01*
X149256886Y-95675549D01*
X149278712Y-95684589D01*
X149310958Y-95697946D01*
X149369486Y-95697946D01*
X149410053Y-95681142D01*
X149423557Y-95675549D01*
X149423561Y-95675544D01*
X149446287Y-95656895D01*
X149517716Y-95585467D01*
X149536371Y-95562736D01*
X149536372Y-95562735D01*
X149558769Y-95508663D01*
X149558769Y-95450137D01*
X149536372Y-95396065D01*
X149517717Y-95373334D01*
X149446288Y-95301905D01*
X149423557Y-95283250D01*
X149390267Y-95269461D01*
X149369486Y-95260853D01*
X149310958Y-95260853D01*
X149290177Y-95269461D01*
X149256887Y-95283250D01*
X149256886Y-95283251D01*
X149234155Y-95301906D01*
X149162727Y-95373335D01*
X149144077Y-95396060D01*
X149144073Y-95396065D01*
X149123903Y-95444762D01*
X149121676Y-95450138D01*
X148804732Y-95450138D01*
X148780702Y-95426108D01*
X148726630Y-95403710D01*
X148697366Y-95400828D01*
X148418794Y-95400828D01*
X148418794Y-94622257D01*
X149833080Y-94622257D01*
X149833080Y-94979400D01*
X149833582Y-94984503D01*
X149833257Y-94986691D01*
X149834876Y-94997641D01*
X149835962Y-95008664D01*
X149836809Y-95010708D01*
X149837559Y-95015780D01*
X149908987Y-95301494D01*
X149909758Y-95303652D01*
X149909835Y-95304733D01*
X149914493Y-95316907D01*
X149918880Y-95329185D01*
X149919524Y-95330055D01*
X149920344Y-95332196D01*
X149991773Y-95475053D01*
X149999700Y-95487646D01*
X150001216Y-95491306D01*
X150004597Y-95495425D01*
X150007438Y-95499939D01*
X150010431Y-95502535D01*
X150019871Y-95514037D01*
X150091300Y-95585466D01*
X150102804Y-95594907D01*
X150105399Y-95597899D01*
X150109908Y-95600737D01*
X150114031Y-95604121D01*
X150117692Y-95605637D01*
X150130284Y-95613564D01*
X150273142Y-95684992D01*
X150300605Y-95695502D01*
X150305980Y-95695883D01*
X150310959Y-95697946D01*
X150340223Y-95700828D01*
X150483080Y-95700828D01*
X150512344Y-95697946D01*
X150517322Y-95695883D01*
X150522698Y-95695502D01*
X150550162Y-95684992D01*
X150693019Y-95613564D01*
X150705612Y-95605636D01*
X150709272Y-95604121D01*
X150713391Y-95600739D01*
X150717905Y-95597899D01*
X150720501Y-95594905D01*
X150732003Y-95585466D01*
X150803432Y-95514037D01*
X150812873Y-95502532D01*
X150815865Y-95499938D01*
X150818703Y-95495428D01*
X150822087Y-95491306D01*
X150823603Y-95487644D01*
X150831530Y-95475053D01*
X150902958Y-95332195D01*
X150903775Y-95330058D01*
X150904422Y-95329186D01*
X150908811Y-95316899D01*
X150913468Y-95304732D01*
X150913544Y-95303650D01*
X150914315Y-95301495D01*
X150985744Y-95015781D01*
X150986494Y-95010708D01*
X150987341Y-95008664D01*
X150988426Y-94997644D01*
X150990046Y-94986692D01*
X150989720Y-94984503D01*
X150990223Y-94979400D01*
X150990223Y-94622257D01*
X150989720Y-94617153D01*
X150990046Y-94614965D01*
X150988426Y-94604012D01*
X150987341Y-94592993D01*
X150986494Y-94590948D01*
X150985744Y-94585876D01*
X150914315Y-94300162D01*
X150913544Y-94298006D01*
X150913468Y-94296924D01*
X150908808Y-94284749D01*
X150904422Y-94272470D01*
X150903775Y-94271597D01*
X150902958Y-94269461D01*
X150831530Y-94126603D01*
X150823601Y-94114008D01*
X150822086Y-94110349D01*
X150818704Y-94106228D01*
X150815865Y-94101718D01*
X150812873Y-94099123D01*
X150803431Y-94087618D01*
X150732002Y-94016190D01*
X150720502Y-94006752D01*
X150717905Y-94003758D01*
X150713388Y-94000915D01*
X150709271Y-93997536D01*
X150705614Y-93996021D01*
X150693019Y-93988093D01*
X150550162Y-93916664D01*
X150522699Y-93906155D01*
X150517324Y-93905773D01*
X150512344Y-93903710D01*
X150483080Y-93900828D01*
X150340223Y-93900828D01*
X150310959Y-93903710D01*
X150305978Y-93905773D01*
X150300604Y-93906155D01*
X150273140Y-93916664D01*
X150130284Y-93988093D01*
X150117690Y-93996020D01*
X150114031Y-93997536D01*
X150109910Y-94000917D01*
X150105398Y-94003758D01*
X150102801Y-94006751D01*
X150091301Y-94016190D01*
X150019872Y-94087618D01*
X150010432Y-94099120D01*
X150007438Y-94101717D01*
X150004596Y-94106231D01*
X150001217Y-94110349D01*
X149999701Y-94114007D01*
X149991773Y-94126603D01*
X149920344Y-94269460D01*
X149919524Y-94271600D01*
X149918880Y-94272471D01*
X149914493Y-94284748D01*
X149909835Y-94296923D01*
X149909758Y-94298003D01*
X149908987Y-94300162D01*
X149837559Y-94585877D01*
X149836809Y-94590948D01*
X149835962Y-94592993D01*
X149834876Y-94604015D01*
X149833257Y-94614966D01*
X149833582Y-94617153D01*
X149833080Y-94622257D01*
X148418794Y-94622257D01*
X148418794Y-94050828D01*
X148418783Y-94050722D01*
X148418794Y-94050670D01*
X148418763Y-94050516D01*
X148415912Y-94021564D01*
X148410228Y-94007843D01*
X148407316Y-93993281D01*
X148399137Y-93981068D01*
X148393514Y-93967492D01*
X148383015Y-93956993D01*
X148374750Y-93944651D01*
X148362519Y-93936497D01*
X148352130Y-93926108D01*
X148338411Y-93920425D01*
X148326051Y-93912185D01*
X148311632Y-93909332D01*
X148298058Y-93903710D01*
X148283207Y-93903710D01*
X148268637Y-93900828D01*
X148254227Y-93903710D01*
X148239530Y-93903710D01*
X148225808Y-93909393D01*
X148211247Y-93912306D01*
X148199034Y-93920484D01*
X148185458Y-93926108D01*
X148174959Y-93936606D01*
X148162617Y-93944872D01*
X148144185Y-93967380D01*
X148144074Y-93967492D01*
X148144053Y-93967542D01*
X148143987Y-93967623D01*
X148009367Y-94169551D01*
X147894226Y-94284692D01*
X147773141Y-94345236D01*
X147748255Y-94360901D01*
X147709908Y-94405116D01*
X147691401Y-94460639D01*
X147433162Y-94460639D01*
X147553955Y-94098262D01*
X147560475Y-94069588D01*
X147556325Y-94011208D01*
X147530151Y-93958861D01*
X147485937Y-93920514D01*
X147430413Y-93902005D01*
X147372033Y-93906155D01*
X147319685Y-93932328D01*
X147281338Y-93976543D01*
X147269350Y-94003394D01*
X146911652Y-95076486D01*
X146553954Y-94003394D01*
X146541966Y-93976543D01*
X146503619Y-93932329D01*
X146451272Y-93906155D01*
X146392891Y-93902006D01*
X146337367Y-93920514D01*
X146293153Y-93958861D01*
X146266979Y-94011208D01*
X146262830Y-94069589D01*
X138835515Y-94069589D01*
X138815866Y-94030290D01*
X138771652Y-93991943D01*
X138744801Y-93979954D01*
X138530515Y-93908526D01*
X138516007Y-93905227D01*
X138512345Y-93903710D01*
X138507036Y-93903187D01*
X138501842Y-93902006D01*
X138497892Y-93902286D01*
X138483081Y-93900828D01*
X138125938Y-93900828D01*
X138096674Y-93903710D01*
X138091693Y-93905773D01*
X138086319Y-93906155D01*
X138058855Y-93916664D01*
X137915999Y-93988093D01*
X137903405Y-93996020D01*
X137899746Y-93997536D01*
X137895625Y-94000917D01*
X137891113Y-94003758D01*
X137888516Y-94006751D01*
X137877016Y-94016190D01*
X137805587Y-94087618D01*
X137796147Y-94099120D01*
X137793153Y-94101717D01*
X137790311Y-94106231D01*
X137786932Y-94110349D01*
X137785416Y-94114007D01*
X137777488Y-94126603D01*
X137706060Y-94269460D01*
X137695550Y-94296924D01*
X137695168Y-94302299D01*
X137693106Y-94307278D01*
X137690224Y-94336542D01*
X133775938Y-94336542D01*
X133775938Y-94050828D01*
X133773056Y-94021564D01*
X133750658Y-93967492D01*
X133709274Y-93926108D01*
X133655202Y-93903710D01*
X133596674Y-93903710D01*
X133542602Y-93926108D01*
X133501218Y-93967492D01*
X133478820Y-94021564D01*
X133475938Y-94050828D01*
X133475938Y-94400828D01*
X133411653Y-94400828D01*
X133382389Y-94403710D01*
X133328317Y-94426108D01*
X133286933Y-94467492D01*
X133264535Y-94521564D01*
X133020092Y-94521564D01*
X133015942Y-94517965D01*
X133003621Y-94503758D01*
X132988815Y-94494438D01*
X132985937Y-94491942D01*
X132983625Y-94491171D01*
X132978735Y-94488093D01*
X132835878Y-94416664D01*
X132808415Y-94406155D01*
X132803040Y-94405773D01*
X132798060Y-94403710D01*
X132768796Y-94400828D01*
X132483082Y-94400828D01*
X132453818Y-94403710D01*
X132448840Y-94405771D01*
X132443463Y-94406154D01*
X132416000Y-94416664D01*
X132273142Y-94488093D01*
X132268247Y-94491173D01*
X132265940Y-94491943D01*
X132263065Y-94494435D01*
X132248256Y-94503758D01*
X132235933Y-94517966D01*
X132221725Y-94530289D01*
X132212402Y-94545098D01*
X132209910Y-94547973D01*
X132209140Y-94550280D01*
X132206060Y-94555175D01*
X132134632Y-94698032D01*
X132124122Y-94725496D01*
X132123740Y-94730871D01*
X132121678Y-94735850D01*
X132118796Y-94765114D01*
X131472883Y-94765114D01*
X131893604Y-94134033D01*
X131907439Y-94108085D01*
X131910291Y-94093666D01*
X131915914Y-94080092D01*
X131915914Y-94065239D01*
X131918796Y-94050670D01*
X131915914Y-94036260D01*
X131915914Y-94021564D01*
X131910230Y-94007843D01*
X131907318Y-93993281D01*
X131899139Y-93981068D01*
X131893516Y-93967492D01*
X131883017Y-93956993D01*
X131874752Y-93944651D01*
X131862521Y-93936497D01*
X131852132Y-93926108D01*
X131838413Y-93920425D01*
X131826053Y-93912185D01*
X131811634Y-93909332D01*
X131798060Y-93903710D01*
X131768796Y-93900828D01*
X130768796Y-93900828D01*
X130739532Y-93903710D01*
X130685460Y-93926108D01*
X130644076Y-93967492D01*
X130621678Y-94021564D01*
X130621678Y-94080092D01*
X130644076Y-94134164D01*
X130685460Y-94175548D01*
X130739532Y-94197946D01*
X130768796Y-94200828D01*
X131488519Y-94200828D01*
X130643988Y-95467623D01*
X130630154Y-95493571D01*
X130627302Y-95507985D01*
X130621678Y-95521564D01*
X130621678Y-95536417D01*
X130618796Y-95550986D01*
X127918780Y-95550986D01*
X127918796Y-95550828D01*
X127918796Y-94950136D01*
X128907392Y-94950136D01*
X128907392Y-95008664D01*
X128929790Y-95062736D01*
X128971174Y-95104120D01*
X129025246Y-95126518D01*
X129054510Y-95129400D01*
X130197368Y-95129400D01*
X130226632Y-95126518D01*
X130280704Y-95104120D01*
X130322088Y-95062736D01*
X130344486Y-95008664D01*
X130344486Y-94950136D01*
X130322088Y-94896064D01*
X130280704Y-94854680D01*
X130226632Y-94832282D01*
X130197368Y-94829400D01*
X129054510Y-94829400D01*
X129025246Y-94832282D01*
X128971174Y-94854680D01*
X128929790Y-94896064D01*
X128907392Y-94950136D01*
X127918796Y-94950136D01*
X127918796Y-94915114D01*
X128268796Y-94915114D01*
X128298060Y-94912232D01*
X128352132Y-94889834D01*
X128393516Y-94848450D01*
X128415914Y-94794378D01*
X128415914Y-94735850D01*
X128393516Y-94681778D01*
X128352132Y-94640394D01*
X128298060Y-94617996D01*
X128268796Y-94615114D01*
X127918796Y-94615114D01*
X127918796Y-94200828D01*
X128483082Y-94200828D01*
X128512346Y-94197946D01*
X128566418Y-94175548D01*
X128607802Y-94134164D01*
X128630200Y-94080092D01*
X128630200Y-94021564D01*
X128607802Y-93967492D01*
X128566418Y-93926108D01*
X128512346Y-93903710D01*
X128483082Y-93900828D01*
X127768796Y-93900828D01*
X127739532Y-93903710D01*
X127685460Y-93926108D01*
X127644076Y-93967492D01*
X127621678Y-94021564D01*
X127618796Y-94050828D01*
X126704510Y-94050828D01*
X126701628Y-94021564D01*
X126679230Y-93967492D01*
X126637846Y-93926108D01*
X126583774Y-93903710D01*
X126525246Y-93903710D01*
X126471174Y-93926108D01*
X126429790Y-93967492D01*
X126407392Y-94021564D01*
X126404510Y-94050828D01*
X126237843Y-94050828D01*
X126237843Y-93734161D01*
X151156890Y-93734161D01*
X151156890Y-96010352D01*
G37*
D11*
X172488095Y-98354819D02*
X172488095Y-97354819D01*
X172488095Y-97831009D02*
X173059523Y-97831009D01*
X173059523Y-98354819D02*
X173059523Y-97354819D01*
X174059523Y-98354819D02*
X173488095Y-98354819D01*
X173773809Y-98354819D02*
X173773809Y-97354819D01*
X173773809Y-97354819D02*
X173678571Y-97497676D01*
X173678571Y-97497676D02*
X173583333Y-97592914D01*
X173583333Y-97592914D02*
X173488095Y-97640533D01*
X160916682Y-93054819D02*
X160916682Y-93769104D01*
X160916682Y-93769104D02*
X160869063Y-93911961D01*
X160869063Y-93911961D02*
X160773825Y-94007200D01*
X160773825Y-94007200D02*
X160630968Y-94054819D01*
X160630968Y-94054819D02*
X160535730Y-94054819D01*
X161916682Y-94054819D02*
X161345254Y-94054819D01*
X161630968Y-94054819D02*
X161630968Y-93054819D01*
X161630968Y-93054819D02*
X161535730Y-93197676D01*
X161535730Y-93197676D02*
X161440492Y-93292914D01*
X161440492Y-93292914D02*
X161345254Y-93340533D01*
X103488095Y-98354819D02*
X103488095Y-97354819D01*
X103488095Y-97831009D02*
X104059523Y-97831009D01*
X104059523Y-98354819D02*
X104059523Y-97354819D01*
X104488095Y-97450057D02*
X104535714Y-97402438D01*
X104535714Y-97402438D02*
X104630952Y-97354819D01*
X104630952Y-97354819D02*
X104869047Y-97354819D01*
X104869047Y-97354819D02*
X104964285Y-97402438D01*
X104964285Y-97402438D02*
X105011904Y-97450057D01*
X105011904Y-97450057D02*
X105059523Y-97545295D01*
X105059523Y-97545295D02*
X105059523Y-97640533D01*
X105059523Y-97640533D02*
X105011904Y-97783390D01*
X105011904Y-97783390D02*
X104440476Y-98354819D01*
X104440476Y-98354819D02*
X105059523Y-98354819D01*
D12*
%TO.C,J1*%
X155765016Y-95790000D02*
X157565016Y-95790000D01*
X155765016Y-97240000D02*
X155765016Y-95790000D01*
X157035016Y-100060000D02*
X165465016Y-100060000D01*
X157565016Y-95790000D02*
X157565016Y-94800000D01*
X166735016Y-95790000D02*
X164935016Y-95790000D01*
X166735016Y-97240000D02*
X166735016Y-95790000D01*
D13*
%TO.C,G\u002A\u002A\u002A*%
G36*
X139445061Y-97556270D02*
G01*
X139547905Y-97556585D01*
X139637584Y-97557220D01*
X139715276Y-97558212D01*
X139782163Y-97559593D01*
X139839425Y-97561399D01*
X139888241Y-97563665D01*
X139929791Y-97566423D01*
X139965256Y-97569710D01*
X139995816Y-97573559D01*
X140022651Y-97578005D01*
X140046941Y-97583082D01*
X140061123Y-97586531D01*
X140144020Y-97614708D01*
X140213558Y-97653962D01*
X140270634Y-97705216D01*
X140316146Y-97769393D01*
X140350993Y-97847417D01*
X140367106Y-97901068D01*
X140371619Y-97921073D01*
X140375196Y-97943415D01*
X140377940Y-97970347D01*
X140379953Y-98004121D01*
X140381338Y-98046990D01*
X140382199Y-98101207D01*
X140382638Y-98169026D01*
X140382757Y-98243715D01*
X140382655Y-98324936D01*
X140382246Y-98390515D01*
X140381424Y-98442696D01*
X140380085Y-98483721D01*
X140378122Y-98515835D01*
X140375431Y-98541282D01*
X140371905Y-98562305D01*
X140367439Y-98581148D01*
X140366778Y-98583574D01*
X140339641Y-98663363D01*
X140305160Y-98729011D01*
X140261349Y-98782450D01*
X140206220Y-98825609D01*
X140137786Y-98860419D01*
X140054059Y-98888810D01*
X140051893Y-98889415D01*
X140038012Y-98893183D01*
X140024466Y-98896450D01*
X140009912Y-98899259D01*
X139993008Y-98901652D01*
X139972414Y-98903672D01*
X139946787Y-98905360D01*
X139914788Y-98906759D01*
X139875073Y-98907913D01*
X139826302Y-98908862D01*
X139767134Y-98909650D01*
X139696227Y-98910318D01*
X139612240Y-98910910D01*
X139513831Y-98911468D01*
X139399659Y-98912033D01*
X139325220Y-98912384D01*
X138670098Y-98915447D01*
X138670098Y-99241412D01*
X138670098Y-99567376D01*
X138477528Y-99567376D01*
X138409915Y-99567113D01*
X138358481Y-99566258D01*
X138321527Y-99564714D01*
X138297352Y-99562386D01*
X138284254Y-99559177D01*
X138280701Y-99556197D01*
X138280156Y-99545937D01*
X138279672Y-99518943D01*
X138279251Y-99476369D01*
X138278895Y-99419369D01*
X138278608Y-99349096D01*
X138278390Y-99266705D01*
X138278244Y-99173347D01*
X138278173Y-99070178D01*
X138278179Y-98958351D01*
X138278263Y-98839019D01*
X138278428Y-98713336D01*
X138278677Y-98582455D01*
X138278745Y-98552271D01*
X138279430Y-98257246D01*
X138670098Y-98257246D01*
X138670098Y-98557568D01*
X139267086Y-98554919D01*
X139864076Y-98552271D01*
X139908794Y-98529912D01*
X139941773Y-98509546D01*
X139964167Y-98484529D01*
X139974056Y-98467306D01*
X139980977Y-98452965D01*
X139986090Y-98439024D01*
X139989620Y-98422670D01*
X139991792Y-98401091D01*
X139992830Y-98371474D01*
X139992960Y-98331008D01*
X139992407Y-98276881D01*
X139991943Y-98243715D01*
X139990590Y-98173921D01*
X139988342Y-98119572D01*
X139984508Y-98078225D01*
X139978397Y-98047439D01*
X139969319Y-98024772D01*
X139956584Y-98007783D01*
X139939501Y-97994029D01*
X139917738Y-97981262D01*
X139910441Y-97977482D01*
X139902723Y-97974226D01*
X139893256Y-97971448D01*
X139880709Y-97969103D01*
X139863754Y-97967146D01*
X139841059Y-97965531D01*
X139811297Y-97964214D01*
X139773137Y-97963149D01*
X139725249Y-97962291D01*
X139666305Y-97961596D01*
X139594974Y-97961017D01*
X139509928Y-97960510D01*
X139409836Y-97960029D01*
X139293368Y-97959529D01*
X139276030Y-97959457D01*
X138670098Y-97956923D01*
X138670098Y-98257246D01*
X138279430Y-98257246D01*
X138280127Y-97956923D01*
X138281048Y-97559525D01*
X139045731Y-97556911D01*
X139195153Y-97556468D01*
X139327870Y-97556243D01*
X139445061Y-97556270D01*
G37*
G36*
X141505238Y-97648092D02*
G01*
X141553748Y-97674330D01*
X141597367Y-97697327D01*
X141633511Y-97715770D01*
X141659597Y-97728345D01*
X141673039Y-97733736D01*
X141673826Y-97733844D01*
X141685069Y-97729636D01*
X141709198Y-97717868D01*
X141743596Y-97699910D01*
X141785648Y-97677129D01*
X141832737Y-97650892D01*
X141836153Y-97648962D01*
X141986407Y-97563997D01*
X142260083Y-97563997D01*
X142533759Y-97563997D01*
X142533759Y-97760393D01*
X142533759Y-97956789D01*
X141847333Y-97959749D01*
X141713598Y-97960387D01*
X141596696Y-97961086D01*
X141495574Y-97961869D01*
X141409177Y-97962756D01*
X141336450Y-97963769D01*
X141276341Y-97964930D01*
X141227794Y-97966261D01*
X141189756Y-97967782D01*
X141161172Y-97969516D01*
X141140990Y-97971484D01*
X141128153Y-97973707D01*
X141125236Y-97974538D01*
X141080916Y-97998143D01*
X141047363Y-98035569D01*
X141025006Y-98086041D01*
X141014277Y-98148782D01*
X141013336Y-98176638D01*
X141019255Y-98245660D01*
X141036954Y-98301458D01*
X141066345Y-98343895D01*
X141107340Y-98372834D01*
X141145695Y-98385605D01*
X141167301Y-98388273D01*
X141205407Y-98390528D01*
X141260240Y-98392374D01*
X141332024Y-98393815D01*
X141420983Y-98394855D01*
X141527342Y-98395500D01*
X141651326Y-98395752D01*
X141671488Y-98395757D01*
X141770788Y-98395937D01*
X141865644Y-98396457D01*
X141954158Y-98397286D01*
X142034432Y-98398391D01*
X142104568Y-98399742D01*
X142162667Y-98401307D01*
X142206832Y-98403055D01*
X142235164Y-98404954D01*
X142236734Y-98405116D01*
X142341635Y-98420948D01*
X142431451Y-98444449D01*
X142507486Y-98476121D01*
X142571046Y-98516467D01*
X142605908Y-98547199D01*
X142645957Y-98593154D01*
X142677380Y-98643400D01*
X142700792Y-98700213D01*
X142716811Y-98765869D01*
X142726052Y-98842646D01*
X142729133Y-98932819D01*
X142728156Y-98998610D01*
X142723057Y-99095295D01*
X142713498Y-99176862D01*
X142698717Y-99245692D01*
X142677948Y-99304168D01*
X142650428Y-99354674D01*
X142615393Y-99399590D01*
X142591915Y-99423466D01*
X142541604Y-99464284D01*
X142484604Y-99496932D01*
X142418424Y-99522307D01*
X142340576Y-99541306D01*
X142248570Y-99554829D01*
X142219395Y-99557806D01*
X142190760Y-99559593D01*
X142145266Y-99561226D01*
X142083942Y-99562692D01*
X142007818Y-99563980D01*
X141917921Y-99565077D01*
X141815280Y-99565973D01*
X141700924Y-99566654D01*
X141575882Y-99567110D01*
X141441181Y-99567328D01*
X141391206Y-99567346D01*
X140664533Y-99567376D01*
X140664439Y-99538310D01*
X140664957Y-99520357D01*
X140666455Y-99487927D01*
X140668754Y-99444392D01*
X140671676Y-99393123D01*
X140675044Y-99337493D01*
X140675049Y-99337410D01*
X140685752Y-99165578D01*
X141437590Y-99163009D01*
X142189428Y-99160440D01*
X142231573Y-99139682D01*
X142265138Y-99119453D01*
X142288874Y-99094968D01*
X142304453Y-99062846D01*
X142313549Y-99019709D01*
X142317698Y-98965677D01*
X142316567Y-98896597D01*
X142306447Y-98841788D01*
X142286498Y-98799596D01*
X142255882Y-98768368D01*
X142213759Y-98746453D01*
X142204801Y-98743340D01*
X142191108Y-98740835D01*
X142165571Y-98738541D01*
X142127426Y-98736439D01*
X142075909Y-98734506D01*
X142010256Y-98732722D01*
X141929703Y-98731066D01*
X141833485Y-98729516D01*
X141720838Y-98728052D01*
X141603618Y-98726779D01*
X141488486Y-98725602D01*
X141389774Y-98724524D01*
X141306015Y-98723486D01*
X141235742Y-98722430D01*
X141177489Y-98721299D01*
X141129790Y-98720034D01*
X141091176Y-98718577D01*
X141060183Y-98716871D01*
X141035342Y-98714856D01*
X141015187Y-98712475D01*
X140998252Y-98709670D01*
X140983070Y-98706382D01*
X140968174Y-98702555D01*
X140964146Y-98701458D01*
X140875206Y-98671588D01*
X140801580Y-98634241D01*
X140741745Y-98587977D01*
X140694175Y-98531356D01*
X140657346Y-98462938D01*
X140631224Y-98386813D01*
X140624384Y-98350275D01*
X140619333Y-98299970D01*
X140616069Y-98239932D01*
X140614591Y-98174189D01*
X140614896Y-98106774D01*
X140616986Y-98041718D01*
X140620857Y-97983053D01*
X140626508Y-97934809D01*
X140631373Y-97909994D01*
X140658834Y-97827076D01*
X140696937Y-97757196D01*
X140746805Y-97699272D01*
X140809564Y-97652221D01*
X140886340Y-97614962D01*
X140964146Y-97590001D01*
X140999571Y-97581966D01*
X141038612Y-97575960D01*
X141085125Y-97571588D01*
X141142964Y-97568461D01*
X141192209Y-97566803D01*
X141348723Y-97562424D01*
X141505238Y-97648092D01*
G37*
G36*
X142728448Y-97177184D02*
G01*
X142730849Y-97385124D01*
X142362994Y-97385124D01*
X141995140Y-97385124D01*
X141834875Y-97475033D01*
X141674610Y-97564941D01*
X141506555Y-97475033D01*
X141338499Y-97385124D01*
X138668864Y-97385124D01*
X138381907Y-97385147D01*
X138112549Y-97385218D01*
X137860504Y-97385338D01*
X137625483Y-97385507D01*
X137407199Y-97385727D01*
X137205365Y-97385999D01*
X137019692Y-97386323D01*
X136849894Y-97386701D01*
X136695683Y-97387134D01*
X136556770Y-97387623D01*
X136432870Y-97388169D01*
X136323694Y-97388772D01*
X136228954Y-97389434D01*
X136148363Y-97390157D01*
X136081634Y-97390940D01*
X136028478Y-97391785D01*
X135988609Y-97392694D01*
X135961739Y-97393666D01*
X135947579Y-97394704D01*
X135946443Y-97394882D01*
X135882317Y-97412557D01*
X135832914Y-97439345D01*
X135805548Y-97464997D01*
X135790637Y-97484497D01*
X135779243Y-97504805D01*
X135770908Y-97528613D01*
X135765173Y-97558615D01*
X135761578Y-97597502D01*
X135759665Y-97647968D01*
X135758974Y-97712704D01*
X135758936Y-97738399D01*
X135759416Y-97809505D01*
X135761258Y-97865215D01*
X135765057Y-97908005D01*
X135771414Y-97940350D01*
X135780925Y-97964725D01*
X135794190Y-97983604D01*
X135811806Y-97999464D01*
X135824140Y-98008179D01*
X135835322Y-98015354D01*
X135846729Y-98021647D01*
X135859572Y-98027128D01*
X135875058Y-98031867D01*
X135894399Y-98035933D01*
X135918804Y-98039396D01*
X135949482Y-98042326D01*
X135987643Y-98044793D01*
X136034497Y-98046865D01*
X136091253Y-98048614D01*
X136159121Y-98050107D01*
X136239311Y-98051416D01*
X136333032Y-98052609D01*
X136441493Y-98053757D01*
X136565905Y-98054929D01*
X136648830Y-98055674D01*
X136778562Y-98056842D01*
X136891716Y-98057908D01*
X136989602Y-98058917D01*
X137073529Y-98059910D01*
X137144806Y-98060931D01*
X137204743Y-98062022D01*
X137254648Y-98063226D01*
X137295831Y-98064586D01*
X137329602Y-98066146D01*
X137357268Y-98067947D01*
X137380140Y-98070034D01*
X137399527Y-98072448D01*
X137416738Y-98075233D01*
X137433082Y-98078432D01*
X137448985Y-98081889D01*
X137544190Y-98106626D01*
X137624695Y-98135628D01*
X137693471Y-98170382D01*
X137753486Y-98212376D01*
X137804832Y-98260057D01*
X137849085Y-98313145D01*
X137884390Y-98371285D01*
X137911514Y-98436847D01*
X137931227Y-98512200D01*
X137944295Y-98599716D01*
X137951487Y-98701764D01*
X137951959Y-98714168D01*
X137952680Y-98853105D01*
X137944334Y-98977151D01*
X137926647Y-99086988D01*
X137899346Y-99183303D01*
X137862156Y-99266779D01*
X137814804Y-99338102D01*
X137757016Y-99397957D01*
X137688516Y-99447027D01*
X137650520Y-99467558D01*
X137577817Y-99498676D01*
X137497295Y-99523944D01*
X137404719Y-99544622D01*
X137371877Y-99550472D01*
X137354301Y-99552003D01*
X137320832Y-99553493D01*
X137272827Y-99554935D01*
X137211643Y-99556323D01*
X137138637Y-99557651D01*
X137055165Y-99558911D01*
X136962584Y-99560099D01*
X136862250Y-99561206D01*
X136755521Y-99562228D01*
X136643752Y-99563157D01*
X136528301Y-99563987D01*
X136410524Y-99564711D01*
X136291778Y-99565324D01*
X136173419Y-99565819D01*
X136056805Y-99566189D01*
X135943291Y-99566428D01*
X135834235Y-99566530D01*
X135730994Y-99566488D01*
X135634923Y-99566296D01*
X135547379Y-99565947D01*
X135469720Y-99565436D01*
X135403301Y-99564754D01*
X135349480Y-99563897D01*
X135309613Y-99562858D01*
X135285057Y-99561631D01*
X135277170Y-99560362D01*
X135276931Y-99550524D01*
X135277825Y-99525780D01*
X135279662Y-99489061D01*
X135282251Y-99443299D01*
X135285400Y-99391424D01*
X135288919Y-99336369D01*
X135292617Y-99281065D01*
X135296302Y-99228444D01*
X135299786Y-99181437D01*
X135302875Y-99142976D01*
X135305379Y-99115992D01*
X135306852Y-99104542D01*
X135315655Y-99104225D01*
X135341134Y-99103918D01*
X135382076Y-99103626D01*
X135437270Y-99103350D01*
X135505504Y-99103095D01*
X135585566Y-99102863D01*
X135676243Y-99102658D01*
X135776325Y-99102484D01*
X135884600Y-99102343D01*
X135999854Y-99102240D01*
X136120877Y-99102176D01*
X136181524Y-99102160D01*
X136343271Y-99102065D01*
X136488136Y-99101818D01*
X136617124Y-99101396D01*
X136731239Y-99100773D01*
X136831486Y-99099924D01*
X136918869Y-99098825D01*
X136994394Y-99097450D01*
X137059066Y-99095775D01*
X137113888Y-99093774D01*
X137159866Y-99091424D01*
X137198004Y-99088698D01*
X137229307Y-99085572D01*
X137254780Y-99082022D01*
X137275428Y-99078022D01*
X137288272Y-99074734D01*
X137324268Y-99057220D01*
X137359772Y-99028079D01*
X137389337Y-98992769D01*
X137407516Y-98956743D01*
X137408118Y-98954706D01*
X137420406Y-98894327D01*
X137425399Y-98829609D01*
X137423638Y-98763730D01*
X137415662Y-98699866D01*
X137402014Y-98641195D01*
X137383232Y-98590894D01*
X137359859Y-98552139D01*
X137335858Y-98530071D01*
X137324218Y-98523054D01*
X137312868Y-98516921D01*
X137300569Y-98511603D01*
X137286076Y-98507029D01*
X137268149Y-98503127D01*
X137245544Y-98499827D01*
X137217020Y-98497058D01*
X137181334Y-98494749D01*
X137137244Y-98492829D01*
X137083507Y-98491228D01*
X137018882Y-98489875D01*
X136942126Y-98488699D01*
X136851997Y-98487629D01*
X136747252Y-98486594D01*
X136626650Y-98485524D01*
X136541506Y-98484796D01*
X136388277Y-98483355D01*
X136251573Y-98481783D01*
X136131574Y-98480086D01*
X136028459Y-98478267D01*
X135942408Y-98476329D01*
X135873600Y-98474276D01*
X135822215Y-98472113D01*
X135788431Y-98469843D01*
X135776823Y-98468454D01*
X135675063Y-98448376D01*
X135588368Y-98423868D01*
X135514229Y-98393845D01*
X135450140Y-98357220D01*
X135393593Y-98312908D01*
X135373533Y-98293800D01*
X135329396Y-98244769D01*
X135293591Y-98193292D01*
X135265337Y-98136939D01*
X135243851Y-98073283D01*
X135228353Y-97999896D01*
X135218060Y-97914347D01*
X135212191Y-97814210D01*
X135211421Y-97790179D01*
X135210665Y-97665006D01*
X135216146Y-97555179D01*
X135228264Y-97459133D01*
X135247424Y-97375307D01*
X135274026Y-97302136D01*
X135308473Y-97238058D01*
X135351166Y-97181509D01*
X135374222Y-97157060D01*
X135430500Y-97109461D01*
X135496799Y-97069105D01*
X135575007Y-97035165D01*
X135667009Y-97006811D01*
X135766666Y-96984718D01*
X135774426Y-96983387D01*
X135783586Y-96982134D01*
X135794682Y-96980957D01*
X135808250Y-96979853D01*
X135824827Y-96978821D01*
X135844950Y-96977858D01*
X135869154Y-96976961D01*
X135897978Y-96976128D01*
X135931956Y-96975357D01*
X135971627Y-96974645D01*
X136017526Y-96973990D01*
X136070189Y-96973390D01*
X136130154Y-96972843D01*
X136197957Y-96972345D01*
X136274135Y-96971895D01*
X136359224Y-96971490D01*
X136453760Y-96971129D01*
X136558281Y-96970807D01*
X136673323Y-96970524D01*
X136799422Y-96970277D01*
X136937115Y-96970063D01*
X137086938Y-96969880D01*
X137249429Y-96969726D01*
X137425123Y-96969598D01*
X137614557Y-96969495D01*
X137818268Y-96969413D01*
X138036792Y-96969350D01*
X138270666Y-96969304D01*
X138520427Y-96969273D01*
X138786610Y-96969254D01*
X139069752Y-96969245D01*
X139287209Y-96969244D01*
X142726047Y-96969244D01*
X142728448Y-97177184D01*
G37*
D12*
%TO.C,J2*%
X110515016Y-95790000D02*
X112315016Y-95790000D01*
X110515016Y-97240000D02*
X110515016Y-95790000D01*
X111785016Y-100060000D02*
X120215016Y-100060000D01*
X112315016Y-95790000D02*
X112315016Y-94800000D01*
X121485016Y-95790000D02*
X119685016Y-95790000D01*
X121485016Y-97240000D02*
X121485016Y-95790000D01*
%TD*%
M02*
